aaram-medium-italics.ufo
<glyph name="exclam" format="1">
  <advance width="183"/>
  <unicode hex="0021"/>
  <outline>
    <contour>
      <point x="90" y="73" type="curve" smooth="yes"/>
      <point x="103" y="73"/>
      <point x="119" y="86"/>
      <point x="121" y="99" type="curve"/>
      <point x="227" y="698" type="line"/>
      <point x="229" y="711"/>
      <point x="218" y="724"/>
      <point x="205" y="724" type="curve" smooth="yes"/>
      <point x="189" y="724"/>
      <point x="177" y="711"/>
      <point x="175" y="698" type="curve"/>
      <point x="69" y="99" type="line"/>
      <point x="67" y="86"/>
      <point x="74" y="73"/>
    </contour>
    <contour>
      <point x="89" y="64" type="curve" smooth="yes"/>
      <point x="73" y="64"/>
      <point x="60" y="51"/>
      <point x="58" y="38" type="curve"/>
      <point x="56" y="25" type="line"/>
      <point x="54" y="12"/>
      <point x="61" y="-1"/>
      <point x="77" y="-1" type="curve" smooth="yes"/>
      <point x="90" y="-1"/>
      <point x="106" y="12"/>
      <point x="108" y="25" type="curve"/>
      <point x="110" y="38" type="line"/>
      <point x="112" y="51"/>
      <point x="102" y="64"/>
    </contour>
  </outline>
</glyph>
<glyph name="quotedbl" format="1">
  <advance width="244"/>
  <unicode hex="0022"/>
  <outline>
    <contour>
      <point x="233" y="675" type="line"/>
      <point x="241" y="732" type="line"/>
      <point x="244" y="749"/>
      <point x="233" y="763"/>
      <point x="214" y="763" type="curve" smooth="yes"/>
      <point x="198" y="763"/>
      <point x="180" y="748"/>
      <point x="177" y="731" type="curve"/>
      <point x="170" y="680" type="line"/>
      <point x="169" y="680" type="line"/>
      <point x="162" y="626" type="line"/>
      <point x="159" y="608"/>
      <point x="170" y="594"/>
      <point x="188" y="594" type="curve" smooth="yes"/>
      <point x="204" y="594"/>
      <point x="222" y="610"/>
      <point x="225" y="626" type="curve"/>
      <point x="232" y="675" type="line"/>
    </contour>
    <contour>
      <point x="304" y="679" type="line"/>
      <point x="312" y="734" type="line"/>
      <point x="315" y="751"/>
      <point x="304" y="765"/>
      <point x="286" y="765" type="curve" smooth="yes"/>
      <point x="269" y="765"/>
      <point x="253" y="750"/>
      <point x="250" y="733" type="curve"/>
      <point x="243" y="682" type="line"/>
      <point x="242" y="682" type="line"/>
      <point x="234" y="628" type="line"/>
      <point x="231" y="610"/>
      <point x="242" y="596"/>
      <point x="260" y="596" type="curve" smooth="yes"/>
      <point x="277" y="596"/>
      <point x="293" y="612"/>
      <point x="296" y="628" type="curve"/>
      <point x="303" y="679" type="line"/>
    </contour>
  </outline>
</glyph>
<glyph name="numbersign" format="1">
  <advance width="677"/>
  <unicode hex="0023"/>
  <outline>
    <contour>
      <point x="702" y="447" type="line"/>
      <point x="703" y="447" type="line"/>
      <point x="572" y="477" type="line"/>
      <point x="581" y="503"/>
      <point x="589" y="519"/>
      <point x="598" y="544" type="curve"/>
      <point x="607" y="563"/>
      <point x="613" y="580"/>
      <point x="616" y="596" type="curve" smooth="yes"/>
      <point x="623" y="636"/>
      <point x="608" y="662"/>
      <point x="571" y="674" type="curve"/>
      <point x="568" y="674" type="line"/>
      <point x="567" y="674"/>
      <point x="567" y="675"/>
      <point x="566" y="675" type="curve" smooth="yes"/>
      <point x="553" y="675"/>
      <point x="539" y="665"/>
      <point x="531" y="648" type="curve" smooth="yes"/>
      <point x="529" y="645"/>
      <point x="529" y="638"/>
      <point x="531" y="629" type="curve" smooth="yes"/>
      <point x="534" y="624"/>
      <point x="537" y="620"/>
      <point x="544" y="618" type="curve" smooth="yes"/>
      <point x="554" y="614"/>
      <point x="559" y="608"/>
      <point x="557" y="600" type="curve" smooth="yes"/>
      <point x="557" y="589"/>
      <point x="549" y="571"/>
      <point x="542" y="557" type="curve"/>
      <point x="515" y="488" type="line"/>
      <point x="477" y="496"/>
      <point x="449" y="505"/>
      <point x="411" y="513" type="curve"/>
      <point x="425" y="545" type="line"/>
      <point x="424" y="544" type="line"/>
      <point x="434" y="563"/>
      <point x="440" y="580"/>
      <point x="443" y="596" type="curve" smooth="yes"/>
      <point x="450" y="636"/>
      <point x="435" y="662"/>
      <point x="398" y="674" type="curve" smooth="yes"/>
      <point x="396" y="674"/>
      <point x="396" y="675"/>
      <point x="395" y="675" type="curve" smooth="yes"/>
      <point x="379" y="675"/>
      <point x="366" y="667"/>
      <point x="360" y="654" type="curve"/>
      <point x="360" y="655" type="line"/>
      <point x="356" y="647"/>
      <point x="356" y="638"/>
      <point x="357" y="629" type="curve"/>
      <point x="360" y="624"/>
      <point x="364" y="620"/>
      <point x="371" y="618" type="curve" smooth="yes"/>
      <point x="381" y="614"/>
      <point x="385" y="609"/>
      <point x="384" y="600" type="curve" smooth="yes"/>
      <point x="385" y="590"/>
      <point x="375" y="572"/>
      <point x="368" y="558" type="curve"/>
      <point x="364" y="545"/>
      <point x="360" y="537"/>
      <point x="355" y="525" type="curve"/>
      <point x="285" y="540" type="line"/>
      <point x="286" y="540" type="line"/>
      <point x="268" y="546"/>
      <point x="251" y="549"/>
      <point x="236" y="549" type="curve" smooth="yes"/>
      <point x="197" y="549"/>
      <point x="168" y="529"/>
      <point x="146" y="490" type="curve"/>
      <point x="144" y="485"/>
      <point x="143" y="479"/>
      <point x="147" y="471" type="curve"/>
      <point x="147" y="472" type="line"/>
      <point x="148" y="464"/>
      <point x="154" y="460"/>
      <point x="162" y="457" type="curve"/>
      <point x="161" y="457" type="line"/>
      <point x="164" y="455"/>
      <point x="167" y="455"/>
      <point x="170" y="455" type="curve" smooth="yes"/>
      <point x="183" y="455"/>
      <point x="194" y="463"/>
      <point x="201" y="474" type="curve"/>
      <point x="206" y="486"/>
      <point x="215" y="490"/>
      <point x="225" y="490" type="curve" smooth="yes"/>
      <point x="237" y="490"/>
      <point x="250" y="486"/>
      <point x="263" y="482" type="curve"/>
      <point x="289" y="477"/>
      <point x="308" y="471"/>
      <point x="332" y="466" type="curve"/>
      <point x="316" y="427"/>
      <point x="305" y="392"/>
      <point x="289" y="355" type="curve"/>
      <point x="233" y="367" type="line"/>
      <point x="234" y="366" type="line"/>
      <point x="216" y="373"/>
      <point x="200" y="376"/>
      <point x="185" y="376" type="curve" smooth="yes"/>
      <point x="147" y="376"/>
      <point x="117" y="357"/>
      <point x="98" y="321" type="curve" smooth="yes"/>
      <point x="93" y="311"/>
      <point x="93" y="305"/>
      <point x="95" y="299" type="curve" smooth="yes"/>
      <point x="98" y="291"/>
      <point x="103" y="286"/>
      <point x="108" y="283" type="curve" smooth="yes"/>
      <point x="112" y="281"/>
      <point x="116" y="281"/>
      <point x="119" y="281" type="curve" smooth="yes"/>
      <point x="132" y="281"/>
      <point x="144" y="290"/>
      <point x="151" y="301" type="curve"/>
      <point x="156" y="312"/>
      <point x="163" y="317"/>
      <point x="173" y="317" type="curve" smooth="yes"/>
      <point x="184" y="317"/>
      <point x="199" y="312"/>
      <point x="211" y="308" type="curve"/>
      <point x="230" y="304"/>
      <point x="246" y="300"/>
      <point x="267" y="296" type="curve"/>
      <point x="200" y="126" type="line"/>
      <point x="195" y="119"/>
      <point x="195" y="113"/>
      <point x="198" y="105" type="curve"/>
      <point x="198" y="106" type="line"/>
      <point x="200" y="98"/>
      <point x="205" y="93"/>
      <point x="212" y="91" type="curve" smooth="yes"/>
      <point x="215" y="89"/>
      <point x="218" y="89"/>
      <point x="222" y="89" type="curve" smooth="yes"/>
      <point x="235" y="89"/>
      <point x="249" y="98"/>
      <point x="254" y="110" type="curve" smooth="yes"/>
      <point x="275" y="167"/>
      <point x="300" y="226"/>
      <point x="321" y="283" type="curve"/>
      <point x="360" y="276"/>
      <point x="389" y="268"/>
      <point x="425" y="260" type="curve"/>
      <point x="408" y="213"/>
      <point x="391" y="173"/>
      <point x="373" y="126" type="curve"/>
      <point x="374" y="127" type="line"/>
      <point x="365" y="112"/>
      <point x="371" y="96"/>
      <point x="387" y="91" type="curve"/>
      <point x="386" y="91" type="line"/>
      <point x="388" y="89"/>
      <point x="392" y="89"/>
      <point x="395" y="89" type="curve" smooth="yes"/>
      <point x="408" y="89"/>
      <point x="421" y="98"/>
      <point x="428" y="112" type="curve"/>
      <point x="482" y="248" type="line"/>
      <point x="626" y="216" type="line"/>
      <point x="628" y="215"/>
      <point x="631" y="215"/>
      <point x="634" y="215" type="curve" smooth="yes"/>
      <point x="647" y="215"/>
      <point x="661" y="223"/>
      <point x="666" y="236" type="curve"/>
      <point x="665" y="235" type="line"/>
      <point x="674" y="251"/>
      <point x="668" y="269"/>
      <point x="653" y="273" type="curve" smooth="yes"/>
      <point x="603" y="283"/>
      <point x="555" y="296"/>
      <point x="505" y="306" type="curve"/>
      <point x="520" y="345"/>
      <point x="533" y="381"/>
      <point x="548" y="418" type="curve"/>
      <point x="678" y="389" type="line"/>
      <point x="679" y="388"/>
      <point x="683" y="388"/>
      <point x="685" y="388" type="curve" smooth="yes"/>
      <point x="698" y="388"/>
      <point x="710" y="397"/>
      <point x="716" y="408" type="curve" smooth="yes"/>
      <point x="725" y="423"/>
      <point x="720" y="440"/>
      <point x="705" y="446" type="curve"/>
    </contour>
    <contour>
      <point x="492" y="431" type="line"/>
      <point x="477" y="391"/>
      <point x="462" y="357"/>
      <point x="449" y="319" type="curve"/>
      <point x="410" y="327"/>
      <point x="381" y="334"/>
      <point x="345" y="342" type="curve"/>
      <point x="360" y="382"/>
      <point x="374" y="415"/>
      <point x="389" y="454" type="curve"/>
    </contour>
  </outline>
</glyph>
<glyph name="dollar" format="1">
  <advance width="268"/>
  <unicode hex="0024"/>
  <outline>
    <contour>
      <point x="353" y="542" type="line"/>
      <point x="364" y="605" type="line"/>
      <point x="373" y="653"/>
      <point x="351" y="696"/>
      <point x="314" y="717" type="curve"/>
      <point x="325" y="782" type="line"/>
      <point x="328" y="797"/>
      <point x="319" y="808"/>
      <point x="304" y="808" type="curve" smooth="yes"/>
      <point x="291" y="808"/>
      <point x="278" y="797"/>
      <point x="275" y="782" type="curve"/>
      <point x="266" y="731" type="line"/>
      <point x="262" y="732"/>
      <point x="264" y="731"/>
      <point x="260" y="731" type="curve"/>
      <point x="254" y="731" type="line"/>
      <point x="263" y="782" type="line"/>
      <point x="266" y="797"/>
      <point x="258" y="808"/>
      <point x="243" y="808" type="curve" smooth="yes"/>
      <point x="229" y="808"/>
      <point x="216" y="797"/>
      <point x="213" y="782" type="curve"/>
      <point x="202" y="717" type="line"/>
      <point x="158" y="696"/>
      <point x="122" y="653"/>
      <point x="113" y="605" type="curve"/>
      <point x="85" y="448" type="line"/>
      <point x="83" y="422"/>
      <point x="86" y="398"/>
      <point x="98" y="380" type="curve"/>
      <point x="111" y="361" type="line"/>
      <point x="115" y="357"/>
      <point x="130" y="348"/>
      <point x="136" y="345" type="curve"/>
      <point x="89" y="79" type="line"/>
      <point x="81" y="92"/>
      <point x="76" y="109"/>
      <point x="79" y="129" type="curve"/>
      <point x="86" y="170" type="line"/>
      <point x="36" y="170" type="line"/>
      <point x="29" y="129" type="line"/>
      <point x="21" y="81"/>
      <point x="42" y="37"/>
      <point x="78" y="17" type="curve"/>
      <point x="67" y="-49" type="line"/>
      <point x="64" y="-63"/>
      <point x="73" y="-74"/>
      <point x="87" y="-74" type="curve" smooth="yes"/>
      <point x="102" y="-74"/>
      <point x="114" y="-63"/>
      <point x="117" y="-49" type="curve"/>
      <point x="126" y="3" type="line"/>
      <point x="130" y="2"/>
      <point x="128" y="3"/>
      <point x="132" y="3" type="curve"/>
      <point x="138" y="3" type="line"/>
      <point x="129" y="-49" type="line"/>
      <point x="126" y="-63"/>
      <point x="135" y="-74"/>
      <point x="148" y="-74" type="curve" smooth="yes"/>
      <point x="163" y="-74"/>
      <point x="176" y="-63"/>
      <point x="179" y="-49" type="curve"/>
      <point x="190" y="17" type="line"/>
      <point x="235" y="37"/>
      <point x="272" y="81"/>
      <point x="280" y="129" type="curve"/>
      <point x="306" y="276" type="line"/>
      <point x="311" y="306"/>
      <point x="307" y="331"/>
      <point x="297" y="352" type="curve"/>
      <point x="283" y="368" type="line"/>
      <point x="276" y="377"/>
      <point x="265" y="384"/>
      <point x="256" y="388" type="curve"/>
      <point x="303" y="655" type="line"/>
      <point x="312" y="642"/>
      <point x="316" y="623"/>
      <point x="313" y="605" type="curve"/>
      <point x="302" y="542" type="line"/>
    </contour>
    <contour>
      <point x="163" y="605" type="line"/>
      <point x="166" y="622"/>
      <point x="178" y="642"/>
      <point x="191" y="655" type="curve"/>
      <point x="146" y="401" type="line"/>
      <point x="138" y="407"/>
      <point x="135" y="415"/>
      <point x="131" y="425" type="curve"/>
    </contour>
    <contour>
      <point x="131" y="425" type="line"/>
      <point x="131" y="426"/>
      <point x="131" y="427"/>
      <point x="131" y="428" type="curve"/>
    </contour>
    <contour>
      <point x="147" y="54" type="line"/>
      <point x="135" y="54" type="line"/>
      <point x="186" y="341" type="line"/>
      <point x="198" y="341" type="line"/>
    </contour>
    <contour>
      <point x="201" y="78" type="curve"/>
      <point x="246" y="332" type="line"/>
      <point x="253" y="326"/>
      <point x="257" y="317"/>
      <point x="260" y="306" type="curve"/>
      <point x="229" y="129" type="line"/>
      <point x="226" y="110"/>
      <point x="215" y="92"/>
    </contour>
    <contour>
      <point x="261" y="307" type="line"/>
      <point x="260" y="306" type="line"/>
      <point x="260" y="305"/>
      <point x="260" y="305"/>
      <point x="261" y="304" type="curve"/>
    </contour>
    <contour>
      <point x="195" y="392" type="line"/>
      <point x="245" y="680" type="line"/>
      <point x="251" y="680" type="line"/>
      <point x="257" y="680" type="line"/>
      <point x="207" y="392" type="line"/>
    </contour>
    <contour>
      <point x="258" y="686" type="line"/>
      <point x="257" y="680" type="line"/>
      <point x="259" y="680"/>
      <point x="260" y="679"/>
      <point x="263" y="679" type="curve"/>
    </contour>
  </outline>
</glyph>
<glyph name="percent" format="1">
  <advance width="484"/>
  <unicode hex="0025"/>
  <outline>
    <contour>
      <point x="290" y="446" type="curve"/>
      <point x="312" y="570" type="line"/>
      <point x="322" y="626"/>
      <point x="284" y="672"/>
      <point x="226" y="672" type="curve" smooth="yes"/>
      <point x="170" y="672"/>
      <point x="116" y="626"/>
      <point x="106" y="570" type="curve"/>
      <point x="84" y="446" type="line"/>
      <point x="74" y="389"/>
      <point x="112" y="343"/>
      <point x="168" y="343" type="curve" smooth="yes"/>
      <point x="226" y="343"/>
      <point x="280" y="389"/>
    </contour>
    <contour>
      <point x="177" y="396" type="curve" smooth="yes"/>
      <point x="150" y="396"/>
      <point x="132" y="419"/>
      <point x="137" y="446" type="curve"/>
      <point x="159" y="570" type="line"/>
      <point x="164" y="597"/>
      <point x="190" y="620"/>
      <point x="217" y="620" type="curve" smooth="yes"/>
      <point x="245" y="620"/>
      <point x="263" y="597"/>
      <point x="258" y="570" type="curve"/>
      <point x="236" y="446" type="line"/>
      <point x="231" y="419"/>
      <point x="205" y="396"/>
    </contour>
    <contour>
      <point x="427" y="346" type="curve" smooth="yes"/>
      <point x="371" y="346"/>
      <point x="316" y="299"/>
      <point x="306" y="243" type="curve"/>
      <point x="284" y="119" type="line"/>
      <point x="274" y="61"/>
      <point x="312" y="16"/>
      <point x="368" y="16" type="curve" smooth="yes"/>
      <point x="426" y="16"/>
      <point x="480" y="61"/>
      <point x="490" y="119" type="curve"/>
      <point x="512" y="243" type="line"/>
      <point x="522" y="299"/>
      <point x="485" y="346"/>
    </contour>
    <contour>
      <point x="378" y="69" type="curve" smooth="yes"/>
      <point x="351" y="69"/>
      <point x="333" y="92"/>
      <point x="337" y="119" type="curve"/>
      <point x="359" y="243" type="line"/>
      <point x="364" y="270"/>
      <point x="390" y="292"/>
      <point x="417" y="292" type="curve" smooth="yes"/>
      <point x="445" y="292"/>
      <point x="463" y="270"/>
      <point x="458" y="243" type="curve"/>
      <point x="436" y="119" type="line"/>
      <point x="432" y="92"/>
      <point x="406" y="69"/>
    </contour>
    <contour>
      <point x="449" y="725" type="curve" smooth="yes"/>
      <point x="439" y="732"/>
      <point x="422" y="727"/>
      <point x="413" y="713" type="curve" smooth="yes"/>
      <point x="404" y="700"/>
      <point x="407" y="686"/>
      <point x="418" y="679" type="curve" smooth="yes"/>
      <point x="435" y="670"/>
      <point x="440" y="659"/>
      <point x="437" y="644" type="curve" smooth="yes"/>
      <point x="434" y="626"/>
      <point x="422" y="606"/>
      <point x="406" y="583" type="curve"/>
      <point x="109" y="37" type="line"/>
      <point x="110" y="38" type="line"/>
      <point x="104" y="25"/>
      <point x="105" y="11"/>
      <point x="116" y="4" type="curve" smooth="yes"/>
      <point x="128" y="-3"/>
      <point x="144" y="2"/>
      <point x="152" y="16" type="curve"/>
      <point x="452" y="567" type="line"/>
      <point x="451" y="566" type="line"/>
      <point x="469" y="593"/>
      <point x="483" y="620"/>
      <point x="487" y="644" type="curve" smooth="yes"/>
      <point x="493" y="678"/>
      <point x="483" y="705"/>
    </contour>
  </outline>
</glyph>
<glyph name="ampersand" format="1">
  <advance width="383"/>
  <unicode hex="0026"/>
  <outline>
    <contour>
      <point x="451" y="425" type="curve" smooth="yes"/>
      <point x="454" y="438"/>
      <point x="445" y="450"/>
      <point x="430" y="450" type="curve" smooth="yes"/>
      <point x="417" y="450"/>
      <point x="403" y="438"/>
      <point x="400" y="425" type="curve" smooth="yes"/>
      <point x="394" y="389"/>
      <point x="360" y="359"/>
      <point x="324" y="359" type="curve"/>
      <point x="144" y="359" type="line"/>
      <point x="187" y="602" type="line"/>
      <point x="194" y="643"/>
      <point x="235" y="677"/>
      <point x="275" y="677" type="curve" smooth="yes"/>
      <point x="317" y="677"/>
      <point x="344" y="643"/>
      <point x="337" y="602" type="curve"/>
      <point x="327" y="550" type="line"/>
      <point x="322" y="520"/>
      <point x="314" y="497"/>
      <point x="253" y="497" type="curve" smooth="yes"/>
      <point x="237" y="497"/>
      <point x="224" y="486"/>
      <point x="222" y="471" type="curve" smooth="yes"/>
      <point x="219" y="458"/>
      <point x="228" y="447"/>
      <point x="242" y="447" type="curve" smooth="yes"/>
      <point x="352" y="447"/>
      <point x="368" y="489"/>
      <point x="378" y="545" type="curve"/>
      <point x="388" y="602" type="line"/>
      <point x="400" y="671"/>
      <point x="354" y="728"/>
      <point x="284" y="728" type="curve" smooth="yes"/>
      <point x="215" y="728"/>
      <point x="149" y="671"/>
      <point x="137" y="602" type="curve"/>
      <point x="94" y="358" type="line"/>
      <point x="81" y="356"/>
      <point x="71" y="346"/>
      <point x="68" y="334" type="curve" smooth="yes"/>
      <point x="66" y="321"/>
      <point x="72" y="313"/>
      <point x="82" y="310" type="curve"/>
      <point x="53" y="125" type="line"/>
      <point x="40" y="56"/>
      <point x="86" y="-1"/>
      <point x="155" y="-1" type="curve" smooth="yes"/>
      <point x="225" y="-1"/>
      <point x="291" y="56"/>
      <point x="304" y="125" type="curve"/>
      <point x="336" y="311" type="line"/>
      <point x="392" y="320"/>
      <point x="441" y="368"/>
    </contour>
    <contour>
      <point x="164" y="50" type="curve" smooth="yes"/>
      <point x="124" y="50"/>
      <point x="95" y="84"/>
      <point x="103" y="125" type="curve"/>
      <point x="135" y="309" type="line"/>
      <point x="285" y="309" type="line"/>
      <point x="253" y="125" type="line"/>
      <point x="245" y="84"/>
      <point x="206" y="50"/>
    </contour>
  </outline>
</glyph>
<glyph name="quotesingle" format="1">
  <advance width="82"/>
  <unicode hex="0027"/>
  <outline>
    <contour>
      <point x="147" y="601" type="curve" smooth="yes"/>
      <point x="163" y="601"/>
      <point x="179" y="615"/>
      <point x="182" y="630" type="curve"/>
      <point x="189" y="682" type="line"/>
      <point x="190" y="682" type="line"/>
      <point x="197" y="737" type="line"/>
      <point x="200" y="753"/>
      <point x="190" y="766"/>
      <point x="174" y="766" type="curve" smooth="yes"/>
      <point x="158" y="766"/>
      <point x="142" y="752"/>
      <point x="139" y="736" type="curve"/>
      <point x="132" y="685" type="line"/>
      <point x="131" y="685" type="line"/>
      <point x="124" y="630" type="line"/>
      <point x="121" y="614"/>
      <point x="131" y="601"/>
    </contour>
  </outline>
</glyph>
<glyph name="parenleft" format="1">
  <advance width="184"/>
  <unicode hex="0028"/>
  <outline>
    <contour>
      <point x="78" y="0" type="curve"/>
      <point x="159" y="0" type="line"/>
      <point x="173" y="0"/>
      <point x="186" y="12"/>
      <point x="188" y="25" type="curve" smooth="yes"/>
      <point x="191" y="40"/>
      <point x="182" y="52"/>
      <point x="168" y="52" type="curve"/>
      <point x="107" y="52" type="line"/>
      <point x="105" y="105"/>
      <point x="103" y="251"/>
      <point x="123" y="363" type="curve" smooth="yes"/>
      <point x="144" y="487"/>
      <point x="197" y="627"/>
      <point x="218" y="675" type="curve"/>
      <point x="278" y="675" type="line"/>
      <point x="292" y="675"/>
      <point x="305" y="687"/>
      <point x="307" y="701" type="curve" smooth="yes"/>
      <point x="310" y="715"/>
      <point x="301" y="727"/>
      <point x="287" y="727" type="curve"/>
      <point x="206" y="727" type="line"/>
      <point x="195" y="727"/>
      <point x="182" y="718"/>
      <point x="177" y="707" type="curve" smooth="yes"/>
      <point x="171" y="693"/>
      <point x="98" y="519"/>
      <point x="71" y="363" type="curve" smooth="yes"/>
      <point x="45" y="221"/>
      <point x="55" y="36"/>
      <point x="56" y="19" type="curve" smooth="yes"/>
      <point x="57" y="9"/>
      <point x="67" y="0"/>
    </contour>
  </outline>
</glyph>
<glyph name="parenright" format="1">
  <advance width="184"/>
  <unicode hex="0029"/>
  <outline>
    <contour>
      <point x="23" y="0" type="line"/>
      <point x="9" y="0"/>
      <point x="0" y="12"/>
      <point x="1" y="25" type="curve" smooth="yes"/>
      <point x="4" y="40"/>
      <point x="18" y="52"/>
      <point x="32" y="52" type="curve"/>
      <point x="92" y="52" type="line"/>
      <point x="112" y="103"/>
      <point x="167" y="250"/>
      <point x="187" y="363" type="curve" smooth="yes"/>
      <point x="208" y="487"/>
      <point x="205" y="627"/>
      <point x="202" y="675" type="curve"/>
      <point x="142" y="675" type="line"/>
      <point x="128" y="675"/>
      <point x="118" y="687"/>
      <point x="120" y="701" type="curve" smooth="yes"/>
      <point x="123" y="715"/>
      <point x="137" y="727"/>
      <point x="151" y="727" type="curve"/>
      <point x="231" y="727" type="line"/>
      <point x="243" y="727"/>
      <point x="252" y="718"/>
      <point x="253" y="707" type="curve" smooth="yes"/>
      <point x="255" y="693"/>
      <point x="266" y="519"/>
      <point x="239" y="363" type="curve" smooth="yes"/>
      <point x="213" y="221"/>
      <point x="139" y="36"/>
      <point x="132" y="19" type="curve" smooth="yes"/>
      <point x="127" y="9"/>
      <point x="115" y="0"/>
      <point x="103" y="0" type="curve"/>
    </contour>
  </outline>
</glyph>
<glyph name="asterisk" format="1">
  <advance width="564"/>
  <unicode hex="002A"/>
  <outline>
    <contour>
      <point x="575" y="550" type="curve"/>
      <point x="427" y="550" type="line"/>
      <point x="553" y="656" type="line"/>
      <point x="557" y="662"/>
      <point x="559" y="666"/>
      <point x="560" y="672" type="curve" smooth="yes"/>
      <point x="561" y="678"/>
      <point x="560" y="684"/>
      <point x="558" y="689" type="curve"/>
      <point x="554" y="694"/>
      <point x="546" y="698"/>
      <point x="540" y="698" type="curve" smooth="yes"/>
      <point x="534" y="698"/>
      <point x="527" y="695"/>
      <point x="521" y="690" type="curve"/>
      <point x="398" y="585" type="line"/>
      <point x="424" y="733" type="line"/>
      <point x="426" y="748"/>
      <point x="417" y="758"/>
      <point x="403" y="758" type="curve" smooth="yes"/>
      <point x="389" y="758"/>
      <point x="376" y="748"/>
      <point x="374" y="733" type="curve"/>
      <point x="348" y="585" type="line"/>
      <point x="261" y="690" type="line"/>
      <point x="257" y="695"/>
      <point x="252" y="698"/>
      <point x="246" y="698" type="curve" smooth="yes"/>
      <point x="240" y="698"/>
      <point x="232" y="695"/>
      <point x="225" y="690" type="curve"/>
      <point x="220" y="685"/>
      <point x="217" y="678"/>
      <point x="216" y="672" type="curve" smooth="yes"/>
      <point x="215" y="667"/>
      <point x="214" y="662"/>
      <point x="217" y="657" type="curve"/>
      <point x="306" y="550" type="line"/>
      <point x="158" y="550" type="line"/>
      <point x="142" y="550"/>
      <point x="130" y="538"/>
      <point x="128" y="525" type="curve" smooth="yes"/>
      <point x="126" y="512"/>
      <point x="133" y="499"/>
      <point x="149" y="499" type="curve"/>
      <point x="297" y="499" type="line"/>
      <point x="172" y="393" type="line"/>
      <point x="168" y="388"/>
      <point x="165" y="384"/>
      <point x="164" y="377" type="curve" smooth="yes"/>
      <point x="163" y="371"/>
      <point x="164" y="362"/>
      <point x="168" y="358" type="curve" smooth="yes"/>
      <point x="172" y="355"/>
      <point x="178" y="352"/>
      <point x="185" y="352" type="curve" smooth="yes"/>
      <point x="191" y="352"/>
      <point x="197" y="355"/>
      <point x="203" y="359" type="curve"/>
      <point x="326" y="464" type="line"/>
      <point x="300" y="315" type="line"/>
      <point x="298" y="303"/>
      <point x="307" y="291"/>
      <point x="321" y="291" type="curve" smooth="yes"/>
      <point x="335" y="291"/>
      <point x="348" y="303"/>
      <point x="350" y="315" type="curve"/>
      <point x="376" y="464" type="line"/>
      <point x="463" y="359" type="line"/>
      <point x="467" y="355"/>
      <point x="473" y="352"/>
      <point x="479" y="352" type="curve" smooth="yes"/>
      <point x="485" y="352"/>
      <point x="493" y="355"/>
      <point x="499" y="359" type="curve" smooth="yes"/>
      <point x="510" y="369"/>
      <point x="512" y="384"/>
      <point x="505" y="394" type="curve"/>
      <point x="417" y="499" type="line"/>
      <point x="566" y="499" type="line"/>
      <point x="580" y="499"/>
      <point x="594" y="512"/>
      <point x="596" y="525" type="curve" smooth="yes"/>
      <point x="598" y="538"/>
      <point x="589" y="550"/>
    </contour>
  </outline>
</glyph>
<glyph name="plus" format="1">
  <advance width="468"/>
  <unicode hex="002B"/>
  <outline>
    <contour>
      <point x="510" y="407" type="curve"/>
      <point x="326" y="407" type="line"/>
      <point x="359" y="591" type="line"/>
      <point x="361" y="605"/>
      <point x="353" y="617"/>
      <point x="339" y="617" type="curve" smooth="yes"/>
      <point x="325" y="617"/>
      <point x="313" y="605"/>
      <point x="311" y="591" type="curve"/>
      <point x="278" y="407" type="line"/>
      <point x="93" y="407" type="line"/>
      <point x="79" y="407"/>
      <point x="66" y="396"/>
      <point x="64" y="383" type="curve" smooth="yes"/>
      <point x="62" y="369"/>
      <point x="71" y="358"/>
      <point x="85" y="358" type="curve"/>
      <point x="270" y="358" type="line"/>
      <point x="237" y="173" type="line"/>
      <point x="235" y="160"/>
      <point x="243" y="149"/>
      <point x="257" y="149" type="curve" smooth="yes"/>
      <point x="271" y="149"/>
      <point x="283" y="160"/>
      <point x="285" y="173" type="curve"/>
      <point x="318" y="358" type="line"/>
      <point x="502" y="358" type="line"/>
      <point x="516" y="358"/>
      <point x="530" y="369"/>
      <point x="532" y="383" type="curve" smooth="yes"/>
      <point x="534" y="396"/>
      <point x="524" y="407"/>
    </contour>
  </outline>
</glyph>
<glyph name="comma" format="1">
  <advance width="129"/>
  <unicode hex="002C"/>
  <outline>
    <contour>
      <point x="83" y="85" type="curve" smooth="yes"/>
      <point x="62" y="85"/>
      <point x="45" y="70"/>
      <point x="41" y="51" type="curve" smooth="yes"/>
      <point x="38" y="32" type="line" smooth="yes"/>
      <point x="36" y="22"/>
      <point x="37" y="15"/>
      <point x="44" y="8" type="curve"/>
      <point x="32" y="-4" type="line"/>
      <point x="25" y="-12"/>
      <point x="26" y="-26"/>
      <point x="36" y="-33" type="curve"/>
      <point x="38" y="-33"/>
      <point x="44" y="-34"/>
      <point x="45" y="-34" type="curve" smooth="yes"/>
      <point x="51" y="-34"/>
      <point x="58" y="-31"/>
      <point x="64" y="-26" type="curve"/>
      <point x="85" y="3" type="line"/>
      <point x="96" y="10"/>
      <point x="106" y="22"/>
      <point x="108" y="32" type="curve" smooth="yes"/>
      <point x="111" y="51" type="line" smooth="yes"/>
      <point x="115" y="70"/>
      <point x="101" y="85"/>
    </contour>
  </outline>
</glyph>
<glyph name="hyphen" format="1">
  <advance width="283"/>
  <unicode hex="002D"/>
  <outline>
    <contour>
      <point x="312" y="407" type="curve"/>
      <point x="109" y="407" type="line"/>
      <point x="95" y="407"/>
      <point x="83" y="396"/>
      <point x="81" y="383" type="curve" smooth="yes"/>
      <point x="79" y="369"/>
      <point x="87" y="358"/>
      <point x="101" y="358" type="curve"/>
      <point x="304" y="358" type="line"/>
      <point x="318" y="358"/>
      <point x="331" y="369"/>
      <point x="333" y="383" type="curve" smooth="yes"/>
      <point x="335" y="396"/>
      <point x="326" y="407"/>
    </contour>
  </outline>
</glyph>
<glyph name="period" format="1">
  <advance width="139"/>
  <unicode hex="002E"/>
  <outline>
    <contour>
      <point x="84" y="87" type="curve" smooth="yes"/>
      <point x="64" y="87"/>
      <point x="45" y="73"/>
      <point x="42" y="53" type="curve" smooth="yes"/>
      <point x="38" y="33" type="line" smooth="yes"/>
      <point x="35" y="15"/>
      <point x="49" y="0"/>
      <point x="69" y="0" type="curve" smooth="yes"/>
      <point x="87" y="0"/>
      <point x="104" y="15"/>
      <point x="107" y="33" type="curve" smooth="yes"/>
      <point x="111" y="53" type="line" smooth="yes"/>
      <point x="114" y="73"/>
      <point x="102" y="87"/>
    </contour>
  </outline>
</glyph>
<glyph name="slash" format="1">
  <advance width="318"/>
  <unicode hex="002F"/>
  <outline>
    <contour>
      <point x="387" y="627" type="line"/>
      <point x="102" y="76" type="line"/>
      <point x="48" y="-25" type="line"/>
      <point x="39" y="-41"/>
      <point x="22" y="-48"/>
      <point x="10" y="-42" type="curve" smooth="yes"/>
      <point x="-3" y="-36"/>
      <point x="-7" y="-20"/>
      <point x="-1" y="-7" type="curve"/>
      <point x="53" y="94" type="line"/>
      <point x="338" y="645" type="line"/>
      <point x="393" y="746" type="line"/>
      <point x="401" y="761"/>
      <point x="418" y="768"/>
      <point x="431" y="762" type="curve" smooth="yes"/>
      <point x="444" y="757"/>
      <point x="449" y="741"/>
      <point x="442" y="728" type="curve"/>
    </contour>
  </outline>
</glyph>
<glyph name="zero" format="1">
  <advance width="278"/>
  <unicode hex="0030"/>
  <outline>
    <contour>
      <point x="263" y="715" type="curve" smooth="yes"/>
      <point x="195" y="715"/>
      <point x="129" y="659"/>
      <point x="117" y="591" type="curve"/>
      <point x="34" y="121" type="line"/>
      <point x="22" y="52"/>
      <point x="68" y="-4"/>
      <point x="136" y="-4" type="curve" smooth="yes"/>
      <point x="204" y="-4"/>
      <point x="270" y="52"/>
      <point x="282" y="121" type="curve"/>
      <point x="365" y="591" type="line"/>
      <point x="377" y="659"/>
      <point x="331" y="715"/>
    </contour>
    <contour>
      <point x="254" y="665" type="curve" smooth="yes"/>
      <point x="295" y="665"/>
      <point x="322" y="631"/>
      <point x="315" y="591" type="curve"/>
      <point x="262" y="291" type="line"/>
      <point x="254" y="289"/>
      <point x="248" y="289"/>
      <point x="241" y="289" type="curve" smooth="yes"/>
      <point x="217" y="289"/>
      <point x="199" y="301"/>
      <point x="190" y="323" type="curve"/>
      <point x="144" y="461" type="line"/>
      <point x="167" y="591" type="line"/>
      <point x="174" y="631"/>
      <point x="213" y="665"/>
    </contour>
    <contour>
      <point x="145" y="46" type="curve" smooth="yes"/>
      <point x="104" y="46"/>
      <point x="77" y="80"/>
      <point x="84" y="121" type="curve"/>
      <point x="124" y="351" type="line"/>
      <point x="142" y="301" type="line"/>
      <point x="155" y="261"/>
      <point x="192" y="239"/>
      <point x="233" y="239" type="curve" smooth="yes"/>
      <point x="240" y="239"/>
      <point x="247" y="240"/>
      <point x="253" y="241" type="curve"/>
      <point x="232" y="121" type="line"/>
      <point x="225" y="80"/>
      <point x="186" y="46"/>
    </contour>
  </outline>
</glyph>
<glyph name="one" format="1">
  <advance width="212"/>
  <unicode hex="0031"/>
  <outline>
    <contour>
      <point x="261" y="689" type="line"/>
      <point x="260" y="701"/>
      <point x="253" y="712"/>
      <point x="237" y="712" type="curve"/>
      <point x="232" y="712" type="line"/>
      <point x="166" y="712"/>
      <point x="146" y="712"/>
      <point x="134" y="645" type="curve" smooth="yes"/>
      <point x="132" y="630"/>
      <point x="140" y="617"/>
      <point x="156" y="617" type="curve" smooth="yes"/>
      <point x="172" y="617"/>
      <point x="187" y="630"/>
      <point x="189" y="645" type="curve" smooth="yes"/>
      <point x="192" y="660"/>
      <point x="192" y="660"/>
      <point x="196" y="659" type="curve" smooth="yes"/>
      <point x="197" y="659"/>
      <point x="198" y="658"/>
      <point x="201" y="658" type="curve"/>
      <point x="89" y="26" type="line"/>
      <point x="87" y="12"/>
      <point x="96" y="-2"/>
      <point x="111" y="-2" type="curve" smooth="yes"/>
      <point x="128" y="-2"/>
      <point x="142" y="12"/>
      <point x="144" y="26" type="curve"/>
    </contour>
  </outline>
</glyph>
<glyph name="two" format="1">
  <advance width="274"/>
  <unicode hex="0032"/>
  <outline>
    <contour>
      <point x="260" y="714" type="curve" smooth="yes"/>
      <point x="192" y="714"/>
      <point x="128" y="659"/>
      <point x="116" y="590" type="curve"/>
      <point x="104" y="526" type="line"/>
      <point x="153" y="526" type="line"/>
      <point x="165" y="590" type="line"/>
      <point x="172" y="631"/>
      <point x="211" y="664"/>
      <point x="252" y="664" type="curve" smooth="yes"/>
      <point x="292" y="664"/>
      <point x="319" y="631"/>
      <point x="312" y="590" type="curve"/>
      <point x="275" y="381" type="line"/>
      <point x="79" y="381" type="line"/>
      <point x="33" y="123" type="line"/>
      <point x="21" y="55"/>
      <point x="66" y="-1"/>
      <point x="134" y="-1" type="curve" smooth="yes"/>
      <point x="202" y="-1"/>
      <point x="268" y="55"/>
      <point x="280" y="123" type="curve"/>
      <point x="287" y="162" type="line"/>
      <point x="236" y="162" type="line"/>
      <point x="229" y="123" type="line"/>
      <point x="222" y="82"/>
      <point x="183" y="49"/>
      <point x="143" y="49" type="curve" smooth="yes"/>
      <point x="102" y="49"/>
      <point x="75" y="82"/>
      <point x="82" y="123" type="curve"/>
      <point x="119" y="331" type="line"/>
      <point x="317" y="331" type="line"/>
      <point x="363" y="590" type="line"/>
      <point x="375" y="659"/>
      <point x="328" y="714"/>
    </contour>
  </outline>
</glyph>
<glyph name="three" format="1">
  <advance width="333"/>
  <unicode hex="0033"/>
  <outline>
    <contour>
      <point x="304" y="354" type="line"/>
      <point x="301" y="357" type="line"/>
      <point x="303" y="357" type="line"/>
      <point x="321" y="371"/>
      <point x="337" y="389"/>
      <point x="348" y="410" type="curve" smooth="yes"/>
      <point x="350" y="419"/>
      <point x="354" y="428"/>
      <point x="356" y="439" type="curve"/>
      <point x="382" y="587" type="line"/>
      <point x="394" y="655"/>
      <point x="349" y="712"/>
      <point x="280" y="712" type="curve" smooth="yes"/>
      <point x="211" y="712"/>
      <point x="145" y="652"/>
      <point x="132" y="579" type="curve"/>
      <point x="187" y="579" type="line"/>
      <point x="194" y="621"/>
      <point x="232" y="657"/>
      <point x="270" y="657" type="curve" smooth="yes"/>
      <point x="309" y="657"/>
      <point x="334" y="625"/>
      <point x="327" y="587" type="curve"/>
      <point x="302" y="445" type="line"/>
      <point x="296" y="412"/>
      <point x="267" y="386"/>
      <point x="236" y="384" type="curve"/>
      <point x="154" y="384" type="line"/>
      <point x="145" y="329" type="line"/>
      <point x="227" y="329" type="line"/>
      <point x="256" y="327"/>
      <point x="277" y="301"/>
      <point x="271" y="269" type="curve"/>
      <point x="245" y="123" type="line"/>
      <point x="238" y="85"/>
      <point x="203" y="54"/>
      <point x="164" y="54" type="curve" smooth="yes"/>
      <point x="126" y="54"/>
      <point x="99" y="85"/>
      <point x="106" y="123" type="curve"/>
      <point x="114" y="169" type="line"/>
      <point x="59" y="169" type="line"/>
      <point x="51" y="124" type="line"/>
      <point x="45" y="89"/>
      <point x="55" y="58"/>
      <point x="74" y="35" type="curve" smooth="yes"/>
      <point x="94" y="12"/>
      <point x="120" y="-2"/>
      <point x="154" y="-2" type="curve" smooth="yes"/>
      <point x="223" y="-2"/>
      <point x="289" y="54"/>
      <point x="301" y="123" type="curve"/>
      <point x="327" y="269" type="line"/>
      <point x="333" y="303"/>
      <point x="323" y="334"/>
      <point x="303" y="356" type="curve"/>
    </contour>
  </outline>
</glyph>
<glyph name="four" format="1">
  <advance width="371"/>
  <unicode hex="0034"/>
  <outline>
    <contour>
      <point x="397" y="712" type="curve" smooth="yes"/>
      <point x="383" y="712"/>
      <point x="367" y="700"/>
      <point x="364" y="685" type="curve"/>
      <point x="323" y="453" type="line"/>
      <point x="316" y="414"/>
      <point x="280" y="382"/>
      <point x="242" y="382" type="curve" smooth="yes"/>
      <point x="203" y="382"/>
      <point x="176" y="414"/>
      <point x="183" y="453" type="curve"/>
      <point x="224" y="685" type="line"/>
      <point x="227" y="700"/>
      <point x="218" y="712"/>
      <point x="202" y="712" type="curve" smooth="yes"/>
      <point x="188" y="712"/>
      <point x="172" y="700"/>
      <point x="169" y="685" type="curve"/>
      <point x="128" y="453" type="line"/>
      <point x="116" y="383"/>
      <point x="162" y="328"/>
      <point x="232" y="328" type="curve" smooth="yes"/>
      <point x="256" y="328"/>
      <point x="284" y="337"/>
      <point x="305" y="349" type="curve"/>
      <point x="248" y="26" type="line"/>
      <point x="245" y="11"/>
      <point x="257" y="-1"/>
      <point x="271" y="-1" type="curve" smooth="yes"/>
      <point x="286" y="-1"/>
      <point x="301" y="11"/>
      <point x="304" y="26" type="curve"/>
      <point x="420" y="685" type="line"/>
      <point x="423" y="700"/>
      <point x="412" y="712"/>
    </contour>
  </outline>
</glyph>
<glyph name="five" format="1">
  <advance width="340"/>
  <unicode hex="0035"/>
  <outline>
    <contour>
      <point x="386" y="543" type="line"/>
      <point x="394" y="585" type="line"/>
      <point x="406" y="653"/>
      <point x="361" y="710"/>
      <point x="292" y="710" type="curve" smooth="yes"/>
      <point x="223" y="710"/>
      <point x="158" y="653"/>
      <point x="146" y="585" type="curve"/>
      <point x="100" y="327" type="line"/>
      <point x="293" y="327" type="line"/>
      <point x="257" y="123" type="line"/>
      <point x="250" y="85"/>
      <point x="214" y="54"/>
      <point x="176" y="54" type="curve" smooth="yes"/>
      <point x="137" y="54"/>
      <point x="112" y="85"/>
      <point x="119" y="123" type="curve"/>
      <point x="131" y="190" type="line"/>
      <point x="76" y="190" type="line"/>
      <point x="64" y="123" type="line"/>
      <point x="52" y="54"/>
      <point x="97" y="-1"/>
      <point x="166" y="-1" type="curve" smooth="yes"/>
      <point x="235" y="-1"/>
      <point x="300" y="54"/>
      <point x="312" y="123" type="curve"/>
      <point x="358" y="382" type="line"/>
      <point x="165" y="382" type="line"/>
      <point x="201" y="585" type="line"/>
      <point x="207" y="623"/>
      <point x="243" y="655"/>
      <point x="282" y="655" type="curve" smooth="yes"/>
      <point x="320" y="655"/>
      <point x="345" y="623"/>
      <point x="339" y="585" type="curve"/>
      <point x="331" y="543" type="line"/>
    </contour>
  </outline>
</glyph>
<glyph name="six" format="1">
  <advance width="349"/>
  <unicode hex="0036"/>
  <outline>
    <contour>
      <point x="394" y="522" type="line"/>
      <point x="405" y="587" type="line"/>
      <point x="417" y="655"/>
      <point x="370" y="712"/>
      <point x="302" y="712" type="curve" smooth="yes"/>
      <point x="232" y="712"/>
      <point x="166" y="655"/>
      <point x="154" y="587" type="curve"/>
      <point x="72" y="124" type="line"/>
      <point x="60" y="55"/>
      <point x="106" y="-1"/>
      <point x="176" y="-1" type="curve" smooth="yes"/>
      <point x="244" y="-1"/>
      <point x="311" y="55"/>
      <point x="323" y="124" type="curve"/>
      <point x="349" y="268" type="line"/>
      <point x="354" y="296"/>
      <point x="348" y="322"/>
      <point x="338" y="343" type="curve"/>
      <point x="333" y="350"/>
      <point x="329" y="356"/>
      <point x="325" y="359" type="curve"/>
      <point x="326" y="359" type="line"/>
      <point x="314" y="372"/>
      <point x="299" y="381"/>
      <point x="279" y="382" type="curve"/>
      <point x="212" y="382" type="line"/>
      <point x="196" y="385"/>
      <point x="184" y="397"/>
      <point x="178" y="414" type="curve"/>
      <point x="209" y="587" type="line"/>
      <point x="216" y="625"/>
      <point x="253" y="657"/>
      <point x="292" y="657" type="curve" smooth="yes"/>
      <point x="330" y="657"/>
      <point x="357" y="625"/>
      <point x="350" y="587" type="curve"/>
      <point x="339" y="522" type="line"/>
    </contour>
    <contour>
      <point x="198" y="328" type="curve"/>
      <point x="266" y="328" type="line"/>
      <point x="282" y="325"/>
      <point x="294" y="313"/>
      <point x="299" y="296" type="curve"/>
      <point x="268" y="124" type="line"/>
      <point x="262" y="86"/>
      <point x="224" y="54"/>
      <point x="186" y="54" type="curve" smooth="yes"/>
      <point x="147" y="54"/>
      <point x="121" y="86"/>
      <point x="127" y="124" type="curve"/>
      <point x="165" y="339" type="line"/>
      <point x="175" y="333"/>
      <point x="187" y="329"/>
    </contour>
  </outline>
</glyph>
<glyph name="seven" format="1">
  <advance width="259"/>
  <unicode hex="0037"/>
  <outline>
    <contour>
      <point x="381" y="688" type="curve" smooth="yes"/>
      <point x="383" y="702"/>
      <point x="374" y="713"/>
      <point x="360" y="713" type="curve"/>
      <point x="230" y="713" type="line"/>
      <point x="166" y="713"/>
      <point x="133" y="685"/>
      <point x="122" y="621" type="curve" smooth="yes"/>
      <point x="120" y="607"/>
      <point x="129" y="596"/>
      <point x="143" y="596" type="curve" smooth="yes"/>
      <point x="157" y="596"/>
      <point x="170" y="607"/>
      <point x="172" y="621" type="curve" smooth="yes"/>
      <point x="178" y="655"/>
      <point x="188" y="662"/>
      <point x="221" y="662" type="curve"/>
      <point x="319" y="662" type="line"/>
      <point x="20" y="38" type="line"/>
      <point x="20" y="36"/>
      <point x="18" y="33"/>
      <point x="18" y="31" type="curve" smooth="yes"/>
      <point x="16" y="23"/>
      <point x="11" y="15"/>
      <point x="20" y="6" type="curve"/>
      <point x="28" y="-4"/>
      <point x="47" y="-1"/>
      <point x="57" y="11" type="curve"/>
      <point x="378" y="680" type="line"/>
      <point x="377" y="679" type="line"/>
      <point x="380" y="683"/>
      <point x="380" y="685"/>
    </contour>
  </outline>
</glyph>
<glyph name="eight" format="1">
  <advance width="276"/>
  <unicode hex="0038"/>
  <outline>
    <contour>
      <point x="357" y="552" type="curve"/>
      <point x="364" y="593" type="line"/>
      <point x="376" y="662"/>
      <point x="330" y="718"/>
      <point x="262" y="718" type="curve" smooth="yes"/>
      <point x="194" y="718"/>
      <point x="129" y="662"/>
      <point x="117" y="593" type="curve"/>
      <point x="110" y="552" type="line"/>
      <point x="102" y="510"/>
      <point x="114" y="474"/>
      <point x="141" y="452" type="curve"/>
      <point x="106" y="430"/>
      <point x="82" y="393"/>
      <point x="74" y="351" type="curve"/>
      <point x="34" y="123" type="line"/>
      <point x="22" y="55"/>
      <point x="67" y="-1"/>
      <point x="135" y="-1" type="curve" smooth="yes"/>
      <point x="203" y="-1"/>
      <point x="269" y="55"/>
      <point x="281" y="123" type="curve"/>
      <point x="321" y="351" type="line"/>
      <point x="329" y="393"/>
      <point x="315" y="430"/>
      <point x="288" y="452" type="curve"/>
      <point x="323" y="474"/>
      <point x="349" y="510"/>
    </contour>
    <contour>
      <point x="231" y="123" type="line"/>
      <point x="224" y="83"/>
      <point x="185" y="49"/>
      <point x="144" y="49" type="curve" smooth="yes"/>
      <point x="103" y="49"/>
      <point x="76" y="83"/>
      <point x="83" y="123" type="curve"/>
      <point x="123" y="351" type="line"/>
      <point x="131" y="392"/>
      <point x="169" y="425"/>
      <point x="210" y="425" type="curve" smooth="yes"/>
      <point x="251" y="425"/>
      <point x="279" y="392"/>
      <point x="271" y="351" type="curve"/>
    </contour>
    <contour>
      <point x="307" y="552" type="line"/>
      <point x="300" y="511"/>
      <point x="261" y="478"/>
      <point x="220" y="478" type="curve" smooth="yes"/>
      <point x="179" y="478"/>
      <point x="152" y="511"/>
      <point x="159" y="552" type="curve"/>
      <point x="167" y="596" type="line"/>
      <point x="174" y="635"/>
      <point x="213" y="667"/>
      <point x="253" y="667" type="curve" smooth="yes"/>
      <point x="294" y="667"/>
      <point x="321" y="634"/>
      <point x="314" y="593" type="curve"/>
    </contour>
    <contour>
      <point x="168" y="606" type="line"/>
      <point x="155" y="606" type="line"/>
      <point x="153" y="593" type="line"/>
      <point x="166" y="593" type="line"/>
      <point x="167" y="596" type="line"/>
    </contour>
  </outline>
</glyph>
<glyph name="nine" format="1">
  <advance width="275"/>
  <unicode hex="0039"/>
  <outline>
    <contour>
      <point x="279" y="123" type="curve"/>
      <point x="362" y="590" type="line"/>
      <point x="374" y="659"/>
      <point x="327" y="714"/>
      <point x="259" y="714" type="curve" smooth="yes"/>
      <point x="191" y="714"/>
      <point x="127" y="659"/>
      <point x="115" y="590" type="curve"/>
      <point x="89" y="445" type="line"/>
      <point x="84" y="418"/>
      <point x="89" y="392"/>
      <point x="99" y="371" type="curve"/>
      <point x="104" y="362" type="line"/>
      <point x="107" y="358"/>
      <point x="109" y="357"/>
      <point x="111" y="354" type="curve" smooth="yes"/>
      <point x="123" y="344"/>
      <point x="140" y="334"/>
      <point x="156" y="332" type="curve"/>
      <point x="224" y="332" type="line"/>
      <point x="242" y="329"/>
      <point x="255" y="317"/>
      <point x="259" y="298" type="curve"/>
      <point x="228" y="123" type="line"/>
      <point x="221" y="82"/>
      <point x="182" y="49"/>
      <point x="142" y="49" type="curve" smooth="yes"/>
      <point x="101" y="49"/>
      <point x="74" y="82"/>
      <point x="81" y="123" type="curve"/>
      <point x="92" y="185" type="line"/>
      <point x="43" y="185" type="line"/>
      <point x="32" y="123" type="line"/>
      <point x="20" y="55"/>
      <point x="65" y="-1"/>
      <point x="133" y="-1" type="curve" smooth="yes"/>
      <point x="201" y="-1"/>
      <point x="267" y="55"/>
    </contour>
    <contour>
      <point x="271" y="368" type="line"/>
      <point x="263" y="375"/>
      <point x="249" y="381"/>
      <point x="237" y="382" type="curve"/>
      <point x="168" y="382" type="line"/>
      <point x="150" y="385"/>
      <point x="138" y="397"/>
      <point x="133" y="416" type="curve"/>
      <point x="164" y="590" type="line"/>
      <point x="171" y="631"/>
      <point x="210" y="664"/>
      <point x="251" y="664" type="curve" smooth="yes"/>
      <point x="291" y="664"/>
      <point x="318" y="631"/>
      <point x="311" y="590" type="curve"/>
    </contour>
  </outline>
</glyph>
<glyph name="colon" format="1">
  <advance width="150"/>
  <unicode hex="003A"/>
  <outline>
    <contour>
      <point x="138" y="451" type="curve"/>
      <point x="168" y="451" type="line"/>
      <point x="194" y="451"/>
      <point x="219" y="472"/>
      <point x="224" y="500" type="curve" smooth="yes"/>
      <point x="228" y="526"/>
      <point x="211" y="547"/>
      <point x="185" y="547" type="curve"/>
      <point x="155" y="547" type="line"/>
      <point x="128" y="547"/>
      <point x="103" y="526"/>
      <point x="99" y="500" type="curve" smooth="yes"/>
      <point x="94" y="472"/>
      <point x="111" y="451"/>
    </contour>
    <contour>
      <point x="144" y="315" type="curve"/>
      <point x="114" y="315" type="line"/>
      <point x="87" y="315"/>
      <point x="62" y="293"/>
      <point x="58" y="267" type="curve" smooth="yes"/>
      <point x="53" y="241"/>
      <point x="70" y="219"/>
      <point x="97" y="219" type="curve"/>
      <point x="127" y="219" type="line"/>
      <point x="153" y="219"/>
      <point x="178" y="241"/>
      <point x="183" y="267" type="curve" smooth="yes"/>
      <point x="187" y="293"/>
      <point x="170" y="315"/>
    </contour>
  </outline>
</glyph>
<glyph name="semicolon" format="1">
  <advance width="200"/>
  <unicode hex="003B"/>
  <outline>
    <contour>
      <point x="156" y="381" type="curve"/>
      <point x="185" y="381" type="line"/>
      <point x="211" y="381"/>
      <point x="239" y="403"/>
      <point x="244" y="432" type="curve" smooth="yes"/>
      <point x="248" y="459"/>
      <point x="228" y="482"/>
      <point x="202" y="482" type="curve"/>
      <point x="173" y="482" type="line"/>
      <point x="144" y="482"/>
      <point x="118" y="459"/>
      <point x="114" y="432" type="curve" smooth="yes"/>
      <point x="109" y="403"/>
      <point x="127" y="381"/>
    </contour>
    <contour>
      <point x="162" y="251" type="curve"/>
      <point x="133" y="251" type="line"/>
      <point x="104" y="251"/>
      <point x="78" y="228"/>
      <point x="73" y="201" type="curve" smooth="yes"/>
      <point x="69" y="180"/>
      <point x="80" y="161"/>
      <point x="99" y="154" type="curve"/>
      <point x="81" y="131" type="line"/>
      <point x="69" y="118"/>
      <point x="70" y="99"/>
      <point x="82" y="91" type="curve" smooth="yes"/>
      <point x="86" y="87"/>
      <point x="91" y="86"/>
      <point x="97" y="86" type="curve" smooth="yes"/>
      <point x="106" y="86"/>
      <point x="117" y="91"/>
      <point x="123" y="100" type="curve"/>
      <point x="122" y="99" type="line"/>
      <point x="173" y="160" type="line"/>
      <point x="188" y="169"/>
      <point x="200" y="184"/>
      <point x="203" y="201" type="curve" smooth="yes"/>
      <point x="208" y="228"/>
      <point x="188" y="251"/>
    </contour>
  </outline>
</glyph>
<glyph name="less" format="1">
  <advance width="426"/>
  <unicode hex="003C"/>
  <outline>
    <contour>
      <point x="358" y="1" type="curve" smooth="yes"/>
      <point x="365" y="1"/>
      <point x="371" y="2"/>
      <point x="378" y="7" type="curve" smooth="yes"/>
      <point x="390" y="17"/>
      <point x="395" y="37"/>
      <point x="389" y="48" type="curve"/>
      <point x="169" y="362" type="line"/>
      <point x="500" y="676" type="line"/>
      <point x="510" y="688"/>
      <point x="512" y="707"/>
      <point x="504" y="718" type="curve" smooth="yes"/>
      <point x="494" y="728"/>
      <point x="476" y="726"/>
      <point x="463" y="715" type="curve"/>
      <point x="92" y="362" type="line"/>
      <point x="338" y="10" type="line"/>
      <point x="338" y="11" type="line"/>
      <point x="342" y="4"/>
      <point x="351" y="1"/>
    </contour>
  </outline>
</glyph>
<glyph name="equal" format="1">
  <advance width="420"/>
  <unicode hex="003D"/>
  <outline>
    <contour>
      <point x="85" y="389" type="curve" smooth="yes"/>
      <point x="83" y="378"/>
      <point x="88" y="368"/>
      <point x="97" y="368" type="curve"/>
      <point x="447" y="368" type="line"/>
      <point x="456" y="368"/>
      <point x="465" y="378"/>
      <point x="467" y="389" type="curve" smooth="yes"/>
      <point x="469" y="400"/>
      <point x="464" y="410"/>
      <point x="455" y="410" type="curve"/>
      <point x="105" y="410" type="line"/>
      <point x="96" y="410"/>
      <point x="87" y="400"/>
    </contour>
    <contour>
      <point x="65" y="284" type="curve" smooth="yes"/>
      <point x="63" y="273"/>
      <point x="68" y="263"/>
      <point x="77" y="263" type="curve"/>
      <point x="427" y="263" type="line"/>
      <point x="436" y="263"/>
      <point x="445" y="273"/>
      <point x="447" y="284" type="curve" smooth="yes"/>
      <point x="448" y="293"/>
      <point x="443" y="305"/>
      <point x="434" y="305" type="curve"/>
      <point x="84" y="305" type="line"/>
      <point x="75" y="305"/>
      <point x="66" y="293"/>
    </contour>
  </outline>
</glyph>
<glyph name="greater" format="1">
  <advance width="367"/>
  <unicode hex="003E"/>
  <outline>
    <contour>
      <point x="36" y="-1" type="curve" smooth="yes"/>
      <point x="30" y="-1"/>
      <point x="24" y="1"/>
      <point x="20" y="5" type="curve" smooth="yes"/>
      <point x="11" y="15"/>
      <point x="14" y="31"/>
      <point x="25" y="42" type="curve" smooth="yes"/>
      <point x="132" y="143"/>
      <point x="257" y="262"/>
      <point x="364" y="364" type="curve"/>
      <point x="290" y="471"/>
      <point x="213" y="580"/>
      <point x="139" y="687" type="curve" smooth="yes"/>
      <point x="131" y="697"/>
      <point x="134" y="714"/>
      <point x="147" y="724" type="curve" smooth="yes"/>
      <point x="160" y="733"/>
      <point x="176" y="732"/>
      <point x="183" y="722" type="curve"/>
      <point x="432" y="364" type="line"/>
      <point x="57" y="7" type="line"/>
      <point x="51" y="2"/>
      <point x="43" y="-1"/>
    </contour>
  </outline>
</glyph>
<glyph name="question" format="1">
  <advance width="311"/>
  <unicode hex="003F"/>
  <outline>
    <contour>
      <point x="358" y="443" type="curve"/>
      <point x="385" y="598" type="line"/>
      <point x="397" y="668"/>
      <point x="350" y="725"/>
      <point x="280" y="725" type="curve" smooth="yes"/>
      <point x="211" y="725"/>
      <point x="143" y="668"/>
      <point x="131" y="598" type="curve"/>
      <point x="119" y="533" type="line"/>
      <point x="175" y="533" type="line"/>
      <point x="187" y="598" type="line"/>
      <point x="194" y="638"/>
      <point x="232" y="670"/>
      <point x="271" y="670" type="curve" smooth="yes"/>
      <point x="311" y="670"/>
      <point x="336" y="638"/>
      <point x="329" y="598" type="curve"/>
      <point x="298" y="423" type="line"/>
      <point x="288" y="406"/>
      <point x="271" y="393"/>
      <point x="254" y="391" type="curve"/>
      <point x="194" y="391" type="line"/>
      <point x="192" y="391"/>
      <point x="191" y="390"/>
      <point x="190" y="390" type="curve"/>
      <point x="186" y="390" type="line"/>
      <point x="165" y="388"/>
      <point x="147" y="380"/>
      <point x="129" y="367" type="curve"/>
      <point x="130" y="367" type="line"/>
      <point x="126" y="363"/>
      <point x="118" y="356"/>
      <point x="112" y="351" type="curve" smooth="yes"/>
      <point x="95" y="329"/>
      <point x="79" y="302"/>
      <point x="74" y="274" type="curve"/>
      <point x="42" y="96" type="line"/>
      <point x="98" y="96" type="line"/>
      <point x="135" y="303" type="line"/>
      <point x="146" y="319"/>
      <point x="161" y="331"/>
      <point x="177" y="334" type="curve"/>
      <point x="238" y="334" type="line"/>
      <point x="241" y="334"/>
      <point x="244" y="334"/>
      <point x="251" y="336" type="curve"/>
      <point x="249" y="335" type="line"/>
      <point x="268" y="338"/>
      <point x="286" y="345"/>
      <point x="303" y="357" type="curve" smooth="yes"/>
      <point x="308" y="361"/>
      <point x="314" y="367"/>
      <point x="321" y="375" type="curve" smooth="yes"/>
      <point x="338" y="393"/>
      <point x="351" y="418"/>
    </contour>
    <contour>
      <point x="66" y="70" type="curve" smooth="yes"/>
      <point x="50" y="70"/>
      <point x="36" y="57"/>
      <point x="33" y="42" type="curve"/>
      <point x="31" y="29" type="line"/>
      <point x="28" y="13"/>
      <point x="38" y="1"/>
      <point x="54" y="1" type="curve" smooth="yes"/>
      <point x="68" y="1"/>
      <point x="84" y="13"/>
      <point x="87" y="29" type="curve"/>
      <point x="89" y="42" type="line"/>
      <point x="92" y="57"/>
      <point x="80" y="70"/>
    </contour>
  </outline>
</glyph>
<glyph name="at" format="1">
  <advance width="367"/>
  <unicode hex="0040"/>
  <outline>
    <contour>
      <point x="306" y="727" type="curve" smooth="yes"/>
      <point x="234" y="727"/>
      <point x="168" y="671"/>
      <point x="155" y="599" type="curve"/>
      <point x="125" y="431" type="line"/>
      <point x="123" y="416"/>
      <point x="134" y="403"/>
      <point x="148" y="403" type="curve" smooth="yes"/>
      <point x="165" y="403"/>
      <point x="178" y="416"/>
      <point x="180" y="431" type="curve"/>
      <point x="210" y="599" type="line"/>
      <point x="217" y="639"/>
      <point x="256" y="672"/>
      <point x="296" y="672" type="curve" smooth="yes"/>
      <point x="335" y="672"/>
      <point x="362" y="639"/>
      <point x="355" y="599" type="curve"/>
      <point x="272" y="125" type="line"/>
      <point x="265" y="86"/>
      <point x="226" y="53"/>
      <point x="187" y="53" type="curve" smooth="yes"/>
      <point x="147" y="53"/>
      <point x="120" y="86"/>
      <point x="127" y="125" type="curve"/>
      <point x="137" y="182" type="line"/>
      <point x="144" y="158"/>
      <point x="168" y="142"/>
      <point x="196" y="142" type="curve" smooth="yes"/>
      <point x="237" y="142"/>
      <point x="275" y="174"/>
      <point x="283" y="216" type="curve"/>
      <point x="297" y="299" type="line"/>
      <point x="295" y="319" type="line"/>
      <point x="296" y="318" type="line"/>
      <point x="295" y="364"/>
      <point x="275" y="392"/>
      <point x="228" y="392" type="curve"/>
      <point x="146" y="392" type="line"/>
      <point x="132" y="392"/>
      <point x="117" y="381"/>
      <point x="114" y="364" type="curve"/>
      <point x="72" y="125" type="line"/>
      <point x="59" y="54"/>
      <point x="105" y="-3"/>
      <point x="177" y="-3" type="curve" smooth="yes"/>
      <point x="248" y="-3"/>
      <point x="315" y="54"/>
      <point x="328" y="125" type="curve"/>
      <point x="411" y="599" type="line"/>
      <point x="424" y="671"/>
      <point x="377" y="727"/>
    </contour>
    <contour>
      <point x="164" y="336" type="line"/>
      <point x="166" y="336" type="line"/>
      <point x="165" y="335"/>
      <point x="163" y="334"/>
      <point x="163" y="332" type="curve"/>
    </contour>
    <contour>
      <point x="204" y="188" type="curve" smooth="yes"/>
      <point x="189" y="188"/>
      <point x="178" y="200"/>
      <point x="181" y="216" type="curve"/>
      <point x="195" y="298" type="line"/>
      <point x="198" y="313"/>
      <point x="213" y="326"/>
      <point x="228" y="326" type="curve" smooth="yes"/>
      <point x="243" y="326"/>
      <point x="254" y="313"/>
      <point x="251" y="298" type="curve"/>
      <point x="237" y="216" type="line"/>
      <point x="234" y="200"/>
      <point x="219" y="188"/>
    </contour>
  </outline>
</glyph>
<glyph name="A" format="1">
  <advance width="365"/>
  <unicode hex="0041"/>
  <outline>
    <contour>
      <point x="308" y="733" type="curve" smooth="yes"/>
      <point x="237" y="733"/>
      <point x="170" y="675"/>
      <point x="157" y="605" type="curve"/>
      <point x="56" y="29" type="line"/>
      <point x="53" y="13"/>
      <point x="63" y="1"/>
      <point x="79" y="1" type="curve" smooth="yes"/>
      <point x="95" y="1"/>
      <point x="109" y="13"/>
      <point x="112" y="29" type="curve"/>
      <point x="166" y="340" type="line"/>
      <point x="247" y="340" type="line"/>
      <point x="267" y="340"/>
      <point x="295" y="348"/>
      <point x="313" y="356" type="curve"/>
      <point x="256" y="29" type="line"/>
      <point x="253" y="13"/>
      <point x="262" y="1"/>
      <point x="278" y="1" type="curve" smooth="yes"/>
      <point x="294" y="1"/>
      <point x="308" y="13"/>
      <point x="311" y="29" type="curve"/>
      <point x="412" y="605" type="line"/>
      <point x="425" y="675"/>
      <point x="379" y="733"/>
    </contour>
    <contour>
      <point x="331" y="458" type="line"/>
      <point x="325" y="423"/>
      <point x="291" y="395"/>
      <point x="257" y="395" type="curve"/>
      <point x="176" y="395" type="line"/>
      <point x="213" y="605" type="line"/>
      <point x="220" y="644"/>
      <point x="258" y="677"/>
      <point x="298" y="677" type="curve" smooth="yes"/>
      <point x="338" y="677"/>
      <point x="364" y="644"/>
      <point x="357" y="605" type="curve"/>
    </contour>
  </outline>
</glyph>
<glyph name="B" format="1">
  <advance width="277"/>
  <unicode hex="0042"/>
  <outline>
    <contour>
      <point x="288" y="365" type="line"/>
      <point x="284" y="368" type="line"/>
      <point x="289" y="371" type="line"/>
      <point x="307" y="385"/>
      <point x="324" y="405"/>
      <point x="332" y="424" type="curve" smooth="yes"/>
      <point x="337" y="433"/>
      <point x="340" y="442"/>
      <point x="342" y="453" type="curve"/>
      <point x="369" y="606" type="line"/>
      <point x="382" y="675"/>
      <point x="336" y="732"/>
      <point x="267" y="732" type="curve" smooth="yes"/>
      <point x="197" y="732"/>
      <point x="131" y="676"/>
      <point x="119" y="607" type="curve"/>
      <point x="16" y="26" type="line"/>
      <point x="14" y="12"/>
      <point x="23" y="0"/>
      <point x="37" y="0" type="curve" smooth="yes"/>
      <point x="51" y="0"/>
      <point x="64" y="12"/>
      <point x="66" y="26" type="curve"/>
      <point x="84" y="10"/>
      <point x="109" y="0"/>
      <point x="138" y="0" type="curve" smooth="yes"/>
      <point x="207" y="0"/>
      <point x="273" y="57"/>
      <point x="285" y="127" type="curve"/>
      <point x="311" y="277" type="line"/>
      <point x="318" y="312"/>
      <point x="309" y="342"/>
      <point x="289" y="364" type="curve"/>
    </contour>
    <contour>
      <point x="258" y="681" type="curve" smooth="yes"/>
      <point x="299" y="681"/>
      <point x="327" y="648"/>
      <point x="319" y="606" type="curve"/>
      <point x="293" y="459" type="line"/>
      <point x="287" y="423"/>
      <point x="255" y="395"/>
      <point x="221" y="393" type="curve"/>
      <point x="131" y="393" type="line"/>
      <point x="168" y="606" type="line"/>
      <point x="176" y="648"/>
      <point x="216" y="681"/>
    </contour>
    <contour>
      <point x="235" y="127" type="line"/>
      <point x="227" y="85"/>
      <point x="187" y="51"/>
      <point x="146" y="51" type="curve" smooth="yes"/>
      <point x="104" y="51"/>
      <point x="76" y="85"/>
      <point x="84" y="127" type="curve"/>
      <point x="122" y="342" type="line"/>
      <point x="211" y="342" type="line"/>
      <point x="245" y="340"/>
      <point x="267" y="311"/>
      <point x="261" y="277" type="curve"/>
    </contour>
  </outline>
</glyph>
<glyph name="C" format="1">
  <advance width="276"/>
  <unicode hex="0043"/>
  <outline>
    <contour>
      <point x="360" y="542" type="line"/>
      <point x="371" y="606" type="line"/>
      <point x="384" y="676"/>
      <point x="337" y="733"/>
      <point x="268" y="733" type="curve" smooth="yes"/>
      <point x="198" y="733"/>
      <point x="131" y="676"/>
      <point x="118" y="606" type="curve"/>
      <point x="34" y="127" type="line"/>
      <point x="22" y="57"/>
      <point x="69" y="0"/>
      <point x="139" y="0" type="curve" smooth="yes"/>
      <point x="208" y="0"/>
      <point x="275" y="57"/>
      <point x="287" y="127" type="curve"/>
      <point x="294" y="168" type="line"/>
      <point x="243" y="168" type="line"/>
      <point x="236" y="127" type="line"/>
      <point x="228" y="84"/>
      <point x="188" y="51"/>
      <point x="147" y="51" type="curve" smooth="yes"/>
      <point x="105" y="51"/>
      <point x="77" y="84"/>
      <point x="85" y="127" type="curve"/>
      <point x="169" y="606" type="line"/>
      <point x="177" y="648"/>
      <point x="217" y="682"/>
      <point x="259" y="682" type="curve" smooth="yes"/>
      <point x="300" y="682"/>
      <point x="328" y="648"/>
      <point x="320" y="606" type="curve"/>
      <point x="309" y="542" type="line"/>
    </contour>
  </outline>
</glyph>
<glyph name="D" format="1">
  <advance width="281"/>
  <unicode hex="0044"/>
  <outline>
    <contour>
      <point x="269" y="733" type="curve" smooth="yes"/>
      <point x="239" y="733"/>
      <point x="212" y="723"/>
      <point x="188" y="707" type="curve"/>
      <point x="190" y="721"/>
      <point x="180" y="732"/>
      <point x="168" y="732" type="curve" smooth="yes"/>
      <point x="154" y="732"/>
      <point x="140" y="721"/>
      <point x="137" y="707" type="curve"/>
      <point x="17" y="26" type="line"/>
      <point x="15" y="12"/>
      <point x="25" y="1"/>
      <point x="39" y="1" type="curve" smooth="yes"/>
      <point x="51" y="1"/>
      <point x="64" y="11"/>
      <point x="68" y="25" type="curve"/>
      <point x="86" y="9"/>
      <point x="110" y="0"/>
      <point x="140" y="0" type="curve" smooth="yes"/>
      <point x="209" y="0"/>
      <point x="276" y="57"/>
      <point x="288" y="127" type="curve"/>
      <point x="372" y="606" type="line"/>
      <point x="385" y="676"/>
      <point x="338" y="733"/>
    </contour>
    <contour>
      <point x="237" y="127" type="line"/>
      <point x="229" y="85"/>
      <point x="189" y="51"/>
      <point x="148" y="51" type="curve" smooth="yes"/>
      <point x="106" y="51"/>
      <point x="78" y="85"/>
      <point x="86" y="127" type="curve"/>
      <point x="170" y="606" type="line"/>
      <point x="178" y="648"/>
      <point x="218" y="682"/>
      <point x="260" y="682" type="curve" smooth="yes"/>
      <point x="301" y="682"/>
      <point x="329" y="648"/>
      <point x="321" y="606" type="curve"/>
    </contour>
  </outline>
</glyph>
<glyph name="E" format="1">
  <advance width="341"/>
  <unicode hex="0045"/>
  <outline>
    <contour>
      <point x="399" y="537" type="line"/>
      <point x="411" y="605" type="line"/>
      <point x="424" y="675"/>
      <point x="376" y="733"/>
      <point x="306" y="733" type="curve" smooth="yes"/>
      <point x="236" y="733"/>
      <point x="167" y="675"/>
      <point x="154" y="605" type="curve"/>
      <point x="70" y="128" type="line"/>
      <point x="58" y="58"/>
      <point x="107" y="0"/>
      <point x="177" y="0" type="curve" smooth="yes"/>
      <point x="247" y="0"/>
      <point x="315" y="58"/>
      <point x="327" y="128" type="curve"/>
      <point x="335" y="172" type="line"/>
      <point x="279" y="172" type="line"/>
      <point x="271" y="128" type="line"/>
      <point x="264" y="89"/>
      <point x="226" y="56"/>
      <point x="186" y="56" type="curve" smooth="yes"/>
      <point x="146" y="56"/>
      <point x="120" y="89"/>
      <point x="127" y="128" type="curve"/>
      <point x="164" y="339" type="line"/>
      <point x="245" y="339" type="line"/>
      <point x="312" y="339"/>
      <point x="374" y="393"/>
      <point x="385" y="458" type="curve" smooth="yes"/>
      <point x="388" y="474"/>
      <point x="376" y="486"/>
      <point x="362" y="486" type="curve" smooth="yes"/>
      <point x="345" y="486"/>
      <point x="332" y="474"/>
      <point x="329" y="458" type="curve" smooth="yes"/>
      <point x="323" y="423"/>
      <point x="289" y="395"/>
      <point x="255" y="395" type="curve"/>
      <point x="174" y="395" type="line"/>
      <point x="211" y="605" type="line"/>
      <point x="218" y="644"/>
      <point x="256" y="677"/>
      <point x="296" y="677" type="curve" smooth="yes"/>
      <point x="336" y="677"/>
      <point x="362" y="644"/>
      <point x="355" y="605" type="curve"/>
      <point x="343" y="537" type="line"/>
    </contour>
  </outline>
</glyph>
<glyph name="F" format="1">
  <advance width="368"/>
  <unicode hex="0046"/>
  <outline>
    <contour>
      <point x="403" y="536" type="line"/>
      <point x="415" y="604" type="line"/>
      <point x="427" y="674"/>
      <point x="380" y="732"/>
      <point x="310" y="732" type="curve" smooth="yes"/>
      <point x="239" y="732"/>
      <point x="172" y="676"/>
      <point x="158" y="605" type="curve"/>
      <point x="56" y="26" type="line"/>
      <point x="54" y="12"/>
      <point x="65" y="-2"/>
      <point x="79" y="-2" type="curve" smooth="yes"/>
      <point x="96" y="-2"/>
      <point x="111" y="12"/>
      <point x="113" y="26" type="curve"/>
      <point x="168" y="339" type="line"/>
      <point x="249" y="339" type="line"/>
      <point x="315" y="339"/>
      <point x="378" y="392"/>
      <point x="389" y="457" type="curve" smooth="yes"/>
      <point x="392" y="473"/>
      <point x="380" y="485"/>
      <point x="366" y="485" type="curve" smooth="yes"/>
      <point x="349" y="485"/>
      <point x="336" y="473"/>
      <point x="333" y="457" type="curve" smooth="yes"/>
      <point x="327" y="422"/>
      <point x="293" y="395"/>
      <point x="259" y="395" type="curve"/>
      <point x="178" y="395" type="line"/>
      <point x="215" y="604" type="line"/>
      <point x="222" y="643"/>
      <point x="260" y="676"/>
      <point x="300" y="676" type="curve" smooth="yes"/>
      <point x="339" y="676"/>
      <point x="366" y="643"/>
      <point x="359" y="604" type="curve"/>
      <point x="347" y="536" type="line"/>
    </contour>
  </outline>
</glyph>
<glyph name="G" format="1">
  <advance width="359"/>
  <unicode hex="0047"/>
  <outline>
    <contour>
      <point x="409" y="539" type="line"/>
      <point x="420" y="605" type="line"/>
      <point x="433" y="676"/>
      <point x="385" y="734"/>
      <point x="315" y="734" type="curve" smooth="yes"/>
      <point x="244" y="734"/>
      <point x="176" y="676"/>
      <point x="163" y="605" type="curve"/>
      <point x="79" y="129" type="line"/>
      <point x="67" y="59"/>
      <point x="115" y="1"/>
      <point x="186" y="1" type="curve" smooth="yes"/>
      <point x="256" y="1"/>
      <point x="324" y="59"/>
      <point x="336" y="129" type="curve"/>
      <point x="379" y="369" type="line"/>
      <point x="381" y="384"/>
      <point x="370" y="397"/>
      <point x="356" y="397" type="curve"/>
      <point x="300" y="397" type="line"/>
      <point x="233" y="397"/>
      <point x="193" y="315"/>
      <point x="182" y="252" type="curve" smooth="yes"/>
      <point x="179" y="236"/>
      <point x="190" y="224"/>
      <point x="205" y="224" type="curve" smooth="yes"/>
      <point x="222" y="224"/>
      <point x="235" y="236"/>
      <point x="238" y="252" type="curve" smooth="yes"/>
      <point x="244" y="288"/>
      <point x="259" y="341"/>
      <point x="290" y="341" type="curve"/>
      <point x="318" y="341" type="line"/>
      <point x="280" y="129" type="line"/>
      <point x="273" y="90"/>
      <point x="235" y="57"/>
      <point x="196" y="57" type="curve" smooth="yes"/>
      <point x="156" y="57"/>
      <point x="128" y="90"/>
      <point x="135" y="129" type="curve"/>
      <point x="219" y="605" type="line"/>
      <point x="226" y="645"/>
      <point x="265" y="678"/>
      <point x="305" y="678" type="curve" smooth="yes"/>
      <point x="344" y="678"/>
      <point x="371" y="645"/>
      <point x="364" y="605" type="curve"/>
      <point x="353" y="539" type="line"/>
    </contour>
  </outline>
</glyph>
<glyph name="H" format="1">
  <advance width="283"/>
  <unicode hex="0048"/>
  <outline>
    <contour>
      <point x="370" y="733" type="curve" smooth="yes"/>
      <point x="355" y="733"/>
      <point x="342" y="721"/>
      <point x="339" y="707" type="curve"/>
      <point x="295" y="458" type="line"/>
      <point x="289" y="422"/>
      <point x="255" y="393"/>
      <point x="218" y="393" type="curve"/>
      <point x="133" y="393" type="line"/>
      <point x="188" y="707" type="line"/>
      <point x="191" y="721"/>
      <point x="181" y="732"/>
      <point x="168" y="732" type="curve" smooth="yes"/>
      <point x="154" y="732"/>
      <point x="140" y="721"/>
      <point x="137" y="707" type="curve"/>
      <point x="17" y="26" type="line"/>
      <point x="15" y="12"/>
      <point x="25" y="0"/>
      <point x="39" y="0" type="curve" smooth="yes"/>
      <point x="52" y="0"/>
      <point x="66" y="12"/>
      <point x="68" y="26" type="curve"/>
      <point x="124" y="341" type="line"/>
      <point x="209" y="341" type="line"/>
      <point x="233" y="341"/>
      <point x="258" y="349"/>
      <point x="278" y="361" type="curve"/>
      <point x="219" y="26" type="line"/>
      <point x="217" y="13"/>
      <point x="226" y="1"/>
      <point x="241" y="1" type="curve" smooth="yes"/>
      <point x="254" y="1"/>
      <point x="268" y="13"/>
      <point x="270" y="26" type="curve"/>
      <point x="390" y="707" type="line"/>
      <point x="393" y="721"/>
      <point x="383" y="733"/>
    </contour>
  </outline>
</glyph>
<glyph name="I" format="1">
  <advance width="149"/>
  <unicode hex="0049"/>
  <outline>
    <contour>
      <point x="157" y="67" type="curve" smooth="yes"/>
      <point x="160" y="80"/>
      <point x="151" y="92"/>
      <point x="136" y="92" type="curve" smooth="yes"/>
      <point x="127" y="92"/>
      <point x="118" y="86"/>
      <point x="112" y="79" type="curve"/>
      <point x="219" y="681" type="line"/>
      <point x="237" y="681" type="line"/>
      <point x="252" y="681"/>
      <point x="265" y="693"/>
      <point x="267" y="707" type="curve" smooth="yes"/>
      <point x="270" y="721"/>
      <point x="261" y="732"/>
      <point x="246" y="732" type="curve"/>
      <point x="240" y="732" type="line"/>
      <point x="176" y="732"/>
      <point x="132" y="732"/>
      <point x="120" y="665" type="curve" smooth="yes"/>
      <point x="117" y="651"/>
      <point x="125" y="640"/>
      <point x="139" y="640" type="curve" smooth="yes"/>
      <point x="148" y="640"/>
      <point x="157" y="644"/>
      <point x="163" y="651" type="curve"/>
      <point x="57" y="50" type="line"/>
      <point x="51" y="51"/>
      <point x="52" y="50"/>
      <point x="45" y="50" type="curve"/>
      <point x="39" y="50" type="line"/>
      <point x="24" y="50"/>
      <point x="12" y="39"/>
      <point x="10" y="25" type="curve" smooth="yes"/>
      <point x="7" y="11"/>
      <point x="16" y="0"/>
      <point x="31" y="0" type="curve"/>
      <point x="66" y="0" type="line"/>
      <point x="67" y="-1"/>
      <point x="70" y="-1"/>
      <point x="73" y="-1" type="curve" smooth="yes"/>
      <point x="75" y="-1"/>
      <point x="81" y="0"/>
      <point x="84" y="1" type="curve"/>
      <point x="122" y="4"/>
      <point x="149" y="18"/>
    </contour>
  </outline>
</glyph>
<glyph name="J" format="1">
  <advance width="197"/>
  <unicode hex="004A"/>
  <outline>
    <contour>
      <point x="299" y="734" type="curve"/>
      <point x="292" y="734" type="line"/>
      <point x="228" y="734"/>
      <point x="183" y="734"/>
      <point x="171" y="666" type="curve" smooth="yes"/>
      <point x="169" y="653"/>
      <point x="179" y="642"/>
      <point x="192" y="642" type="curve" smooth="yes"/>
      <point x="199" y="642"/>
      <point x="206" y="645"/>
      <point x="212" y="649" type="curve"/>
      <point x="120" y="128" type="line"/>
      <point x="112" y="85"/>
      <point x="74" y="52"/>
      <point x="31" y="52" type="curve" smooth="yes"/>
      <point x="18" y="52"/>
      <point x="4" y="40"/>
      <point x="1" y="26" type="curve" smooth="yes"/>
      <point x="0" y="12"/>
      <point x="9" y="1"/>
      <point x="22" y="1" type="curve" smooth="yes"/>
      <point x="92" y="1"/>
      <point x="159" y="58"/>
      <point x="171" y="128" type="curve"/>
      <point x="269" y="683" type="line"/>
      <point x="275" y="682"/>
      <point x="276" y="683"/>
      <point x="283" y="683" type="curve"/>
      <point x="290" y="683" type="line"/>
      <point x="303" y="683"/>
      <point x="317" y="694"/>
      <point x="319" y="708" type="curve" smooth="yes"/>
      <point x="322" y="722"/>
      <point x="312" y="734"/>
    </contour>
  </outline>
</glyph>
<glyph name="K" format="1">
  <advance width="323"/>
  <unicode hex="004B"/>
  <outline>
    <contour>
      <point x="429" y="723" type="line"/>
      <point x="416" y="728"/>
      <point x="400" y="731"/>
      <point x="386" y="731" type="curve" smooth="yes"/>
      <point x="334" y="731"/>
      <point x="282" y="700"/>
      <point x="253" y="651" type="curve"/>
      <point x="254" y="651" type="line"/>
      <point x="218" y="595"/>
      <point x="184" y="543"/>
      <point x="147" y="487" type="curve"/>
      <point x="168" y="604" type="line"/>
      <point x="176" y="647"/>
      <point x="180" y="680"/>
      <point x="220" y="680" type="curve" smooth="yes"/>
      <point x="233" y="680"/>
      <point x="247" y="692"/>
      <point x="249" y="706" type="curve" smooth="yes"/>
      <point x="251" y="720"/>
      <point x="242" y="731"/>
      <point x="229" y="731" type="curve" smooth="yes"/>
      <point x="157" y="731"/>
      <point x="130" y="674"/>
      <point x="118" y="604" type="curve"/>
      <point x="16" y="26" type="line"/>
      <point x="13" y="11"/>
      <point x="23" y="0"/>
      <point x="38" y="0" type="curve" smooth="yes"/>
      <point x="52" y="0"/>
      <point x="63" y="11"/>
      <point x="66" y="26" type="curve"/>
      <point x="112" y="289" type="line"/>
      <point x="132" y="212"/>
      <point x="147" y="155"/>
      <point x="165" y="79" type="curve"/>
      <point x="177" y="35"/>
      <point x="208" y="0"/>
      <point x="250" y="0" type="curve" smooth="yes"/>
      <point x="264" y="0"/>
      <point x="277" y="3"/>
      <point x="294" y="10" type="curve" smooth="yes"/>
      <point x="308" y="16"/>
      <point x="318" y="30"/>
      <point x="314" y="43" type="curve" smooth="yes"/>
      <point x="311" y="56"/>
      <point x="297" y="62"/>
      <point x="282" y="56" type="curve" smooth="yes"/>
      <point x="274" y="53"/>
      <point x="264" y="51"/>
      <point x="257" y="51" type="curve" smooth="yes"/>
      <point x="234" y="51"/>
      <point x="223" y="70"/>
      <point x="215" y="99" type="curve"/>
      <point x="144" y="388" type="line"/>
      <point x="145" y="387" type="line"/>
      <point x="143" y="393" type="line"/>
      <point x="146" y="394"/>
      <point x="144" y="394"/>
      <point x="146" y="397" type="curve"/>
      <point x="302" y="637" type="line"/>
      <point x="316" y="663"/>
      <point x="347" y="680"/>
      <point x="378" y="680" type="curve" smooth="yes"/>
      <point x="387" y="680"/>
      <point x="395" y="679"/>
      <point x="403" y="676" type="curve" smooth="yes"/>
      <point x="414" y="671"/>
      <point x="430" y="677"/>
      <point x="438" y="690" type="curve" smooth="yes"/>
      <point x="444" y="702"/>
      <point x="442" y="716"/>
      <point x="430" y="722" type="curve"/>
    </contour>
  </outline>
</glyph>
<glyph name="L" format="1">
  <advance width="320"/>
  <unicode hex="004C"/>
  <outline>
    <contour>
      <point x="262" y="56" type="curve"/>
      <point x="254" y="56" type="line"/>
      <point x="210" y="56"/>
      <point x="133" y="56"/>
      <point x="139" y="87" type="curve"/>
      <point x="248" y="705" type="line"/>
      <point x="250" y="719"/>
      <point x="241" y="733"/>
      <point x="225" y="733" type="curve" smooth="yes"/>
      <point x="210" y="733"/>
      <point x="194" y="719"/>
      <point x="192" y="705" type="curve"/>
      <point x="83" y="87" type="line"/>
      <point x="69" y="8"/>
      <point x="183" y="0"/>
      <point x="253" y="0" type="curve" smooth="yes"/>
      <point x="269" y="0"/>
      <point x="283" y="12"/>
      <point x="285" y="28" type="curve" smooth="yes"/>
      <point x="288" y="43"/>
      <point x="278" y="56"/>
    </contour>
  </outline>
</glyph>
<glyph name="M" format="1">
  <advance width="486"/>
  <unicode hex="004D"/>
  <outline>
    <contour>
      <point x="470" y="734" type="curve" smooth="yes"/>
      <point x="430" y="734"/>
      <point x="388" y="713"/>
      <point x="361" y="684" type="curve"/>
      <point x="343" y="713"/>
      <point x="310" y="734"/>
      <point x="270" y="734" type="curve" smooth="yes"/>
      <point x="200" y="734"/>
      <point x="133" y="677"/>
      <point x="121" y="607" type="curve"/>
      <point x="18" y="26" type="line"/>
      <point x="16" y="12"/>
      <point x="26" y="1"/>
      <point x="40" y="1" type="curve" smooth="yes"/>
      <point x="53" y="1"/>
      <point x="67" y="12"/>
      <point x="69" y="26" type="curve"/>
      <point x="172" y="607" type="line"/>
      <point x="179" y="649"/>
      <point x="218" y="683"/>
      <point x="261" y="683" type="curve" smooth="yes"/>
      <point x="301" y="683"/>
      <point x="327" y="652"/>
      <point x="322" y="612" type="curve"/>
      <point x="279" y="368" type="line"/>
      <point x="278" y="358"/>
      <point x="283" y="348"/>
      <point x="291" y="344" type="curve" smooth="yes"/>
      <point x="295" y="342"/>
      <point x="297" y="342"/>
      <point x="301" y="342" type="curve" smooth="yes"/>
      <point x="314" y="342"/>
      <point x="328" y="353"/>
      <point x="330" y="367" type="curve"/>
      <point x="373" y="612" type="line"/>
      <point x="382" y="652"/>
      <point x="421" y="683"/>
      <point x="461" y="683" type="curve" smooth="yes"/>
      <point x="503" y="683"/>
      <point x="530" y="649"/>
      <point x="523" y="607" type="curve"/>
      <point x="420" y="26" type="line"/>
      <point x="418" y="12"/>
      <point x="428" y="1"/>
      <point x="442" y="1" type="curve" smooth="yes"/>
      <point x="456" y="1"/>
      <point x="469" y="12"/>
      <point x="471" y="26" type="curve"/>
      <point x="574" y="607" type="line"/>
      <point x="586" y="677"/>
      <point x="539" y="734"/>
    </contour>
  </outline>
</glyph>
<glyph name="N" format="1">
  <advance width="280"/>
  <unicode hex="004E"/>
  <outline>
    <contour>
      <point x="268" y="733" type="curve" smooth="yes"/>
      <point x="198" y="733"/>
      <point x="131" y="676"/>
      <point x="118" y="606" type="curve"/>
      <point x="16" y="26" type="line"/>
      <point x="13" y="11"/>
      <point x="24" y="0"/>
      <point x="38" y="0" type="curve" smooth="yes"/>
      <point x="52" y="0"/>
      <point x="64" y="11"/>
      <point x="67" y="26" type="curve"/>
      <point x="169" y="606" type="line"/>
      <point x="177" y="649"/>
      <point x="217" y="682"/>
      <point x="259" y="682" type="curve" smooth="yes"/>
      <point x="300" y="682"/>
      <point x="328" y="649"/>
      <point x="320" y="606" type="curve"/>
      <point x="218" y="26" type="line"/>
      <point x="215" y="11"/>
      <point x="225" y="0"/>
      <point x="240" y="0" type="curve" smooth="yes"/>
      <point x="253" y="0"/>
      <point x="265" y="11"/>
      <point x="268" y="26" type="curve"/>
      <point x="370" y="606" type="line"/>
      <point x="383" y="676"/>
      <point x="337" y="733"/>
    </contour>
  </outline>
</glyph>
<glyph name="O" format="1">
  <advance width="363"/>
  <unicode hex="004F"/>
  <outline>
    <contour>
      <point x="307" y="734" type="curve" smooth="yes"/>
      <point x="237" y="734"/>
      <point x="168" y="676"/>
      <point x="155" y="605" type="curve"/>
      <point x="71" y="129" type="line"/>
      <point x="59" y="59"/>
      <point x="108" y="1"/>
      <point x="178" y="1" type="curve" smooth="yes"/>
      <point x="248" y="1"/>
      <point x="316" y="59"/>
      <point x="328" y="129" type="curve"/>
      <point x="412" y="605" type="line"/>
      <point x="425" y="676"/>
      <point x="377" y="734"/>
    </contour>
    <contour>
      <point x="272" y="129" type="line"/>
      <point x="265" y="90"/>
      <point x="228" y="57"/>
      <point x="188" y="57" type="curve" smooth="yes"/>
      <point x="148" y="57"/>
      <point x="121" y="90"/>
      <point x="128" y="129" type="curve"/>
      <point x="212" y="605" type="line"/>
      <point x="219" y="645"/>
      <point x="257" y="678"/>
      <point x="297" y="678" type="curve" smooth="yes"/>
      <point x="337" y="678"/>
      <point x="363" y="645"/>
      <point x="356" y="605" type="curve"/>
    </contour>
  </outline>
</glyph>
<glyph name="P" format="1">
  <advance width="266"/>
  <unicode hex="0050"/>
  <outline>
    <contour>
      <point x="372" y="606" type="line"/>
      <point x="385" y="676"/>
      <point x="338" y="732"/>
      <point x="269" y="732" type="curve" smooth="yes"/>
      <point x="199" y="732"/>
      <point x="133" y="677"/>
      <point x="120" y="607" type="curve"/>
      <point x="17" y="26" type="line"/>
      <point x="14" y="11"/>
      <point x="25" y="0"/>
      <point x="39" y="0" type="curve" smooth="yes"/>
      <point x="53" y="0"/>
      <point x="65" y="11"/>
      <point x="68" y="26" type="curve"/>
      <point x="124" y="342" type="line"/>
      <point x="209" y="342" type="line"/>
      <point x="272" y="342"/>
      <point x="332" y="392"/>
      <point x="344" y="453" type="curve"/>
    </contour>
    <contour>
      <point x="218" y="393" type="curve"/>
      <point x="133" y="393" type="line"/>
      <point x="170" y="606" type="line"/>
      <point x="178" y="648"/>
      <point x="218" y="682"/>
      <point x="260" y="682" type="curve" smooth="yes"/>
      <point x="301" y="682"/>
      <point x="329" y="648"/>
      <point x="321" y="606" type="curve"/>
      <point x="295" y="459" type="line"/>
      <point x="289" y="423"/>
      <point x="255" y="393"/>
    </contour>
  </outline>
</glyph>
<glyph name="Q" format="1">
  <advance width="395"/>
  <unicode hex="0051"/>
  <outline>
    <contour>
      <point x="360" y="56" type="curve" smooth="yes"/>
      <point x="324" y="56"/>
      <point x="325" y="89"/>
      <point x="332" y="128" type="curve"/>
      <point x="416" y="605" type="line"/>
      <point x="429" y="675"/>
      <point x="380" y="733"/>
      <point x="310" y="733" type="curve" smooth="yes"/>
      <point x="240" y="733"/>
      <point x="172" y="675"/>
      <point x="159" y="605" type="curve"/>
      <point x="75" y="128" type="line"/>
      <point x="63" y="58"/>
      <point x="111" y="0"/>
      <point x="181" y="0" type="curve" smooth="yes"/>
      <point x="217" y="0"/>
      <point x="252" y="16"/>
      <point x="281" y="40" type="curve"/>
      <point x="292" y="16"/>
      <point x="315" y="0"/>
      <point x="351" y="0" type="curve" smooth="yes"/>
      <point x="366" y="0"/>
      <point x="382" y="14"/>
      <point x="384" y="28" type="curve" smooth="yes"/>
      <point x="387" y="45"/>
      <point x="375" y="56"/>
    </contour>
    <contour>
      <point x="190" y="56" type="curve" smooth="yes"/>
      <point x="150" y="56"/>
      <point x="124" y="89"/>
      <point x="131" y="128" type="curve"/>
      <point x="215" y="605" type="line"/>
      <point x="222" y="644"/>
      <point x="260" y="677"/>
      <point x="300" y="677" type="curve" smooth="yes"/>
      <point x="340" y="677"/>
      <point x="366" y="644"/>
      <point x="359" y="605" type="curve"/>
      <point x="282" y="165" type="line"/>
      <point x="270" y="170"/>
      <point x="258" y="173"/>
      <point x="241" y="173" type="curve" smooth="yes"/>
      <point x="227" y="173"/>
      <point x="211" y="162"/>
      <point x="208" y="145" type="curve" smooth="yes"/>
      <point x="205" y="130"/>
      <point x="217" y="117"/>
      <point x="231" y="117" type="curve" smooth="yes"/>
      <point x="250" y="117"/>
      <point x="259" y="108"/>
      <point x="262" y="96" type="curve"/>
      <point x="248" y="74"/>
      <point x="218" y="56"/>
    </contour>
  </outline>
</glyph>
<glyph name="R" format="1">
  <advance width="277"/>
  <unicode hex="0052"/>
  <outline>
    <contour>
      <point x="344" y="446" type="line"/>
      <point x="372" y="606" type="line"/>
      <point x="385" y="676"/>
      <point x="338" y="732"/>
      <point x="269" y="732" type="curve" smooth="yes"/>
      <point x="199" y="732"/>
      <point x="133" y="677"/>
      <point x="120" y="607" type="curve"/>
      <point x="17" y="26" type="line"/>
      <point x="14" y="11"/>
      <point x="25" y="0"/>
      <point x="39" y="0" type="curve" smooth="yes"/>
      <point x="53" y="0"/>
      <point x="65" y="11"/>
      <point x="68" y="26" type="curve"/>
      <point x="124" y="342" type="line"/>
      <point x="166" y="342" type="line"/>
      <point x="154" y="116" type="line"/>
      <point x="150" y="48"/>
      <point x="173" y="-5"/>
      <point x="244" y="2" type="curve"/>
      <point x="256" y="4"/>
      <point x="270" y="17"/>
      <point x="270" y="30" type="curve" smooth="yes"/>
      <point x="270" y="44"/>
      <point x="261" y="55"/>
      <point x="246" y="52" type="curve"/>
      <point x="207" y="48"/>
      <point x="203" y="82"/>
      <point x="205" y="123" type="curve"/>
      <point x="218" y="342" type="line"/>
      <point x="275" y="344"/>
      <point x="327" y="390"/>
      <point x="342" y="446" type="curve"/>
    </contour>
    <contour>
      <point x="218" y="393" type="curve"/>
      <point x="133" y="393" type="line"/>
      <point x="170" y="606" type="line"/>
      <point x="178" y="648"/>
      <point x="218" y="682"/>
      <point x="260" y="682" type="curve" smooth="yes"/>
      <point x="301" y="682"/>
      <point x="329" y="648"/>
      <point x="321" y="606" type="curve"/>
      <point x="295" y="459" type="line"/>
      <point x="289" y="423"/>
      <point x="255" y="393"/>
    </contour>
  </outline>
</glyph>
<glyph name="S" format="1">
  <advance width="338"/>
  <unicode hex="0053"/>
  <outline>
    <contour>
      <point x="387" y="538" type="line"/>
      <point x="399" y="605" type="line"/>
      <point x="412" y="675"/>
      <point x="364" y="733"/>
      <point x="294" y="733" type="curve" smooth="yes"/>
      <point x="224" y="733"/>
      <point x="155" y="675"/>
      <point x="142" y="605" type="curve"/>
      <point x="114" y="448" type="line"/>
      <point x="112" y="422"/>
      <point x="118" y="397"/>
      <point x="128" y="379" type="curve" smooth="yes"/>
      <point x="130" y="373"/>
      <point x="134" y="367"/>
      <point x="139" y="362" type="curve"/>
      <point x="139" y="361" type="line"/>
      <point x="151" y="348"/>
      <point x="168" y="341"/>
      <point x="187" y="339" type="curve" smooth="yes"/>
      <point x="191" y="338"/>
      <point x="193" y="338"/>
      <point x="197" y="338" type="curve"/>
      <point x="258" y="338" type="line"/>
      <point x="273" y="335"/>
      <point x="285" y="322"/>
      <point x="290" y="305" type="curve"/>
      <point x="259" y="128" type="line"/>
      <point x="252" y="89"/>
      <point x="214" y="56"/>
      <point x="174" y="56" type="curve" smooth="yes"/>
      <point x="134" y="56"/>
      <point x="108" y="89"/>
      <point x="115" y="128" type="curve"/>
      <point x="123" y="173" type="line"/>
      <point x="66" y="173" type="line"/>
      <point x="58" y="128" type="line"/>
      <point x="46" y="58"/>
      <point x="95" y="0"/>
      <point x="165" y="0" type="curve" smooth="yes"/>
      <point x="235" y="0"/>
      <point x="303" y="58"/>
      <point x="315" y="128" type="curve"/>
      <point x="341" y="276" type="line"/>
      <point x="346" y="306"/>
      <point x="342" y="332"/>
      <point x="331" y="353" type="curve"/>
      <point x="326" y="359"/>
      <point x="322" y="366"/>
      <point x="317" y="371" type="curve" smooth="yes"/>
      <point x="306" y="384"/>
      <point x="289" y="392"/>
      <point x="270" y="394" type="curve"/>
      <point x="201" y="394" type="line"/>
      <point x="184" y="396"/>
      <point x="173" y="409"/>
      <point x="168" y="426" type="curve"/>
      <point x="199" y="605" type="line"/>
      <point x="206" y="644"/>
      <point x="244" y="677"/>
      <point x="284" y="677" type="curve" smooth="yes"/>
      <point x="324" y="677"/>
      <point x="350" y="644"/>
      <point x="343" y="605" type="curve"/>
      <point x="331" y="538" type="line"/>
    </contour>
  </outline>
</glyph>
<glyph name="T" format="1">
  <advance width="309"/>
  <unicode hex="0054"/>
  <outline>
    <contour>
      <point x="412" y="732" type="curve"/>
      <point x="246" y="732" type="line"/>
      <point x="181" y="732"/>
      <point x="120" y="681"/>
      <point x="108" y="616" type="curve" smooth="yes"/>
      <point x="106" y="602"/>
      <point x="116" y="591"/>
      <point x="130" y="591" type="curve" smooth="yes"/>
      <point x="145" y="591"/>
      <point x="158" y="602"/>
      <point x="160" y="616" type="curve" smooth="yes"/>
      <point x="167" y="653"/>
      <point x="201" y="682"/>
      <point x="237" y="682" type="curve"/>
      <point x="255" y="682" type="line"/>
      <point x="139" y="26" type="line"/>
      <point x="137" y="12"/>
      <point x="146" y="1"/>
      <point x="159" y="1" type="curve" smooth="yes"/>
      <point x="174" y="1"/>
      <point x="187" y="12"/>
      <point x="189" y="26" type="curve"/>
      <point x="305" y="682" type="line"/>
      <point x="403" y="682" type="line"/>
      <point x="417" y="682"/>
      <point x="431" y="693"/>
      <point x="433" y="707" type="curve" smooth="yes"/>
      <point x="436" y="721"/>
      <point x="426" y="732"/>
    </contour>
  </outline>
</glyph>
<glyph name="U" format="1">
  <advance width="367"/>
  <unicode hex="0055"/>
  <outline>
    <contour>
      <point x="411" y="732" type="curve" smooth="yes"/>
      <point x="395" y="732"/>
      <point x="381" y="720"/>
      <point x="379" y="704" type="curve"/>
      <point x="277" y="128" type="line"/>
      <point x="270" y="90"/>
      <point x="232" y="57"/>
      <point x="193" y="57" type="curve" smooth="yes"/>
      <point x="153" y="57"/>
      <point x="126" y="90"/>
      <point x="133" y="128" type="curve"/>
      <point x="235" y="704" type="line"/>
      <point x="237" y="720"/>
      <point x="228" y="732"/>
      <point x="212" y="732" type="curve" smooth="yes"/>
      <point x="196" y="732"/>
      <point x="181" y="720"/>
      <point x="179" y="704" type="curve"/>
      <point x="77" y="128" type="line"/>
      <point x="65" y="57"/>
      <point x="111" y="1"/>
      <point x="183" y="1" type="curve" smooth="yes"/>
      <point x="254" y="1"/>
      <point x="320" y="57"/>
      <point x="332" y="128" type="curve"/>
      <point x="434" y="704" type="line"/>
      <point x="436" y="720"/>
      <point x="427" y="732"/>
    </contour>
  </outline>
</glyph>
<glyph name="V" format="1">
  <advance width="297"/>
  <unicode hex="0056"/>
  <outline>
    <contour>
      <point x="348" y="730" type="curve" smooth="yes"/>
      <point x="335" y="734"/>
      <point x="320" y="726"/>
      <point x="313" y="712" type="curve" smooth="yes"/>
      <point x="307" y="699"/>
      <point x="312" y="685"/>
      <point x="325" y="681" type="curve" smooth="yes"/>
      <point x="344" y="674"/>
      <point x="350" y="660"/>
      <point x="347" y="643" type="curve" smooth="yes"/>
      <point x="345" y="632"/>
      <point x="338" y="616"/>
      <point x="330" y="599" type="curve"/>
      <point x="277" y="445"/>
      <point x="222" y="293"/>
      <point x="169" y="138" type="curve"/>
      <point x="175" y="599" type="line"/>
      <point x="173" y="615"/>
      <point x="172" y="631"/>
      <point x="174" y="643" type="curve" smooth="yes"/>
      <point x="177" y="660"/>
      <point x="188" y="675"/>
      <point x="211" y="681" type="curve" smooth="yes"/>
      <point x="224" y="685"/>
      <point x="235" y="700"/>
      <point x="233" y="713" type="curve" smooth="yes"/>
      <point x="232" y="726"/>
      <point x="220" y="733"/>
      <point x="205" y="730" type="curve"/>
      <point x="157" y="717"/>
      <point x="132" y="683"/>
      <point x="125" y="641" type="curve" smooth="yes"/>
      <point x="121" y="622"/>
      <point x="121" y="602"/>
      <point x="123" y="583" type="curve"/>
      <point x="123" y="584" type="line"/>
      <point x="121" y="18" type="line"/>
      <point x="123" y="6"/>
      <point x="135" y="-1"/>
      <point x="150" y="2" type="curve"/>
      <point x="159" y="3"/>
      <point x="168" y="9"/>
      <point x="172" y="18" type="curve"/>
      <point x="375" y="583" type="line"/>
      <point x="375" y="582" type="line"/>
      <point x="385" y="602"/>
      <point x="392" y="623"/>
      <point x="396" y="642" type="curve" smooth="yes"/>
      <point x="403" y="682"/>
      <point x="392" y="715"/>
    </contour>
  </outline>
</glyph>
<glyph name="W" format="1">
  <advance width="542"/>
  <unicode hex="0057"/>
  <outline>
    <contour>
      <point x="584" y="732" type="curve" smooth="yes"/>
      <point x="570" y="736"/>
      <point x="554" y="728"/>
      <point x="548" y="714" type="curve" smooth="yes"/>
      <point x="542" y="702"/>
      <point x="550" y="687"/>
      <point x="566" y="680" type="curve"/>
      <point x="583" y="675"/>
      <point x="586" y="661"/>
      <point x="583" y="644" type="curve" smooth="yes"/>
      <point x="581" y="631"/>
      <point x="574" y="615"/>
      <point x="565" y="598" type="curve"/>
      <point x="397" y="123" type="line"/>
      <point x="364" y="349" type="line"/>
      <point x="361" y="367"/>
      <point x="360" y="383"/>
      <point x="362" y="395" type="curve" smooth="yes"/>
      <point x="365" y="414"/>
      <point x="377" y="428"/>
      <point x="400" y="435" type="curve" smooth="yes"/>
      <point x="415" y="439"/>
      <point x="425" y="453"/>
      <point x="424" y="466" type="curve" smooth="yes"/>
      <point x="422" y="481"/>
      <point x="408" y="487"/>
      <point x="395" y="484" type="curve" smooth="yes"/>
      <point x="378" y="480"/>
      <point x="362" y="471"/>
      <point x="350" y="461" type="curve"/>
      <point x="342" y="470"/>
      <point x="327" y="480"/>
      <point x="313" y="485" type="curve"/>
      <point x="300" y="488"/>
      <point x="285" y="482"/>
      <point x="279" y="468" type="curve"/>
      <point x="280" y="469" type="line"/>
      <point x="272" y="456"/>
      <point x="278" y="441"/>
      <point x="290" y="436" type="curve" smooth="yes"/>
      <point x="308" y="429"/>
      <point x="316" y="413"/>
      <point x="313" y="396" type="curve" smooth="yes"/>
      <point x="311" y="385"/>
      <point x="304" y="367"/>
      <point x="295" y="350" type="curve"/>
      <point x="177" y="127" type="line"/>
      <point x="181" y="601" type="line"/>
      <point x="179" y="617"/>
      <point x="178" y="634"/>
      <point x="180" y="646" type="curve" smooth="yes"/>
      <point x="184" y="664"/>
      <point x="194" y="678"/>
      <point x="218" y="685" type="curve" smooth="yes"/>
      <point x="232" y="689"/>
      <point x="243" y="704"/>
      <point x="241" y="716" type="curve" smooth="yes"/>
      <point x="239" y="730"/>
      <point x="226" y="737"/>
      <point x="212" y="734" type="curve"/>
      <point x="162" y="720"/>
      <point x="137" y="685"/>
      <point x="130" y="642" type="curve" smooth="yes"/>
      <point x="126" y="623"/>
      <point x="126" y="604"/>
      <point x="129" y="585" type="curve"/>
      <point x="129" y="586" type="line"/>
      <point x="128" y="18" type="line"/>
      <point x="129" y="5"/>
      <point x="143" y="-1"/>
      <point x="158" y="2" type="curve" smooth="yes"/>
      <point x="164" y="3"/>
      <point x="175" y="13"/>
      <point x="180" y="20" type="curve"/>
      <point x="317" y="288" type="line"/>
      <point x="355" y="18" type="line"/>
      <point x="358" y="8"/>
      <point x="370" y="-2"/>
      <point x="384" y="0" type="curve" smooth="yes"/>
      <point x="393" y="1"/>
      <point x="400" y="9"/>
      <point x="407" y="19" type="curve"/>
      <point x="612" y="583" type="line"/>
      <point x="612" y="582" type="line"/>
      <point x="622" y="602"/>
      <point x="629" y="622"/>
      <point x="633" y="641" type="curve" smooth="yes"/>
      <point x="640" y="683"/>
      <point x="628" y="717"/>
    </contour>
  </outline>
</glyph>
<glyph name="X" format="1">
  <advance width="412"/>
  <unicode hex="0058"/>
  <outline>
    <contour>
      <point x="384" y="39" type="line"/>
      <point x="352" y="136"/>
      <point x="323" y="235"/>
      <point x="291" y="332" type="curve"/>
      <point x="450" y="569" type="line"/>
      <point x="450" y="568" type="line"/>
      <point x="475" y="598"/>
      <point x="493" y="627"/>
      <point x="498" y="655" type="curve" smooth="yes"/>
      <point x="503" y="683"/>
      <point x="495" y="709"/>
      <point x="468" y="729" type="curve" smooth="yes"/>
      <point x="458" y="737"/>
      <point x="441" y="733"/>
      <point x="432" y="722" type="curve" smooth="yes"/>
      <point x="422" y="710"/>
      <point x="422" y="694"/>
      <point x="432" y="686" type="curve" smooth="yes"/>
      <point x="446" y="676"/>
      <point x="449" y="666"/>
      <point x="447" y="654" type="curve" smooth="yes"/>
      <point x="444" y="638"/>
      <point x="431" y="620"/>
      <point x="414" y="601" type="curve"/>
      <point x="272" y="388" type="line"/>
      <point x="204" y="601" type="line"/>
      <point x="195" y="620"/>
      <point x="189" y="638"/>
      <point x="192" y="654" type="curve" smooth="yes"/>
      <point x="194" y="666"/>
      <point x="200" y="676"/>
      <point x="216" y="686" type="curve" smooth="yes"/>
      <point x="230" y="694"/>
      <point x="236" y="710"/>
      <point x="230" y="722" type="curve" smooth="yes"/>
      <point x="225" y="733"/>
      <point x="208" y="737"/>
      <point x="196" y="729" type="curve" smooth="yes"/>
      <point x="163" y="709"/>
      <point x="145" y="683"/>
      <point x="140" y="655" type="curve" smooth="yes"/>
      <point x="135" y="627"/>
      <point x="143" y="598"/>
      <point x="158" y="568" type="curve"/>
      <point x="158" y="569" type="line"/>
      <point x="182" y="491"/>
      <point x="210" y="410"/>
      <point x="235" y="332" type="curve"/>
      <point x="36" y="39" type="line"/>
      <point x="37" y="40" type="line"/>
      <point x="27" y="28"/>
      <point x="27" y="12"/>
      <point x="37" y="4" type="curve" smooth="yes"/>
      <point x="48" y="-4"/>
      <point x="64" y="-2"/>
      <point x="73" y="9" type="curve"/>
      <point x="132" y="97"/>
      <point x="193" y="186"/>
      <point x="252" y="275" type="curve"/>
      <point x="338" y="9" type="line"/>
      <point x="342" y="-2"/>
      <point x="358" y="-4"/>
      <point x="371" y="4" type="curve" smooth="yes"/>
      <point x="385" y="12"/>
      <point x="390" y="28"/>
      <point x="385" y="40" type="curve"/>
    </contour>
  </outline>
</glyph>
<glyph name="Y" format="1">
  <advance width="326"/>
  <unicode hex="0059"/>
  <outline>
    <contour>
      <point x="388" y="734" type="curve" smooth="yes"/>
      <point x="372" y="734"/>
      <point x="357" y="720"/>
      <point x="355" y="706" type="curve"/>
      <point x="313" y="467" type="line"/>
      <point x="306" y="427"/>
      <point x="268" y="395"/>
      <point x="228" y="395" type="curve" smooth="yes"/>
      <point x="188" y="395"/>
      <point x="162" y="427"/>
      <point x="169" y="467" type="curve"/>
      <point x="211" y="706" type="line"/>
      <point x="214" y="722"/>
      <point x="204" y="734"/>
      <point x="188" y="734" type="curve" smooth="yes"/>
      <point x="173" y="734"/>
      <point x="157" y="722"/>
      <point x="154" y="706" type="curve"/>
      <point x="112" y="467" type="line"/>
      <point x="101" y="405"/>
      <point x="135" y="355"/>
      <point x="191" y="342" type="curve"/>
      <point x="135" y="28" type="line"/>
      <point x="133" y="14"/>
      <point x="144" y="0"/>
      <point x="159" y="0" type="curve" smooth="yes"/>
      <point x="173" y="0"/>
      <point x="189" y="14"/>
      <point x="191" y="28" type="curve"/>
      <point x="247" y="342" type="line"/>
      <point x="307" y="355"/>
      <point x="358" y="405"/>
      <point x="369" y="467" type="curve"/>
      <point x="411" y="706" type="line"/>
      <point x="413" y="720"/>
      <point x="403" y="734"/>
    </contour>
  </outline>
</glyph>
<glyph name="Z" format="1">
  <advance width="278"/>
  <unicode hex="005A"/>
  <outline>
    <contour>
      <point x="262" y="121" type="curve" smooth="yes"/>
      <point x="247" y="121"/>
      <point x="234" y="109"/>
      <point x="231" y="94" type="curve" smooth="yes"/>
      <point x="225" y="60"/>
      <point x="214" y="51"/>
      <point x="180" y="51" type="curve"/>
      <point x="74" y="51" type="line"/>
      <point x="179" y="270"/>
      <point x="281" y="480"/>
      <point x="385" y="699" type="curve"/>
      <point x="384" y="698" type="line"/>
      <point x="386" y="702"/>
      <point x="387" y="704"/>
      <point x="387" y="707" type="curve" smooth="yes"/>
      <point x="390" y="721"/>
      <point x="381" y="732"/>
      <point x="367" y="732" type="curve"/>
      <point x="233" y="732" type="line"/>
      <point x="168" y="732"/>
      <point x="134" y="704"/>
      <point x="122" y="638" type="curve" smooth="yes"/>
      <point x="120" y="624"/>
      <point x="129" y="612"/>
      <point x="143" y="612" type="curve" smooth="yes"/>
      <point x="157" y="612"/>
      <point x="171" y="624"/>
      <point x="173" y="638" type="curve" smooth="yes"/>
      <point x="179" y="672"/>
      <point x="190" y="681"/>
      <point x="224" y="681" type="curve"/>
      <point x="325" y="681" type="line"/>
      <point x="18" y="40" type="line"/>
      <point x="16" y="36"/>
      <point x="14" y="32"/>
      <point x="13" y="26" type="curve" smooth="yes"/>
      <point x="11" y="17"/>
      <point x="14" y="12"/>
      <point x="17" y="7" type="curve"/>
      <point x="20" y="4"/>
      <point x="25" y="1"/>
      <point x="31" y="1" type="curve"/>
      <point x="35" y="0" type="line"/>
      <point x="172" y="0" type="line"/>
      <point x="238" y="0"/>
      <point x="270" y="28"/>
      <point x="282" y="94" type="curve" smooth="yes"/>
      <point x="285" y="109"/>
      <point x="275" y="121"/>
    </contour>
  </outline>
</glyph>
<glyph name="bracketleft" format="1">
  <advance width="132"/>
  <unicode hex="005B"/>
  <outline>
    <contour>
      <point x="14" y="0" type="line"/>
      <point x="109" y="0" type="line"/>
      <point x="124" y="0"/>
      <point x="135" y="11"/>
      <point x="138" y="25" type="curve" smooth="yes"/>
      <point x="141" y="40"/>
      <point x="133" y="52"/>
      <point x="118" y="52" type="curve"/>
      <point x="73" y="52" type="line"/>
      <point x="183" y="676" type="line"/>
      <point x="228" y="676" type="line"/>
      <point x="243" y="676"/>
      <point x="255" y="688"/>
      <point x="257" y="701" type="curve" smooth="yes"/>
      <point x="260" y="716"/>
      <point x="252" y="728"/>
      <point x="237" y="728" type="curve"/>
      <point x="142" y="728" type="line"/>
    </contour>
  </outline>
</glyph>
<glyph name="backslash" format="1">
  <advance width="318"/>
  <unicode hex="005C"/>
  <outline>
    <contour>
      <point x="145" y="727" type="line"/>
      <point x="159" y="733"/>
      <point x="174" y="726"/>
      <point x="177" y="710" type="curve"/>
      <point x="196" y="609" type="line"/>
      <point x="287" y="57" type="line"/>
      <point x="292" y="24"/>
      <point x="300" y="-10"/>
      <point x="306" y="-43" type="curve"/>
      <point x="308" y="-56"/>
      <point x="298" y="-72"/>
      <point x="282" y="-78" type="curve" smooth="yes"/>
      <point x="268" y="-84"/>
      <point x="253" y="-77"/>
      <point x="250" y="-61" type="curve"/>
      <point x="232" y="40" type="line"/>
      <point x="141" y="591" type="line"/>
      <point x="135" y="624"/>
      <point x="128" y="659"/>
      <point x="122" y="692" type="curve"/>
      <point x="120" y="705"/>
      <point x="130" y="721"/>
      <point x="144" y="726" type="curve"/>
    </contour>
  </outline>
</glyph>
<glyph name="bracketright" format="1">
  <advance width="252"/>
  <unicode hex="005D"/>
  <outline>
    <contour>
      <point x="82" y="0" type="line"/>
      <point x="66" y="0"/>
      <point x="55" y="13"/>
      <point x="57" y="28" type="curve" smooth="yes"/>
      <point x="60" y="43"/>
      <point x="76" y="57"/>
      <point x="92" y="57" type="curve"/>
      <point x="133" y="57" type="line"/>
      <point x="241" y="670" type="line"/>
      <point x="200" y="670" type="line"/>
      <point x="184" y="670"/>
      <point x="173" y="683"/>
      <point x="176" y="698" type="curve" smooth="yes"/>
      <point x="178" y="713"/>
      <point x="194" y="726"/>
      <point x="210" y="726" type="curve"/>
      <point x="307" y="726" type="line"/>
      <point x="179" y="0" type="line"/>
    </contour>
  </outline>
</glyph>
<glyph name="asciicircum" format="1">
  <advance width="453"/>
  <unicode hex="005E"/>
  <outline>
    <contour>
      <point x="493" y="550" type="curve" smooth="yes"/>
      <point x="495" y="558"/>
      <point x="492" y="565"/>
      <point x="489" y="569" type="curve"/>
      <point x="490" y="568" type="line"/>
      <point x="361" y="767" type="line"/>
      <point x="169" y="570" type="line"/>
      <point x="162" y="567"/>
      <point x="158" y="557"/>
      <point x="156" y="549" type="curve" smooth="yes"/>
      <point x="155" y="541"/>
      <point x="157" y="535"/>
      <point x="160" y="530" type="curve" smooth="yes"/>
      <point x="165" y="522"/>
      <point x="171" y="519"/>
      <point x="180" y="519" type="curve" smooth="yes"/>
      <point x="187" y="519"/>
      <point x="195" y="522"/>
      <point x="201" y="527" type="curve"/>
      <point x="346" y="679" type="line"/>
      <point x="440" y="528" type="line"/>
      <point x="446" y="522"/>
      <point x="452" y="519"/>
      <point x="458" y="519" type="curve" smooth="yes"/>
      <point x="466" y="519"/>
      <point x="477" y="523"/>
      <point x="484" y="530" type="curve" smooth="yes"/>
      <point x="489" y="536"/>
      <point x="492" y="543"/>
    </contour>
  </outline>
</glyph>
<glyph name="underscore" format="1">
  <advance width="716"/>
  <unicode hex="005F"/>
  <outline>
    <contour>
      <point x="687" y="-10" type="curve" smooth="yes"/>
      <point x="689" y="5"/>
      <point x="680" y="16"/>
      <point x="666" y="16" type="curve"/>
      <point x="45" y="16" type="line"/>
      <point x="30" y="16"/>
      <point x="17" y="5"/>
      <point x="15" y="-10" type="curve" smooth="yes"/>
      <point x="12" y="-23"/>
      <point x="21" y="-35"/>
      <point x="36" y="-35" type="curve"/>
      <point x="657" y="-35" type="line"/>
      <point x="671" y="-35"/>
      <point x="684" y="-23"/>
    </contour>
  </outline>
</glyph>
<glyph name="grave" format="1">
  <advance width="169"/>
  <unicode hex="0060"/>
  <outline>
    <contour>
      <point x="113" y="634" type="curve" smooth="yes"/>
      <point x="122" y="646"/>
      <point x="137" y="651"/>
      <point x="148" y="644" type="curve"/>
      <point x="181" y="624" type="line"/>
      <point x="222" y="600" type="line"/>
      <point x="255" y="581" type="line"/>
      <point x="266" y="574"/>
      <point x="268" y="559"/>
      <point x="260" y="548" type="curve" smooth="yes"/>
      <point x="251" y="537"/>
      <point x="235" y="531"/>
      <point x="225" y="538" type="curve"/>
      <point x="193" y="557" type="line"/>
      <point x="151" y="582" type="line"/>
      <point x="118" y="601" type="line"/>
      <point x="108" y="608"/>
      <point x="105" y="622"/>
    </contour>
  </outline>
</glyph>
<glyph name="a" format="1">
  <advance width="352"/>
  <unicode hex="0061"/>
  <outline>
    <contour>
      <point x="331" y="48" type="curve" smooth="yes"/>
      <point x="292" y="48"/>
      <point x="265" y="79"/>
      <point x="272" y="118" type="curve"/>
      <point x="322" y="399" type="line"/>
      <point x="323" y="403"/>
      <point x="323" y="404"/>
      <point x="322" y="407" type="curve"/>
      <point x="331" y="471"/>
      <point x="287" y="525"/>
      <point x="224" y="525" type="curve" smooth="yes"/>
      <point x="158" y="525"/>
      <point x="96" y="471"/>
      <point x="84" y="406" type="curve"/>
      <point x="34" y="124" type="line"/>
      <point x="23" y="57"/>
      <point x="66" y="5"/>
      <point x="132" y="5" type="curve" smooth="yes"/>
      <point x="171" y="5"/>
      <point x="207" y="21"/>
      <point x="233" y="50" type="curve"/>
      <point x="250" y="19"/>
      <point x="280" y="-1"/>
      <point x="322" y="-1" type="curve" smooth="yes"/>
      <point x="335" y="-1"/>
      <point x="347" y="10"/>
      <point x="350" y="23" type="curve" smooth="yes"/>
      <point x="352" y="37"/>
      <point x="344" y="48"/>
    </contour>
    <contour>
      <point x="223" y="124" type="line"/>
      <point x="216" y="85"/>
      <point x="179" y="54"/>
      <point x="141" y="54" type="curve" smooth="yes"/>
      <point x="102" y="54"/>
      <point x="75" y="85"/>
      <point x="82" y="124" type="curve"/>
      <point x="132" y="406" type="line"/>
      <point x="139" y="445"/>
      <point x="176" y="476"/>
      <point x="215" y="476" type="curve" smooth="yes"/>
      <point x="253" y="476"/>
      <point x="280" y="445"/>
      <point x="273" y="406" type="curve"/>
    </contour>
  </outline>
</glyph>
<glyph name="b" format="1">
  <advance width="264"/>
  <unicode hex="0062"/>
  <outline>
    <contour>
      <point x="229" y="534" type="curve" smooth="yes"/>
      <point x="202" y="534"/>
      <point x="176" y="525"/>
      <point x="152" y="509" type="curve"/>
      <point x="176" y="645" type="line"/>
      <point x="183" y="685"/>
      <point x="221" y="717"/>
      <point x="261" y="717" type="curve" smooth="yes"/>
      <point x="275" y="717"/>
      <point x="288" y="729"/>
      <point x="290" y="742" type="curve" smooth="yes"/>
      <point x="293" y="756"/>
      <point x="284" y="767"/>
      <point x="270" y="767" type="curve" smooth="yes"/>
      <point x="203" y="767"/>
      <point x="138" y="712"/>
      <point x="126" y="645" type="curve"/>
      <point x="34" y="123" type="line"/>
      <point x="22" y="56"/>
      <point x="68" y="1"/>
      <point x="135" y="1" type="curve" smooth="yes"/>
      <point x="202" y="1"/>
      <point x="266" y="56"/>
      <point x="278" y="123" type="curve"/>
      <point x="329" y="412" type="line"/>
      <point x="341" y="479"/>
      <point x="296" y="534"/>
    </contour>
    <contour>
      <point x="228" y="123" type="line"/>
      <point x="221" y="83"/>
      <point x="183" y="50"/>
      <point x="143" y="50" type="curve" smooth="yes"/>
      <point x="103" y="50"/>
      <point x="77" y="83"/>
      <point x="84" y="123" type="curve"/>
      <point x="135" y="412" type="line"/>
      <point x="142" y="451"/>
      <point x="180" y="484"/>
      <point x="220" y="484" type="curve" smooth="yes"/>
      <point x="260" y="484"/>
      <point x="286" y="451"/>
      <point x="279" y="412" type="curve"/>
    </contour>
  </outline>
</glyph>
<glyph name="c" format="1">
  <advance width="333"/>
  <unicode hex="0063"/>
  <outline>
    <contour>
      <point x="358" y="376" type="line"/>
      <point x="363" y="407" type="line"/>
      <point x="375" y="475"/>
      <point x="331" y="530"/>
      <point x="263" y="530" type="curve" smooth="yes"/>
      <point x="194" y="530"/>
      <point x="130" y="475"/>
      <point x="118" y="407" type="curve"/>
      <point x="68" y="122" type="line"/>
      <point x="56" y="56"/>
      <point x="101" y="0"/>
      <point x="170" y="0" type="curve" smooth="yes"/>
      <point x="238" y="0"/>
      <point x="301" y="56"/>
      <point x="313" y="122" type="curve"/>
      <point x="319" y="154" type="line"/>
      <point x="265" y="154" type="line"/>
      <point x="259" y="122" type="line"/>
      <point x="252" y="85"/>
      <point x="216" y="54"/>
      <point x="179" y="54" type="curve" smooth="yes"/>
      <point x="141" y="54"/>
      <point x="115" y="85"/>
      <point x="122" y="122" type="curve"/>
      <point x="172" y="407" type="line"/>
      <point x="179" y="444"/>
      <point x="215" y="475"/>
      <point x="253" y="475" type="curve" smooth="yes"/>
      <point x="290" y="475"/>
      <point x="316" y="444"/>
      <point x="309" y="407" type="curve"/>
      <point x="304" y="376" type="line"/>
    </contour>
  </outline>
</glyph>
<glyph name="d" format="1">
  <advance width="263"/>
  <unicode hex="0064"/>
  <outline>
    <contour>
      <point x="259" y="766" type="curve" smooth="yes"/>
      <point x="246" y="766"/>
      <point x="233" y="755"/>
      <point x="230" y="741" type="curve" smooth="yes"/>
      <point x="228" y="728"/>
      <point x="237" y="716"/>
      <point x="250" y="716" type="curve" smooth="yes"/>
      <point x="290" y="716"/>
      <point x="316" y="684"/>
      <point x="309" y="644" type="curve"/>
      <point x="285" y="508" type="line"/>
      <point x="268" y="523"/>
      <point x="245" y="532"/>
      <point x="217" y="532" type="curve" smooth="yes"/>
      <point x="150" y="532"/>
      <point x="87" y="477"/>
      <point x="75" y="410" type="curve"/>
      <point x="24" y="121" type="line"/>
      <point x="12" y="54"/>
      <point x="56" y="-1"/>
      <point x="123" y="-1" type="curve" smooth="yes"/>
      <point x="191" y="-1"/>
      <point x="255" y="54"/>
      <point x="267" y="121" type="curve"/>
      <point x="359" y="644" type="line"/>
      <point x="371" y="711"/>
      <point x="327" y="766"/>
    </contour>
    <contour>
      <point x="217" y="121" type="line"/>
      <point x="210" y="81"/>
      <point x="172" y="48"/>
      <point x="132" y="48" type="curve" smooth="yes"/>
      <point x="92" y="48"/>
      <point x="66" y="81"/>
      <point x="73" y="121" type="curve"/>
      <point x="124" y="410" type="line"/>
      <point x="131" y="450"/>
      <point x="169" y="483"/>
      <point x="209" y="483" type="curve" smooth="yes"/>
      <point x="249" y="483"/>
      <point x="275" y="450"/>
      <point x="268" y="410" type="curve"/>
    </contour>
  </outline>
</glyph>
<glyph name="e" format="1">
  <advance width="265"/>
  <unicode hex="0065"/>
  <outline>
    <contour>
      <point x="199" y="230" type="line"/>
      <point x="219" y="230"/>
      <point x="241" y="240"/>
      <point x="259" y="253" type="curve" smooth="yes"/>
      <point x="284" y="273"/>
      <point x="306" y="307"/>
      <point x="312" y="341" type="curve"/>
      <point x="323" y="407" type="line"/>
      <point x="335" y="473"/>
      <point x="291" y="527"/>
      <point x="224" y="527" type="curve" smooth="yes"/>
      <point x="158" y="527"/>
      <point x="95" y="473"/>
      <point x="83" y="407" type="curve"/>
      <point x="33" y="122" type="line"/>
      <point x="21" y="55"/>
      <point x="66" y="1"/>
      <point x="132" y="1" type="curve" smooth="yes"/>
      <point x="199" y="1"/>
      <point x="261" y="55"/>
      <point x="273" y="122" type="curve"/>
      <point x="279" y="154" type="line"/>
      <point x="230" y="154" type="line"/>
      <point x="224" y="122" type="line"/>
      <point x="217" y="82"/>
      <point x="179" y="50"/>
      <point x="140" y="50" type="curve" smooth="yes"/>
      <point x="101" y="50"/>
      <point x="75" y="82"/>
      <point x="82" y="122" type="curve"/>
      <point x="101" y="230" type="line"/>
    </contour>
    <contour>
      <point x="132" y="407" type="line"/>
      <point x="139" y="446"/>
      <point x="177" y="478"/>
      <point x="216" y="478" type="curve" smooth="yes"/>
      <point x="255" y="478"/>
      <point x="281" y="446"/>
      <point x="274" y="407" type="curve"/>
      <point x="258" y="314" type="line"/>
      <point x="247" y="295"/>
      <point x="226" y="280"/>
      <point x="208" y="280" type="curve"/>
      <point x="110" y="280" type="line"/>
    </contour>
  </outline>
</glyph>
<glyph name="f" format="1">
  <advance width="294"/>
  <unicode hex="0066"/>
  <outline>
    <contour>
      <point x="279" y="642" type="line"/>
      <point x="285" y="679"/>
      <point x="321" y="710"/>
      <point x="359" y="710" type="curve" smooth="yes"/>
      <point x="374" y="710"/>
      <point x="388" y="722"/>
      <point x="390" y="737" type="curve" smooth="yes"/>
      <point x="393" y="752"/>
      <point x="383" y="764"/>
      <point x="368" y="764" type="curve" smooth="yes"/>
      <point x="300" y="764"/>
      <point x="235" y="708"/>
      <point x="224" y="642" type="curve"/>
      <point x="211" y="571" type="line"/>
      <point x="155" y="571" type="line"/>
      <point x="139" y="571"/>
      <point x="126" y="560"/>
      <point x="123" y="544" type="curve" smooth="yes"/>
      <point x="121" y="530"/>
      <point x="129" y="516"/>
      <point x="145" y="516" type="curve"/>
      <point x="201" y="516" type="line"/>
      <point x="115" y="28" type="line"/>
      <point x="113" y="13"/>
      <point x="122" y="1"/>
      <point x="138" y="1" type="curve" smooth="yes"/>
      <point x="152" y="1"/>
      <point x="168" y="13"/>
      <point x="170" y="28" type="curve"/>
      <point x="256" y="516" type="line"/>
      <point x="277" y="514"/>
      <point x="292" y="506"/>
      <point x="288" y="483" type="curve" smooth="yes"/>
      <point x="285" y="467"/>
      <point x="295" y="456"/>
      <point x="310" y="456" type="curve" smooth="yes"/>
      <point x="326" y="456"/>
      <point x="340" y="467"/>
      <point x="343" y="483" type="curve" smooth="yes"/>
      <point x="353" y="540"/>
      <point x="317" y="566"/>
      <point x="266" y="570" type="curve"/>
    </contour>
  </outline>
</glyph>
<glyph name="g" format="1">
  <advance width="259"/>
  <unicode hex="0067"/>
  <outline>
    <contour>
      <point x="214" y="527" type="curve" smooth="yes"/>
      <point x="148" y="527"/>
      <point x="86" y="472"/>
      <point x="74" y="406" type="curve"/>
      <point x="24" y="121" type="line"/>
      <point x="12" y="55"/>
      <point x="56" y="1"/>
      <point x="122" y="1" type="curve" smooth="yes"/>
      <point x="149" y="1"/>
      <point x="175" y="10"/>
      <point x="198" y="23" type="curve"/>
      <point x="174" y="-112" type="line"/>
      <point x="167" y="-151"/>
      <point x="128" y="-183"/>
      <point x="89" y="-183" type="curve" smooth="yes"/>
      <point x="76" y="-183"/>
      <point x="63" y="-194"/>
      <point x="61" y="-207" type="curve" smooth="yes"/>
      <point x="59" y="-221"/>
      <point x="68" y="-232"/>
      <point x="81" y="-232" type="curve" smooth="yes"/>
      <point x="148" y="-232"/>
      <point x="210" y="-178"/>
      <point x="222" y="-112" type="curve"/>
      <point x="313" y="406" type="line"/>
      <point x="325" y="472"/>
      <point x="281" y="527"/>
    </contour>
    <contour>
      <point x="215" y="121" type="line"/>
      <point x="208" y="82"/>
      <point x="169" y="50"/>
      <point x="130" y="50" type="curve" smooth="yes"/>
      <point x="91" y="50"/>
      <point x="65" y="82"/>
      <point x="72" y="121" type="curve"/>
      <point x="122" y="406" type="line"/>
      <point x="129" y="446"/>
      <point x="167" y="478"/>
      <point x="206" y="478" type="curve" smooth="yes"/>
      <point x="245" y="478"/>
      <point x="272" y="446"/>
      <point x="265" y="406" type="curve"/>
    </contour>
  </outline>
</glyph>
<glyph name="h" format="1">
  <advance width="262"/>
  <unicode hex="0068"/>
  <outline>
    <contour>
      <point x="259" y="24" type="line"/>
      <point x="256" y="11"/>
      <point x="244" y="0"/>
      <point x="231" y="0" type="curve" smooth="yes"/>
      <point x="217" y="0"/>
      <point x="207" y="11"/>
      <point x="210" y="24" type="curve"/>
      <point x="279" y="416" type="line"/>
      <point x="286" y="455"/>
      <point x="260" y="488"/>
      <point x="220" y="488" type="curve" smooth="yes"/>
      <point x="180" y="488"/>
      <point x="142" y="455"/>
      <point x="135" y="416" type="curve"/>
      <point x="66" y="24" type="line"/>
      <point x="63" y="11"/>
      <point x="51" y="0"/>
      <point x="38" y="0" type="curve" smooth="yes"/>
      <point x="24" y="0"/>
      <point x="14" y="11"/>
      <point x="17" y="24" type="curve"/>
      <point x="127" y="647" type="line"/>
      <point x="138" y="713"/>
      <point x="202" y="768"/>
      <point x="269" y="768" type="curve" smooth="yes"/>
      <point x="283" y="768"/>
      <point x="292" y="757"/>
      <point x="290" y="743" type="curve" smooth="yes"/>
      <point x="287" y="730"/>
      <point x="274" y="719"/>
      <point x="260" y="719" type="curve" smooth="yes"/>
      <point x="220" y="719"/>
      <point x="182" y="686"/>
      <point x="176" y="647" type="curve"/>
      <point x="152" y="513" type="line"/>
      <point x="176" y="528"/>
      <point x="201" y="537"/>
      <point x="228" y="537" type="curve" smooth="yes"/>
      <point x="295" y="537"/>
      <point x="339" y="482"/>
      <point x="328" y="416" type="curve"/>
    </contour>
  </outline>
</glyph>
<glyph name="i" format="1">
  <advance width="123"/>
  <unicode hex="0069"/>
  <outline>
    <contour>
      <point x="99" y="501" type="curve" smooth="yes"/>
      <point x="93" y="501"/>
      <point x="81" y="481"/>
      <point x="81" y="477" type="curve" smooth="yes"/>
      <point x="80" y="471"/>
      <point x="83" y="448"/>
      <point x="89" y="448" type="curve" smooth="yes"/>
      <point x="138" y="448"/>
      <point x="130" y="442"/>
      <point x="122" y="395" type="curve"/>
      <point x="54" y="11" type="line"/>
      <point x="54" y="3"/>
      <point x="71" y="-1"/>
      <point x="77" y="-1" type="curve" smooth="yes"/>
      <point x="82" y="-1"/>
      <point x="102" y="4"/>
      <point x="103" y="11" type="curve"/>
      <point x="171" y="395" type="line"/>
      <point x="182" y="454"/>
      <point x="157" y="501"/>
    </contour>
    <contour>
      <point x="168" y="527" type="curve" smooth="yes"/>
      <point x="181" y="527"/>
      <point x="194" y="538"/>
      <point x="197" y="552" type="curve"/>
      <point x="199" y="564" type="line"/>
      <point x="201" y="578"/>
      <point x="192" y="589"/>
      <point x="179" y="589" type="curve" smooth="yes"/>
      <point x="165" y="589"/>
      <point x="152" y="578"/>
      <point x="150" y="564" type="curve"/>
      <point x="148" y="552" type="line"/>
      <point x="145" y="538"/>
      <point x="154" y="527"/>
    </contour>
  </outline>
</glyph>
<glyph name="j" format="1">
  <advance width="153"/>
  <unicode hex="006A"/>
  <outline>
    <contour>
      <point x="207" y="528" type="curve" smooth="yes"/>
      <point x="193" y="528"/>
      <point x="181" y="517"/>
      <point x="178" y="504" type="curve"/>
      <point x="70" y="-110" type="line"/>
      <point x="63" y="-149"/>
      <point x="25" y="-181"/>
      <point x="-13" y="-181" type="curve" smooth="yes"/>
      <point x="-26" y="-181"/>
      <point x="-39" y="-192"/>
      <point x="-42" y="-206" type="curve" smooth="yes"/>
      <point x="-44" y="-219"/>
      <point x="-35" y="-230"/>
      <point x="-22" y="-230" type="curve" smooth="yes"/>
      <point x="44" y="-230"/>
      <point x="106" y="-176"/>
      <point x="118" y="-110" type="curve"/>
      <point x="226" y="504" type="line"/>
      <point x="229" y="517"/>
      <point x="221" y="528"/>
    </contour>
    <contour>
      <point x="221" y="607" type="curve" smooth="yes"/>
      <point x="207" y="607"/>
      <point x="195" y="596"/>
      <point x="192" y="583" type="curve"/>
      <point x="190" y="570" type="line"/>
      <point x="188" y="556"/>
      <point x="196" y="545"/>
      <point x="210" y="545" type="curve" smooth="yes"/>
      <point x="224" y="545"/>
      <point x="236" y="556"/>
      <point x="238" y="570" type="curve"/>
      <point x="240" y="583" type="line"/>
      <point x="243" y="596"/>
      <point x="235" y="607"/>
    </contour>
  </outline>
</glyph>
<glyph name="k" format="1">
  <advance width="372"/>
  <unicode hex="006B"/>
  <outline>
    <contour>
      <point x="329" y="44" type="curve" smooth="yes"/>
      <point x="327" y="57"/>
      <point x="312" y="65"/>
      <point x="297" y="59" type="curve" smooth="yes"/>
      <point x="287" y="56"/>
      <point x="279" y="54"/>
      <point x="271" y="54" type="curve" smooth="yes"/>
      <point x="243" y="54"/>
      <point x="220" y="71"/>
      <point x="215" y="97" type="curve"/>
      <point x="167" y="302" type="line"/>
      <point x="171" y="304"/>
      <point x="174" y="308"/>
      <point x="178" y="313" type="curve"/>
      <point x="251" y="440" type="line"/>
      <point x="267" y="463"/>
      <point x="298" y="484"/>
      <point x="324" y="484" type="curve" smooth="yes"/>
      <point x="332" y="484"/>
      <point x="338" y="482"/>
      <point x="347" y="479" type="curve" smooth="yes"/>
      <point x="361" y="473"/>
      <point x="377" y="479"/>
      <point x="384" y="493" type="curve" smooth="yes"/>
      <point x="393" y="507"/>
      <point x="389" y="523"/>
      <point x="377" y="529" type="curve" smooth="yes"/>
      <point x="362" y="536"/>
      <point x="347" y="538"/>
      <point x="332" y="538" type="curve" smooth="yes"/>
      <point x="284" y="538"/>
      <point x="233" y="508"/>
      <point x="205" y="461" type="curve"/>
      <point x="185" y="428" type="line"/>
      <point x="223" y="641" type="line"/>
      <point x="229" y="678"/>
      <point x="266" y="709"/>
      <point x="304" y="709" type="curve" smooth="yes"/>
      <point x="320" y="709"/>
      <point x="334" y="723"/>
      <point x="336" y="737" type="curve" smooth="yes"/>
      <point x="339" y="752"/>
      <point x="329" y="764"/>
      <point x="313" y="764" type="curve" smooth="yes"/>
      <point x="244" y="764"/>
      <point x="182" y="709"/>
      <point x="170" y="641" type="curve"/>
      <point x="61" y="27" type="line"/>
      <point x="59" y="12"/>
      <point x="68" y="0"/>
      <point x="84" y="0" type="curve" smooth="yes"/>
      <point x="99" y="0"/>
      <point x="112" y="12"/>
      <point x="114" y="27" type="curve"/>
      <point x="139" y="168" type="line"/>
      <point x="150" y="123"/>
      <point x="152" y="120"/>
      <point x="161" y="77" type="curve" smooth="yes"/>
      <point x="173" y="30"/>
      <point x="215" y="0"/>
      <point x="262" y="0" type="curve" smooth="yes"/>
      <point x="277" y="0"/>
      <point x="293" y="2"/>
      <point x="309" y="9" type="curve" smooth="yes"/>
      <point x="323" y="14"/>
      <point x="333" y="31"/>
    </contour>
  </outline>
</glyph>
<glyph name="l" format="1">
  <advance width="155"/>
  <unicode hex="006C"/>
  <outline>
    <contour>
      <point x="270" y="766" type="curve" smooth="yes"/>
      <point x="202" y="766"/>
      <point x="138" y="711"/>
      <point x="126" y="644" type="curve"/>
      <point x="17" y="24" type="line"/>
      <point x="14" y="11"/>
      <point x="24" y="0"/>
      <point x="37" y="0" type="curve" smooth="yes"/>
      <point x="51" y="0"/>
      <point x="63" y="11"/>
      <point x="66" y="24" type="curve"/>
      <point x="175" y="644" type="line"/>
      <point x="182" y="684"/>
      <point x="221" y="716"/>
      <point x="261" y="716" type="curve" smooth="yes"/>
      <point x="274" y="716"/>
      <point x="287" y="728"/>
      <point x="289" y="741" type="curve" smooth="yes"/>
      <point x="292" y="755"/>
      <point x="283" y="766"/>
    </contour>
  </outline>
</glyph>
<glyph name="m" format="1">
  <advance width="533"/>
  <unicode hex="006D"/>
  <outline>
    <contour>
      <point x="482" y="526" type="curve" smooth="yes"/>
      <point x="442" y="526"/>
      <point x="404" y="507"/>
      <point x="378" y="478" type="curve"/>
      <point x="360" y="507"/>
      <point x="328" y="526"/>
      <point x="289" y="526" type="curve" smooth="yes"/>
      <point x="252" y="526"/>
      <point x="219" y="511"/>
      <point x="192" y="486" type="curve"/>
      <point x="183" y="512"/>
      <point x="162" y="526"/>
      <point x="126" y="526" type="curve" smooth="yes"/>
      <point x="112" y="526"/>
      <point x="99" y="515"/>
      <point x="97" y="502" type="curve" smooth="yes"/>
      <point x="95" y="488"/>
      <point x="104" y="477"/>
      <point x="118" y="477" type="curve" smooth="yes"/>
      <point x="155" y="477"/>
      <point x="154" y="445"/>
      <point x="147" y="406" type="curve"/>
      <point x="79" y="22" type="line"/>
      <point x="77" y="9"/>
      <point x="86" y="-2"/>
      <point x="100" y="-2" type="curve" smooth="yes"/>
      <point x="113" y="-2"/>
      <point x="126" y="9"/>
      <point x="128" y="22" type="curve"/>
      <point x="196" y="406" type="line"/>
      <point x="203" y="445"/>
      <point x="241" y="477"/>
      <point x="281" y="477" type="curve" smooth="yes"/>
      <point x="320" y="477"/>
      <point x="346" y="445"/>
      <point x="339" y="406" type="curve"/>
      <point x="271" y="22" type="line"/>
      <point x="269" y="9"/>
      <point x="278" y="-2"/>
      <point x="292" y="-2" type="curve" smooth="yes"/>
      <point x="307" y="-2"/>
      <point x="319" y="9"/>
      <point x="321" y="22" type="curve"/>
      <point x="389" y="406" type="line"/>
      <point x="396" y="445"/>
      <point x="434" y="477"/>
      <point x="474" y="477" type="curve" smooth="yes"/>
      <point x="513" y="477"/>
      <point x="539" y="445"/>
      <point x="532" y="406" type="curve"/>
      <point x="464" y="22" type="line"/>
      <point x="462" y="9"/>
      <point x="471" y="-2"/>
      <point x="485" y="-2" type="curve" smooth="yes"/>
      <point x="498" y="-2"/>
      <point x="511" y="9"/>
      <point x="513" y="22" type="curve"/>
      <point x="581" y="406" type="line"/>
      <point x="593" y="472"/>
      <point x="548" y="526"/>
    </contour>
  </outline>
</glyph>
<glyph name="n" format="1">
  <advance width="382"/>
  <unicode hex="006E"/>
  <outline>
    <contour>
      <point x="288" y="527" type="curve" smooth="yes"/>
      <point x="252" y="527"/>
      <point x="220" y="514"/>
      <point x="194" y="489" type="curve"/>
      <point x="183" y="514"/>
      <point x="161" y="527"/>
      <point x="126" y="527" type="curve" smooth="yes"/>
      <point x="110" y="527"/>
      <point x="97" y="515"/>
      <point x="95" y="500" type="curve" smooth="yes"/>
      <point x="92" y="485"/>
      <point x="101" y="473"/>
      <point x="117" y="473" type="curve" smooth="yes"/>
      <point x="152" y="473"/>
      <point x="150" y="442"/>
      <point x="144" y="406" type="curve"/>
      <point x="77" y="27" type="line"/>
      <point x="75" y="12"/>
      <point x="85" y="0"/>
      <point x="100" y="0" type="curve" smooth="yes"/>
      <point x="116" y="0"/>
      <point x="129" y="12"/>
      <point x="131" y="27" type="curve"/>
      <point x="198" y="406" type="line"/>
      <point x="204" y="442"/>
      <point x="241" y="473"/>
      <point x="279" y="473" type="curve" smooth="yes"/>
      <point x="315" y="473"/>
      <point x="340" y="442"/>
      <point x="334" y="406" type="curve"/>
      <point x="267" y="27" type="line"/>
      <point x="265" y="12"/>
      <point x="275" y="0"/>
      <point x="290" y="0" type="curve" smooth="yes"/>
      <point x="306" y="0"/>
      <point x="319" y="12"/>
      <point x="321" y="27" type="curve"/>
      <point x="388" y="406" type="line"/>
      <point x="400" y="473"/>
      <point x="355" y="527"/>
    </contour>
  </outline>
</glyph>
<glyph name="o" format="1">
  <advance width="270"/>
  <unicode hex="006F"/>
  <outline>
    <contour>
      <point x="132" y="-2" type="curve" smooth="yes"/>
      <point x="198" y="-2"/>
      <point x="263" y="53"/>
      <point x="274" y="119" type="curve"/>
      <point x="325" y="405" type="line"/>
      <point x="337" y="472"/>
      <point x="291" y="526"/>
      <point x="225" y="526" type="curve" smooth="yes"/>
      <point x="159" y="526"/>
      <point x="95" y="472"/>
      <point x="83" y="405" type="curve"/>
      <point x="32" y="119" type="line"/>
      <point x="21" y="53"/>
      <point x="66" y="-2"/>
    </contour>
    <contour>
      <point x="132" y="405" type="line"/>
      <point x="139" y="445"/>
      <point x="178" y="477"/>
      <point x="217" y="477" type="curve" smooth="yes"/>
      <point x="256" y="477"/>
      <point x="283" y="445"/>
      <point x="276" y="405" type="curve"/>
      <point x="225" y="119" type="line"/>
      <point x="219" y="80"/>
      <point x="180" y="47"/>
      <point x="141" y="47" type="curve" smooth="yes"/>
      <point x="102" y="47"/>
      <point x="75" y="80"/>
      <point x="81" y="119" type="curve"/>
    </contour>
  </outline>
</glyph>
<glyph name="p" format="1">
  <advance width="349"/>
  <unicode hex="0070"/>
  <outline>
    <contour>
      <point x="313" y="528" type="curve" smooth="yes"/>
      <point x="285" y="528"/>
      <point x="259" y="518"/>
      <point x="235" y="504" type="curve"/>
      <point x="237" y="517"/>
      <point x="228" y="527"/>
      <point x="215" y="527" type="curve" smooth="yes"/>
      <point x="201" y="527"/>
      <point x="189" y="516"/>
      <point x="187" y="502" type="curve"/>
      <point x="78" y="-115" type="line"/>
      <point x="71" y="-154"/>
      <point x="34" y="-187"/>
      <point x="-5" y="-187" type="curve" smooth="yes"/>
      <point x="-19" y="-187"/>
      <point x="-32" y="-198"/>
      <point x="-35" y="-211" type="curve" smooth="yes"/>
      <point x="-37" y="-225"/>
      <point x="-28" y="-236"/>
      <point x="-14" y="-236" type="curve" smooth="yes"/>
      <point x="52" y="-236"/>
      <point x="115" y="-181"/>
      <point x="126" y="-115" type="curve"/>
      <point x="151" y="23" type="line"/>
      <point x="169" y="8"/>
      <point x="191" y="-1"/>
      <point x="219" y="-1" type="curve" smooth="yes"/>
      <point x="286" y="-1"/>
      <point x="350" y="53"/>
      <point x="362" y="120" type="curve"/>
      <point x="412" y="407" type="line"/>
      <point x="424" y="473"/>
      <point x="380" y="528"/>
    </contour>
    <contour>
      <point x="314" y="120" type="line"/>
      <point x="307" y="80"/>
      <point x="267" y="48"/>
      <point x="228" y="48" type="curve" smooth="yes"/>
      <point x="189" y="48"/>
      <point x="162" y="80"/>
      <point x="169" y="120" type="curve"/>
      <point x="219" y="407" type="line"/>
      <point x="226" y="446"/>
      <point x="265" y="479"/>
      <point x="304" y="479" type="curve" smooth="yes"/>
      <point x="343" y="479"/>
      <point x="371" y="446"/>
      <point x="364" y="407" type="curve"/>
    </contour>
  </outline>
</glyph>
<glyph name="q" format="1">
  <advance width="349"/>
  <unicode hex="0071"/>
  <outline>
    <contour>
      <point x="284" y="-188" type="curve" smooth="yes"/>
      <point x="245" y="-188"/>
      <point x="218" y="-155"/>
      <point x="225" y="-116" type="curve"/>
      <point x="334" y="501" type="line"/>
      <point x="336" y="514"/>
      <point x="327" y="526"/>
      <point x="313" y="526" type="curve" smooth="yes"/>
      <point x="300" y="526"/>
      <point x="288" y="515"/>
      <point x="285" y="503" type="curve"/>
      <point x="268" y="517"/>
      <point x="243" y="527"/>
      <point x="217" y="527" type="curve" smooth="yes"/>
      <point x="150" y="527"/>
      <point x="86" y="472"/>
      <point x="74" y="406" type="curve"/>
      <point x="23" y="119" type="line"/>
      <point x="12" y="52"/>
      <point x="57" y="-2"/>
      <point x="124" y="-2" type="curve" smooth="yes"/>
      <point x="149" y="-2"/>
      <point x="179" y="8"/>
      <point x="200" y="21" type="curve"/>
      <point x="176" y="-116" type="line"/>
      <point x="164" y="-182"/>
      <point x="209" y="-237"/>
      <point x="276" y="-237" type="curve" smooth="yes"/>
      <point x="290" y="-237"/>
      <point x="302" y="-226"/>
      <point x="304" y="-212" type="curve" smooth="yes"/>
      <point x="306" y="-199"/>
      <point x="298" y="-188"/>
    </contour>
    <contour>
      <point x="267" y="406" type="curve"/>
      <point x="216" y="119" type="line"/>
      <point x="209" y="79"/>
      <point x="172" y="47"/>
      <point x="133" y="47" type="curve" smooth="yes"/>
      <point x="93" y="47"/>
      <point x="66" y="79"/>
      <point x="73" y="119" type="curve"/>
      <point x="124" y="406" type="line"/>
      <point x="131" y="445"/>
      <point x="169" y="478"/>
      <point x="209" y="478" type="curve" smooth="yes"/>
      <point x="248" y="478"/>
      <point x="274" y="445"/>
    </contour>
  </outline>
</glyph>
<glyph name="r" format="1">
  <advance width="152"/>
  <unicode hex="0072"/>
  <outline>
    <contour>
      <point x="224" y="525" type="curve" smooth="yes"/>
      <point x="157" y="525"/>
      <point x="95" y="471"/>
      <point x="83" y="406" type="curve"/>
      <point x="16" y="23" type="line"/>
      <point x="13" y="10"/>
      <point x="22" y="-1"/>
      <point x="35" y="-1" type="curve" smooth="yes"/>
      <point x="49" y="-1"/>
      <point x="62" y="10"/>
      <point x="65" y="23" type="curve"/>
      <point x="132" y="406" type="line"/>
      <point x="139" y="445"/>
      <point x="176" y="476"/>
      <point x="215" y="476" type="curve" smooth="yes"/>
      <point x="228" y="476"/>
      <point x="241" y="487"/>
      <point x="244" y="501" type="curve" smooth="yes"/>
      <point x="246" y="514"/>
      <point x="237" y="525"/>
    </contour>
  </outline>
</glyph>
<glyph name="s" format="1">
  <advance width="264"/>
  <unicode hex="0073"/>
  <outline>
    <contour>
      <point x="318" y="380" type="line"/>
      <point x="322" y="406" type="line"/>
      <point x="334" y="472"/>
      <point x="289" y="527"/>
      <point x="222" y="527" type="curve" smooth="yes"/>
      <point x="155" y="527"/>
      <point x="93" y="472"/>
      <point x="81" y="406" type="curve"/>
      <point x="70" y="344" type="line"/>
      <point x="65" y="317"/>
      <point x="69" y="290"/>
      <point x="80" y="271" type="curve"/>
      <point x="83" y="266" type="line"/>
      <point x="83" y="267" type="line"/>
      <point x="85" y="263"/>
      <point x="89" y="258"/>
      <point x="91" y="254" type="curve" smooth="yes"/>
      <point x="104" y="243"/>
      <point x="122" y="234"/>
      <point x="141" y="233" type="curve"/>
      <point x="203" y="233" type="line"/>
      <point x="219" y="231"/>
      <point x="232" y="220"/>
      <point x="237" y="205" type="curve"/>
      <point x="231" y="173" type="line"/>
      <point x="223" y="120" type="line"/>
      <point x="216" y="80"/>
      <point x="177" y="48"/>
      <point x="138" y="48" type="curve" smooth="yes"/>
      <point x="98" y="48"/>
      <point x="72" y="80"/>
      <point x="79" y="120" type="curve"/>
      <point x="84" y="150" type="line"/>
      <point x="36" y="150" type="line"/>
      <point x="31" y="120" type="line"/>
      <point x="19" y="53"/>
      <point x="63" y="-1"/>
      <point x="129" y="-1" type="curve" smooth="yes"/>
      <point x="196" y="-1"/>
      <point x="260" y="53"/>
      <point x="272" y="120" type="curve"/>
      <point x="285" y="198" type="line"/>
      <point x="284" y="215"/>
      <point x="281" y="228"/>
      <point x="276" y="237" type="curve" smooth="yes"/>
      <point x="271" y="246"/>
      <point x="263" y="257"/>
      <point x="258" y="262" type="curve" smooth="yes"/>
      <point x="246" y="273"/>
      <point x="230" y="281"/>
      <point x="212" y="282" type="curve"/>
      <point x="150" y="282" type="line"/>
      <point x="133" y="283"/>
      <point x="118" y="299"/>
      <point x="114" y="318" type="curve"/>
      <point x="129" y="406" type="line"/>
      <point x="136" y="445"/>
      <point x="174" y="477"/>
      <point x="214" y="477" type="curve" smooth="yes"/>
      <point x="253" y="477"/>
      <point x="279" y="445"/>
      <point x="272" y="406" type="curve"/>
      <point x="268" y="380" type="line"/>
    </contour>
  </outline>
</glyph>
<glyph name="t" format="1">
  <advance width="297"/>
  <unicode hex="0074"/>
  <outline>
    <contour>
      <point x="237" y="54" type="curve" smooth="yes"/>
      <point x="199" y="54"/>
      <point x="174" y="85"/>
      <point x="181" y="122" type="curve"/>
      <point x="250" y="516" type="line"/>
      <point x="304" y="522"/>
      <point x="349" y="547"/>
      <point x="359" y="604" type="curve" smooth="yes"/>
      <point x="362" y="619"/>
      <point x="353" y="631"/>
      <point x="337" y="631" type="curve" smooth="yes"/>
      <point x="322" y="631"/>
      <point x="308" y="619"/>
      <point x="305" y="604" type="curve" smooth="yes"/>
      <point x="301" y="581"/>
      <point x="282" y="572"/>
      <point x="260" y="570" type="curve"/>
      <point x="289" y="737" type="line"/>
      <point x="292" y="752"/>
      <point x="282" y="764"/>
      <point x="267" y="764" type="curve" smooth="yes"/>
      <point x="250" y="764"/>
      <point x="237" y="752"/>
      <point x="234" y="737" type="curve"/>
      <point x="205" y="569" type="line"/>
      <point x="151" y="569" type="line"/>
      <point x="136" y="569"/>
      <point x="121" y="558"/>
      <point x="118" y="542" type="curve" smooth="yes"/>
      <point x="115" y="527"/>
      <point x="126" y="515"/>
      <point x="141" y="515" type="curve"/>
      <point x="195" y="515" type="line"/>
      <point x="126" y="122" type="line"/>
      <point x="114" y="56"/>
      <point x="160" y="0"/>
      <point x="228" y="0" type="curve" smooth="yes"/>
      <point x="243" y="0"/>
      <point x="257" y="12"/>
      <point x="259" y="27" type="curve" smooth="yes"/>
      <point x="262" y="42"/>
      <point x="252" y="54"/>
    </contour>
  </outline>
</glyph>
<glyph name="u" format="1">
  <advance width="398"/>
  <unicode hex="0075"/>
  <outline>
    <contour>
      <point x="346" y="54" type="curve" smooth="yes"/>
      <point x="313" y="54"/>
      <point x="313" y="84"/>
      <point x="320" y="121" type="curve"/>
      <point x="387" y="500" type="line"/>
      <point x="389" y="515"/>
      <point x="379" y="527"/>
      <point x="364" y="527" type="curve" smooth="yes"/>
      <point x="348" y="527"/>
      <point x="335" y="515"/>
      <point x="333" y="500" type="curve"/>
      <point x="266" y="121" type="line"/>
      <point x="259" y="84"/>
      <point x="223" y="54"/>
      <point x="186" y="54" type="curve" smooth="yes"/>
      <point x="149" y="54"/>
      <point x="124" y="84"/>
      <point x="131" y="121" type="curve"/>
      <point x="198" y="500" type="line"/>
      <point x="200" y="515"/>
      <point x="188" y="527"/>
      <point x="175" y="527" type="curve" smooth="yes"/>
      <point x="159" y="527"/>
      <point x="146" y="515"/>
      <point x="144" y="500" type="curve"/>
      <point x="77" y="121" type="line"/>
      <point x="65" y="54"/>
      <point x="110" y="0"/>
      <point x="177" y="0" type="curve" smooth="yes"/>
      <point x="212" y="0"/>
      <point x="244" y="13"/>
      <point x="270" y="37" type="curve"/>
      <point x="281" y="13"/>
      <point x="304" y="0"/>
      <point x="337" y="0" type="curve" smooth="yes"/>
      <point x="353" y="0"/>
      <point x="366" y="12"/>
      <point x="368" y="27" type="curve" smooth="yes"/>
      <point x="371" y="42"/>
      <point x="362" y="54"/>
    </contour>
  </outline>
</glyph>
<glyph name="v" format="1">
  <advance width="324"/>
  <unicode hex="0076"/>
  <outline>
    <contour>
      <point x="327" y="522" type="line"/>
      <point x="314" y="527"/>
      <point x="298" y="518"/>
      <point x="292" y="505" type="curve" smooth="yes"/>
      <point x="284" y="491"/>
      <point x="288" y="476"/>
      <point x="302" y="471" type="curve" smooth="yes"/>
      <point x="319" y="465"/>
      <point x="324" y="454"/>
      <point x="321" y="438" type="curve" smooth="yes"/>
      <point x="319" y="428"/>
      <point x="312" y="413"/>
      <point x="305" y="397" type="curve" smooth="yes"/>
      <point x="265" y="308"/>
      <point x="226" y="217"/>
      <point x="186" y="128" type="curve"/>
      <point x="167" y="396" type="line"/>
      <point x="165" y="412"/>
      <point x="165" y="426"/>
      <point x="167" y="438" type="curve" smooth="yes"/>
      <point x="170" y="454"/>
      <point x="178" y="466"/>
      <point x="198" y="471" type="curve" smooth="yes"/>
      <point x="212" y="475"/>
      <point x="223" y="491"/>
      <point x="221" y="505" type="curve"/>
      <point x="221" y="504" type="line"/>
      <point x="221" y="519"/>
      <point x="207" y="527"/>
      <point x="191" y="523" type="curve"/>
      <point x="146" y="509"/>
      <point x="121" y="477"/>
      <point x="113" y="436" type="curve" smooth="yes"/>
      <point x="110" y="418"/>
      <point x="110" y="400"/>
      <point x="112" y="382" type="curve"/>
      <point x="112" y="382" type="line"/>
      <point x="138" y="17" type="line"/>
      <point x="140" y="3"/>
      <point x="153" y="-5"/>
      <point x="167" y="-1" type="curve" smooth="yes"/>
      <point x="177" y="1"/>
      <point x="188" y="7"/>
      <point x="192" y="17" type="curve"/>
      <point x="354" y="381" type="line"/>
      <point x="363" y="399"/>
      <point x="370" y="418"/>
      <point x="373" y="436" type="curve" smooth="yes"/>
      <point x="381" y="477"/>
      <point x="369" y="510"/>
      <point x="327" y="523" type="curve"/>
    </contour>
  </outline>
</glyph>
<glyph name="w" format="1">
  <advance width="561"/>
  <unicode hex="0077"/>
  <outline>
    <contour>
      <point x="543" y="524" type="curve" smooth="yes"/>
      <point x="530" y="528"/>
      <point x="512" y="521"/>
      <point x="506" y="507" type="curve" smooth="yes"/>
      <point x="498" y="491"/>
      <point x="505" y="477"/>
      <point x="518" y="472" type="curve" smooth="yes"/>
      <point x="536" y="466"/>
      <point x="540" y="456"/>
      <point x="537" y="440" type="curve" smooth="yes"/>
      <point x="535" y="430"/>
      <point x="528" y="414"/>
      <point x="521" y="398" type="curve"/>
      <point x="399" y="124" type="line"/>
      <point x="370" y="325" type="line"/>
      <point x="367" y="340"/>
      <point x="367" y="356"/>
      <point x="369" y="366" type="curve" smooth="yes"/>
      <point x="372" y="382"/>
      <point x="380" y="394"/>
      <point x="400" y="399" type="curve"/>
      <point x="415" y="404"/>
      <point x="425" y="418"/>
      <point x="425" y="432" type="curve"/>
      <point x="422" y="446"/>
      <point x="409" y="454"/>
      <point x="393" y="451" type="curve"/>
      <point x="379" y="447"/>
      <point x="364" y="439"/>
      <point x="353" y="431" type="curve"/>
      <point x="345" y="439"/>
      <point x="336" y="445"/>
      <point x="321" y="451" type="curve"/>
      <point x="307" y="455"/>
      <point x="290" y="448"/>
      <point x="283" y="434" type="curve"/>
      <point x="284" y="434" type="line"/>
      <point x="277" y="419"/>
      <point x="283" y="405"/>
      <point x="296" y="400" type="curve" smooth="yes"/>
      <point x="314" y="394"/>
      <point x="318" y="382"/>
      <point x="315" y="367" type="curve" smooth="yes"/>
      <point x="313" y="356"/>
      <point x="307" y="341"/>
      <point x="299" y="325" type="curve"/>
      <point x="300" y="325" type="line"/>
      <point x="265" y="257"/>
      <point x="229" y="191"/>
      <point x="193" y="124" type="curve"/>
      <point x="173" y="399" type="line"/>
      <point x="171" y="414"/>
      <point x="171" y="429"/>
      <point x="173" y="440" type="curve" smooth="yes"/>
      <point x="176" y="456"/>
      <point x="184" y="469"/>
      <point x="205" y="474" type="curve"/>
      <point x="219" y="479"/>
      <point x="229" y="493"/>
      <point x="229" y="507" type="curve"/>
      <point x="227" y="522"/>
      <point x="213" y="530"/>
      <point x="198" y="527" type="curve"/>
      <point x="151" y="514"/>
      <point x="127" y="481"/>
      <point x="120" y="439" type="curve" smooth="yes"/>
      <point x="117" y="421"/>
      <point x="117" y="403"/>
      <point x="118" y="384" type="curve"/>
      <point x="118" y="385" type="line"/>
      <point x="146" y="18" type="line"/>
      <point x="147" y="5"/>
      <point x="159" y="-6"/>
      <point x="176" y="-1" type="curve" smooth="yes"/>
      <point x="184" y="2"/>
      <point x="193" y="8"/>
      <point x="198" y="17" type="curve"/>
      <point x="322" y="258" type="line"/>
      <point x="353" y="16" type="line"/>
      <point x="357" y="4"/>
      <point x="369" y="-6"/>
      <point x="385" y="-2" type="curve" smooth="yes"/>
      <point x="393" y="1"/>
      <point x="403" y="8"/>
      <point x="407" y="16" type="curve"/>
      <point x="570" y="382" type="line"/>
      <point x="579" y="401"/>
      <point x="587" y="420"/>
      <point x="590" y="438" type="curve" smooth="yes"/>
      <point x="597" y="479"/>
      <point x="586" y="511"/>
    </contour>
  </outline>
</glyph>
<glyph name="x" format="1">
  <advance width="354"/>
  <unicode hex="0078"/>
  <outline>
    <contour>
      <point x="243" y="229" type="line"/>
      <point x="355" y="371" type="line"/>
      <point x="380" y="399"/>
      <point x="398" y="430"/>
      <point x="403" y="456" type="curve" smooth="yes"/>
      <point x="407" y="480"/>
      <point x="398" y="503"/>
      <point x="379" y="522" type="curve"/>
      <point x="368" y="527"/>
      <point x="351" y="525"/>
      <point x="343" y="516" type="curve"/>
      <point x="337" y="506"/>
      <point x="336" y="489"/>
      <point x="342" y="482" type="curve" smooth="yes"/>
      <point x="351" y="474"/>
      <point x="356" y="464"/>
      <point x="355" y="454" type="curve" smooth="yes"/>
      <point x="352" y="438"/>
      <point x="337" y="420"/>
      <point x="320" y="400" type="curve"/>
      <point x="288" y="358"/>
      <point x="256" y="318"/>
      <point x="223" y="276" type="curve"/>
      <point x="170" y="400" type="line"/>
      <point x="160" y="420"/>
      <point x="151" y="438"/>
      <point x="154" y="454" type="curve" smooth="yes"/>
      <point x="155" y="464"/>
      <point x="164" y="474"/>
      <point x="175" y="482" type="curve" smooth="yes"/>
      <point x="187" y="490"/>
      <point x="194" y="506"/>
      <point x="187" y="516" type="curve" smooth="yes"/>
      <point x="182" y="526"/>
      <point x="165" y="527"/>
      <point x="155" y="522" type="curve"/>
      <point x="127" y="503"/>
      <point x="111" y="480"/>
      <point x="107" y="456" type="curve" smooth="yes"/>
      <point x="102" y="430"/>
      <point x="109" y="399"/>
      <point x="125" y="371" type="curve"/>
      <point x="186" y="229" type="line"/>
      <point x="37" y="38" type="line"/>
      <point x="30" y="27"/>
      <point x="28" y="11"/>
      <point x="36" y="3" type="curve"/>
      <point x="46" y="-4"/>
      <point x="61" y="-3"/>
      <point x="71" y="9" type="curve"/>
      <point x="116" y="66"/>
      <point x="162" y="124"/>
      <point x="206" y="181" type="curve"/>
      <point x="280" y="9" type="line"/>
      <point x="287" y="-3"/>
      <point x="301" y="-4"/>
      <point x="313" y="3" type="curve"/>
      <point x="324" y="11"/>
      <point x="328" y="27"/>
      <point x="325" y="38" type="curve"/>
    </contour>
  </outline>
</glyph>
<glyph name="y" format="1">
  <advance width="353"/>
  <unicode hex="0079"/>
  <outline>
    <contour>
      <point x="374" y="501" type="line"/>
      <point x="375" y="516"/>
      <point x="367" y="525"/>
      <point x="352" y="525" type="curve" smooth="yes"/>
      <point x="339" y="525"/>
      <point x="325" y="515"/>
      <point x="321" y="502" type="curve"/>
      <point x="254" y="121" type="line"/>
      <point x="247" y="84"/>
      <point x="212" y="54"/>
      <point x="175" y="54" type="curve" smooth="yes"/>
      <point x="137" y="54"/>
      <point x="112" y="84"/>
      <point x="119" y="121" type="curve"/>
      <point x="185" y="498" type="line"/>
      <point x="188" y="514"/>
      <point x="179" y="525"/>
      <point x="163" y="525" type="curve" smooth="yes"/>
      <point x="148" y="525"/>
      <point x="135" y="514"/>
      <point x="132" y="498" type="curve"/>
      <point x="66" y="121" type="line"/>
      <point x="54" y="54"/>
      <point x="98" y="0"/>
      <point x="166" y="0" type="curve" smooth="yes"/>
      <point x="191" y="0"/>
      <point x="215" y="7"/>
      <point x="236" y="20" type="curve"/>
      <point x="214" y="-104" type="line"/>
      <point x="207" y="-142"/>
      <point x="172" y="-171"/>
      <point x="135" y="-171" type="curve" smooth="yes"/>
      <point x="119" y="-171"/>
      <point x="106" y="-183"/>
      <point x="104" y="-198" type="curve" smooth="yes"/>
      <point x="101" y="-214"/>
      <point x="110" y="-225"/>
      <point x="126" y="-225" type="curve" smooth="yes"/>
      <point x="193" y="-225"/>
      <point x="256" y="-171"/>
      <point x="268" y="-104" type="curve"/>
      <point x="374" y="498" type="line"/>
      <point x="373" y="502" type="line"/>
    </contour>
  </outline>
</glyph>
<glyph name="z" format="1">
  <advance width="270"/>
  <unicode hex="007A"/>
  <outline>
    <contour>
      <point x="251" y="114" type="curve" smooth="yes"/>
      <point x="237" y="114"/>
      <point x="223" y="102"/>
      <point x="221" y="89" type="curve" smooth="yes"/>
      <point x="216" y="57"/>
      <point x="207" y="49"/>
      <point x="174" y="49" type="curve"/>
      <point x="78" y="49" type="line"/>
      <point x="335" y="491" type="line"/>
      <point x="335" y="490" type="line"/>
      <point x="339" y="494"/>
      <point x="340" y="499"/>
      <point x="341" y="503" type="curve" smooth="yes"/>
      <point x="343" y="516"/>
      <point x="334" y="527"/>
      <point x="321" y="527" type="curve"/>
      <point x="195" y="527" type="line"/>
      <point x="133" y="527"/>
      <point x="101" y="500"/>
      <point x="90" y="438" type="curve" smooth="yes"/>
      <point x="87" y="425"/>
      <point x="96" y="413"/>
      <point x="110" y="413" type="curve" smooth="yes"/>
      <point x="123" y="413"/>
      <point x="136" y="425"/>
      <point x="139" y="438" type="curve" smooth="yes"/>
      <point x="144" y="470"/>
      <point x="155" y="478"/>
      <point x="187" y="478" type="curve"/>
      <point x="277" y="478" type="line"/>
      <point x="22" y="39" type="line"/>
      <point x="20" y="35"/>
      <point x="16" y="28"/>
      <point x="16" y="23" type="curve" smooth="yes"/>
      <point x="15" y="17"/>
      <point x="16" y="12"/>
      <point x="20" y="7" type="curve" smooth="yes"/>
      <point x="23" y="3"/>
      <point x="27" y="1"/>
      <point x="31" y="0" type="curve"/>
      <point x="166" y="0" type="line"/>
      <point x="229" y="0"/>
      <point x="259" y="27"/>
      <point x="270" y="89" type="curve" smooth="yes"/>
      <point x="272" y="102"/>
      <point x="264" y="114"/>
    </contour>
  </outline>
</glyph>
<glyph name="braceleft" format="1">
  <advance width="205"/>
  <unicode hex="007B"/>
  <outline>
    <contour>
      <point x="217" y="767" type="line"/>
      <point x="311" y="767" type="line"/>
      <point x="325" y="767"/>
      <point x="333" y="753"/>
      <point x="330" y="736" type="curve" smooth="yes"/>
      <point x="327" y="720"/>
      <point x="314" y="706"/>
      <point x="300" y="706" type="curve"/>
      <point x="257" y="706" type="line"/>
      <point x="206" y="418" type="line"/>
      <point x="199" y="411" type="line"/>
      <point x="200" y="412" type="line"/>
      <point x="159" y="367" type="line"/>
      <point x="115" y="320" type="line"/>
      <point x="142" y="272" type="line"/>
      <point x="167" y="231" type="line"/>
      <point x="171" y="220" type="line"/>
      <point x="121" y="-68" type="line"/>
      <point x="164" y="-68" type="line"/>
      <point x="178" y="-68"/>
      <point x="186" y="-82"/>
      <point x="183" y="-98" type="curve" smooth="yes"/>
      <point x="180" y="-115"/>
      <point x="167" y="-129"/>
      <point x="153" y="-129" type="curve"/>
      <point x="59" y="-129" type="line"/>
      <point x="118" y="207" type="line"/>
      <point x="113" y="213"/>
      <point x="47" y="293"/>
      <point x="52" y="320" type="curve" smooth="yes"/>
      <point x="56" y="345"/>
      <point x="157" y="431"/>
      <point x="157" y="431" type="curve"/>
    </contour>
  </outline>
</glyph>
<glyph name="bar" format="1">
  <advance width="201"/>
  <unicode hex="007C"/>
  <outline>
    <contour>
      <point x="213" y="725" type="curve" smooth="yes"/>
      <point x="197" y="725"/>
      <point x="183" y="711"/>
      <point x="180" y="697" type="curve"/>
      <point x="62" y="28" type="line"/>
      <point x="60" y="12"/>
      <point x="70" y="0"/>
      <point x="86" y="0" type="curve" smooth="yes"/>
      <point x="101" y="0"/>
      <point x="116" y="12"/>
      <point x="118" y="28" type="curve"/>
      <point x="236" y="697" type="line"/>
      <point x="239" y="711"/>
      <point x="228" y="725"/>
    </contour>
  </outline>
</glyph>
<glyph name="braceright" format="1">
  <advance width="287"/>
  <unicode hex="007D"/>
  <outline>
    <contour>
      <point x="299" y="764" type="line"/>
      <point x="203" y="764" type="line"/>
      <point x="187" y="764"/>
      <point x="173" y="749"/>
      <point x="169" y="731" type="curve" smooth="yes"/>
      <point x="166" y="714"/>
      <point x="176" y="698"/>
      <point x="192" y="698" type="curve"/>
      <point x="232" y="698" type="line"/>
      <point x="182" y="415" type="line"/>
      <point x="185" y="408" type="line"/>
      <point x="211" y="364" type="line"/>
      <point x="237" y="319" type="line"/>
      <point x="221" y="303"/>
      <point x="209" y="289"/>
      <point x="195" y="274" type="curve"/>
      <point x="154" y="231" type="line"/>
      <point x="148" y="222" type="line"/>
      <point x="98" y="-62" type="line"/>
      <point x="58" y="-62" type="line"/>
      <point x="42" y="-62"/>
      <point x="27" y="-77"/>
      <point x="24" y="-94" type="curve" smooth="yes"/>
      <point x="21" y="-112"/>
      <point x="30" y="-127"/>
      <point x="46" y="-127" type="curve"/>
      <point x="142" y="-127" type="line"/>
      <point x="201" y="207" type="line"/>
      <point x="201" y="207"/>
      <point x="301" y="295"/>
      <point x="305" y="319" type="curve" smooth="yes"/>
      <point x="309" y="344"/>
      <point x="247" y="421"/>
      <point x="240" y="430" type="curve"/>
    </contour>
  </outline>
</glyph>
<glyph name="asciitilde" format="1">
  <advance width="331"/>
  <unicode hex="007E"/>
  <outline>
    <contour>
      <point x="65" y="383" type="curve" smooth="yes"/>
      <point x="62" y="364"/>
      <point x="83" y="365"/>
      <point x="105" y="371" type="curve" smooth="yes"/>
      <point x="116" y="374"/>
      <point x="128" y="376"/>
      <point x="137" y="376" type="curve" smooth="yes"/>
      <point x="165" y="376"/>
      <point x="195" y="365"/>
      <point x="223" y="356" type="curve" smooth="yes"/>
      <point x="238" y="350"/>
      <point x="255" y="345"/>
      <point x="271" y="341" type="curve" smooth="yes"/>
      <point x="284" y="337"/>
      <point x="299" y="335"/>
      <point x="314" y="335" type="curve" smooth="yes"/>
      <point x="326" y="335"/>
      <point x="339" y="337"/>
      <point x="349" y="340" type="curve" smooth="yes"/>
      <point x="373" y="347"/>
      <point x="393" y="369"/>
      <point x="395" y="383" type="curve" smooth="yes"/>
      <point x="398" y="401"/>
      <point x="379" y="401"/>
      <point x="356" y="395" type="curve" smooth="yes"/>
      <point x="344" y="393"/>
      <point x="331" y="391"/>
      <point x="321" y="391" type="curve" smooth="yes"/>
      <point x="309" y="391"/>
      <point x="296" y="393"/>
      <point x="283" y="395" type="curve"/>
      <point x="283" y="396" type="line"/>
      <point x="269" y="400"/>
      <point x="252" y="406"/>
      <point x="238" y="411" type="curve" smooth="yes"/>
      <point x="210" y="421"/>
      <point x="180" y="431"/>
      <point x="148" y="431" type="curve" smooth="yes"/>
      <point x="135" y="431"/>
      <point x="123" y="429"/>
      <point x="111" y="426" type="curve" smooth="yes"/>
      <point x="90" y="420"/>
      <point x="67" y="396"/>
    </contour>
  </outline>
</glyph>
<glyph name="exclamdown" format="1">
  <advance width="76"/>
  <unicode hex="00A1"/>
  <outline>
    <contour>
      <point x="150" y="651" type="curve" smooth="yes"/>
      <point x="137" y="651"/>
      <point x="124" y="640"/>
      <point x="122" y="627" type="curve"/>
      <point x="15" y="22" type="line"/>
      <point x="13" y="10"/>
      <point x="22" y="-1"/>
      <point x="35" y="-1" type="curve" smooth="yes"/>
      <point x="48" y="-1"/>
      <point x="60" y="10"/>
      <point x="62" y="22" type="curve"/>
      <point x="169" y="627" type="line"/>
      <point x="171" y="640"/>
      <point x="163" y="651"/>
    </contour>
    <contour>
      <point x="164" y="726" type="curve" smooth="yes"/>
      <point x="151" y="726"/>
      <point x="138" y="715"/>
      <point x="135" y="702" type="curve"/>
      <point x="133" y="690" type="line"/>
      <point x="131" y="677"/>
      <point x="140" y="666"/>
      <point x="153" y="666" type="curve" smooth="yes"/>
      <point x="166" y="666"/>
      <point x="178" y="677"/>
      <point x="180" y="690" type="curve"/>
      <point x="182" y="702" type="line"/>
      <point x="185" y="715"/>
      <point x="177" y="726"/>
    </contour>
  </outline>
</glyph>
<glyph name="cent" format="1">
  <advance width="250"/>
  <unicode hex="00A2"/>
  <outline>
    <contour>
      <point x="314" y="380" type="line"/>
      <point x="318" y="408" type="line"/>
      <point x="330" y="475"/>
      <point x="287" y="530"/>
      <point x="219" y="530" type="curve" smooth="yes"/>
      <point x="152" y="530"/>
      <point x="89" y="475"/>
      <point x="77" y="408" type="curve"/>
      <point x="27" y="121" type="line"/>
      <point x="15" y="55"/>
      <point x="59" y="0"/>
      <point x="126" y="0" type="curve" smooth="yes"/>
      <point x="194" y="0"/>
      <point x="256" y="55"/>
      <point x="268" y="121" type="curve"/>
      <point x="273" y="150" type="line"/>
      <point x="224" y="150" type="line"/>
      <point x="219" y="121" type="line"/>
      <point x="212" y="82"/>
      <point x="174" y="49"/>
      <point x="134" y="49" type="curve" smooth="yes"/>
      <point x="94" y="49"/>
      <point x="68" y="82"/>
      <point x="75" y="121" type="curve"/>
      <point x="125" y="408" type="line"/>
      <point x="132" y="448"/>
      <point x="170" y="480"/>
      <point x="210" y="480" type="curve" smooth="yes"/>
      <point x="250" y="480"/>
      <point x="276" y="448"/>
      <point x="269" y="408" type="curve"/>
      <point x="265" y="380" type="line"/>
    </contour>
    <contour>
      <point x="241" y="638" type="curve" smooth="yes"/>
      <point x="227" y="638"/>
      <point x="214" y="626"/>
      <point x="212" y="613" type="curve"/>
      <point x="92" y="-63" type="line"/>
      <point x="90" y="-78"/>
      <point x="99" y="-89"/>
      <point x="113" y="-89" type="curve" smooth="yes"/>
      <point x="127" y="-89"/>
      <point x="141" y="-78"/>
      <point x="143" y="-63" type="curve"/>
      <point x="263" y="613" type="line"/>
      <point x="265" y="626"/>
      <point x="255" y="638"/>
    </contour>
  </outline>
</glyph>
<glyph name="sterling" format="1">
  <advance width="461"/>
  <unicode hex="00A3"/>
  <outline>
    <contour>
      <point x="448" y="147" type="curve" smooth="yes"/>
      <point x="433" y="147"/>
      <point x="419" y="135"/>
      <point x="417" y="121" type="curve" smooth="yes"/>
      <point x="410" y="83"/>
      <point x="372" y="51"/>
      <point x="334" y="51" type="curve"/>
      <point x="210" y="51" type="line"/>
      <point x="264" y="354" type="line"/>
      <point x="424" y="354" type="line"/>
      <point x="439" y="354"/>
      <point x="453" y="365"/>
      <point x="456" y="380" type="curve" smooth="yes"/>
      <point x="458" y="395"/>
      <point x="448" y="406"/>
      <point x="433" y="406" type="curve"/>
      <point x="273" y="406" type="line"/>
      <point x="309" y="607" type="line"/>
      <point x="374" y="607" type="line"/>
      <point x="441" y="607"/>
      <point x="505" y="661"/>
      <point x="517" y="730" type="curve" smooth="yes"/>
      <point x="520" y="744"/>
      <point x="510" y="756"/>
      <point x="495" y="756" type="curve" smooth="yes"/>
      <point x="481" y="756"/>
      <point x="467" y="744"/>
      <point x="464" y="730" type="curve" smooth="yes"/>
      <point x="457" y="691"/>
      <point x="421" y="659"/>
      <point x="383" y="659" type="curve"/>
      <point x="318" y="659" type="line"/>
      <point x="325" y="702" type="line"/>
      <point x="328" y="717"/>
      <point x="318" y="729"/>
      <point x="303" y="729" type="curve" smooth="yes"/>
      <point x="289" y="729"/>
      <point x="275" y="717"/>
      <point x="272" y="702" type="curve"/>
      <point x="265" y="659" type="line"/>
      <point x="240" y="659" type="line"/>
      <point x="225" y="659"/>
      <point x="211" y="648"/>
      <point x="208" y="633" type="curve" smooth="yes"/>
      <point x="206" y="619"/>
      <point x="216" y="607"/>
      <point x="231" y="607" type="curve"/>
      <point x="256" y="607" type="line"/>
      <point x="220" y="406" type="line"/>
      <point x="195" y="406" type="line"/>
      <point x="127" y="406"/>
      <point x="63" y="352"/>
      <point x="51" y="284" type="curve" smooth="yes"/>
      <point x="48" y="269"/>
      <point x="58" y="258"/>
      <point x="72" y="258" type="curve" smooth="yes"/>
      <point x="87" y="258"/>
      <point x="101" y="269"/>
      <point x="104" y="284" type="curve" smooth="yes"/>
      <point x="110" y="322"/>
      <point x="147" y="354"/>
      <point x="186" y="354" type="curve"/>
      <point x="211" y="354" type="line"/>
      <point x="157" y="51" type="line"/>
      <point x="95" y="51" type="line"/>
      <point x="80" y="51"/>
      <point x="66" y="39"/>
      <point x="64" y="24" type="curve" smooth="yes"/>
      <point x="61" y="10"/>
      <point x="71" y="-2"/>
      <point x="86" y="-2" type="curve"/>
      <point x="148" y="-2" type="line"/>
      <point x="146" y="-16" type="line"/>
      <point x="143" y="-30"/>
      <point x="153" y="-42"/>
      <point x="167" y="-42" type="curve" smooth="yes"/>
      <point x="182" y="-42"/>
      <point x="196" y="-30"/>
      <point x="199" y="-16" type="curve"/>
      <point x="201" y="-2" type="line"/>
      <point x="325" y="-2" type="line"/>
      <point x="394" y="-2"/>
      <point x="458" y="53"/>
      <point x="470" y="121" type="curve" smooth="yes"/>
      <point x="472" y="135"/>
      <point x="462" y="147"/>
    </contour>
  </outline>
</glyph>
<glyph name="currency" format="1">
  <advance width="541"/>
  <unicode hex="00A4"/>
  <outline>
    <contour>
      <point x="533" y="130" type="curve"/>
      <point x="486" y="188" type="line"/>
      <point x="445" y="239" type="line"/>
      <point x="455" y="253"/>
      <point x="463" y="272"/>
      <point x="466" y="288" type="curve"/>
      <point x="496" y="454" type="line"/>
      <point x="499" y="476"/>
      <point x="496" y="500"/>
      <point x="485" y="519" type="curve"/>
      <point x="531" y="559" type="line"/>
      <point x="623" y="637" type="line"/>
      <point x="637" y="649"/>
      <point x="640" y="666"/>
      <point x="630" y="678" type="curve" smooth="yes"/>
      <point x="621" y="688"/>
      <point x="603" y="689"/>
      <point x="590" y="678" type="curve"/>
      <point x="451" y="560" type="line"/>
      <point x="450" y="559"/>
      <point x="450" y="560"/>
      <point x="450" y="559" type="curve"/>
      <point x="428" y="575"/>
      <point x="402" y="581"/>
      <point x="369" y="581" type="curve" smooth="yes"/>
      <point x="337" y="581"/>
      <point x="309" y="575"/>
      <point x="281" y="559" type="curve"/>
      <point x="280" y="561"/>
      <point x="282" y="558"/>
      <point x="280" y="560" type="curve"/>
      <point x="231" y="619" type="line"/>
      <point x="183" y="678" type="line"/>
      <point x="173" y="689"/>
      <point x="156" y="690"/>
      <point x="142" y="678" type="curve" smooth="yes"/>
      <point x="129" y="666"/>
      <point x="126" y="649"/>
      <point x="135" y="637" type="curve"/>
      <point x="184" y="579" type="line"/>
      <point x="231" y="520" type="line"/>
      <point x="214" y="501"/>
      <point x="203" y="478"/>
      <point x="199" y="454" type="curve"/>
      <point x="169" y="288" type="line"/>
      <point x="166" y="272"/>
      <point x="168" y="253"/>
      <point x="174" y="239" type="curve"/>
      <point x="115" y="188" type="line"/>
      <point x="45" y="130" type="line"/>
      <point x="32" y="118"/>
      <point x="29" y="100"/>
      <point x="38" y="89" type="curve" smooth="yes"/>
      <point x="48" y="77"/>
      <point x="65" y="77"/>
      <point x="79" y="89" type="curve"/>
      <point x="202" y="193" type="line"/>
      <point x="223" y="173"/>
      <point x="257" y="161"/>
      <point x="295" y="161" type="curve" smooth="yes"/>
      <point x="333" y="161"/>
      <point x="372" y="173"/>
      <point x="401" y="193" type="curve"/>
      <point x="437" y="147" type="line"/>
      <point x="486" y="89" type="line"/>
      <point x="495" y="77"/>
      <point x="513" y="77"/>
      <point x="526" y="89" type="curve" smooth="yes"/>
      <point x="540" y="100"/>
      <point x="543" y="118"/>
    </contour>
    <contour>
      <point x="304" y="212" type="curve" smooth="yes"/>
      <point x="255" y="212"/>
      <point x="220" y="246"/>
      <point x="227" y="288" type="curve"/>
      <point x="257" y="454" type="line"/>
      <point x="264" y="496"/>
      <point x="311" y="530"/>
      <point x="360" y="530" type="curve" smooth="yes"/>
      <point x="410" y="530"/>
      <point x="445" y="496"/>
      <point x="438" y="454" type="curve"/>
      <point x="408" y="288" type="line"/>
      <point x="401" y="246"/>
      <point x="354" y="212"/>
    </contour>
  </outline>
</glyph>
<glyph name="yen" format="1">
  <advance width="586"/>
  <unicode hex="00A5"/>
  <outline>
    <contour>
      <point x="520" y="726" type="curve" smooth="yes"/>
      <point x="503" y="726"/>
      <point x="489" y="713"/>
      <point x="487" y="698" type="curve"/>
      <point x="445" y="462" type="line"/>
      <point x="438" y="423"/>
      <point x="400" y="391"/>
      <point x="360" y="391" type="curve" smooth="yes"/>
      <point x="321" y="391"/>
      <point x="295" y="423"/>
      <point x="302" y="462" type="curve"/>
      <point x="344" y="698" type="line"/>
      <point x="347" y="715"/>
      <point x="338" y="726"/>
      <point x="321" y="726" type="curve" smooth="yes"/>
      <point x="307" y="726"/>
      <point x="291" y="715"/>
      <point x="288" y="698" type="curve"/>
      <point x="246" y="462" type="line"/>
      <point x="235" y="401"/>
      <point x="270" y="352"/>
      <point x="323" y="338" type="curve"/>
      <point x="268" y="28" type="line"/>
      <point x="266" y="13"/>
      <point x="278" y="0"/>
      <point x="292" y="0" type="curve" smooth="yes"/>
      <point x="307" y="0"/>
      <point x="322" y="13"/>
      <point x="324" y="28" type="curve"/>
      <point x="379" y="338" type="line"/>
      <point x="439" y="352"/>
      <point x="490" y="401"/>
      <point x="501" y="462" type="curve"/>
      <point x="543" y="698" type="line"/>
      <point x="545" y="713"/>
      <point x="534" y="726"/>
    </contour>
    <contour>
      <point x="81" y="271" type="curve" smooth="yes"/>
      <point x="79" y="259"/>
      <point x="88" y="249"/>
      <point x="99" y="249" type="curve"/>
      <point x="559" y="249" type="line"/>
      <point x="572" y="249"/>
      <point x="583" y="259"/>
      <point x="585" y="271" type="curve" smooth="yes"/>
      <point x="587" y="282"/>
      <point x="580" y="293"/>
      <point x="567" y="293" type="curve"/>
      <point x="107" y="293" type="line"/>
      <point x="96" y="293"/>
      <point x="83" y="282"/>
    </contour>
    <contour>
      <point x="62" y="159" type="curve" smooth="yes"/>
      <point x="59" y="147"/>
      <point x="69" y="137"/>
      <point x="80" y="137" type="curve"/>
      <point x="540" y="137" type="line"/>
      <point x="553" y="137"/>
      <point x="563" y="147"/>
      <point x="566" y="159" type="curve" smooth="yes"/>
      <point x="568" y="171"/>
      <point x="560" y="181"/>
      <point x="547" y="181" type="curve"/>
      <point x="87" y="181" type="line"/>
      <point x="76" y="181"/>
      <point x="64" y="171"/>
    </contour>
  </outline>
</glyph>
<glyph name="brokenbar" format="1">
  <advance width="81"/>
  <unicode hex="00A6"/>
  <outline>
    <contour>
      <point x="173" y="767" type="curve" smooth="yes"/>
      <point x="159" y="767"/>
      <point x="145" y="754"/>
      <point x="142" y="737" type="curve"/>
      <point x="77" y="364" type="line"/>
      <point x="128" y="364" type="line"/>
      <point x="193" y="737" type="line"/>
      <point x="196" y="754"/>
      <point x="187" y="767"/>
    </contour>
    <contour>
      <point x="-2" y="-86" type="line"/>
      <point x="-4" y="-102"/>
      <point x="3" y="-115"/>
      <point x="17" y="-115" type="curve" smooth="yes"/>
      <point x="31" y="-115"/>
      <point x="46" y="-102"/>
      <point x="48" y="-86" type="curve"/>
      <point x="114" y="286" type="line"/>
      <point x="63" y="286" type="line"/>
    </contour>
  </outline>
</glyph>
<glyph name="section" format="1">
  <advance width="466"/>
  <unicode hex="00A7"/>
  <outline>
    <contour>
      <point x="520" y="728" type="curve"/>
      <point x="359" y="728" type="line"/>
      <point x="284" y="728"/>
      <point x="215" y="675"/>
      <point x="203" y="612" type="curve" smooth="yes"/>
      <point x="198" y="579"/>
      <point x="210" y="546"/>
      <point x="234" y="524" type="curve"/>
      <point x="199" y="502"/>
      <point x="179" y="471"/>
      <point x="172" y="435" type="curve"/>
      <point x="147" y="292" type="line"/>
      <point x="142" y="264"/>
      <point x="148" y="238"/>
      <point x="167" y="217" type="curve" smooth="yes"/>
      <point x="184" y="196"/>
      <point x="210" y="182"/>
      <point x="239" y="177" type="curve"/>
      <point x="242" y="177"/>
      <point x="245" y="176"/>
      <point x="247" y="176" type="curve"/>
      <point x="267" y="176" type="line"/>
      <point x="304" y="173"/>
      <point x="327" y="147"/>
      <point x="322" y="117" type="curve" smooth="yes"/>
      <point x="316" y="83"/>
      <point x="278" y="56"/>
      <point x="238" y="56" type="curve"/>
      <point x="76" y="56" type="line"/>
      <point x="59" y="56"/>
      <point x="44" y="42"/>
      <point x="41" y="28" type="curve" smooth="yes"/>
      <point x="39" y="12"/>
      <point x="50" y="0"/>
      <point x="67" y="0" type="curve"/>
      <point x="229" y="0" type="line"/>
      <point x="304" y="0"/>
      <point x="373" y="53"/>
      <point x="384" y="117" type="curve" smooth="yes"/>
      <point x="390" y="149"/>
      <point x="377" y="182"/>
      <point x="353" y="204" type="curve"/>
      <point x="388" y="225"/>
      <point x="410" y="256"/>
      <point x="416" y="292" type="curve"/>
      <point x="441" y="435" type="line"/>
      <point x="446" y="464"/>
      <point x="439" y="491"/>
      <point x="422" y="513" type="curve" smooth="yes"/>
      <point x="405" y="533"/>
      <point x="379" y="546"/>
      <point x="349" y="551" type="curve"/>
      <point x="341" y="551" type="line"/>
      <point x="336" y="552"/>
      <point x="330" y="552"/>
      <point x="328" y="552" type="curve"/>
      <point x="322" y="552" type="line"/>
      <point x="284" y="555"/>
      <point x="259" y="582"/>
      <point x="264" y="612" type="curve" smooth="yes"/>
      <point x="270" y="646"/>
      <point x="308" y="672"/>
      <point x="349" y="672" type="curve"/>
      <point x="510" y="672" type="line"/>
      <point x="526" y="672"/>
      <point x="542" y="686"/>
      <point x="545" y="700" type="curve" smooth="yes"/>
      <point x="548" y="717"/>
      <point x="536" y="728"/>
    </contour>
    <contour>
      <point x="312" y="496" type="curve"/>
      <point x="324" y="496" type="line"/>
      <point x="361" y="493"/>
      <point x="386" y="467"/>
      <point x="380" y="435" type="curve"/>
      <point x="355" y="292" type="line"/>
      <point x="350" y="262"/>
      <point x="315" y="235"/>
      <point x="276" y="232" type="curve"/>
      <point x="261" y="232" type="line"/>
      <point x="225" y="237"/>
      <point x="203" y="262"/>
      <point x="208" y="292" type="curve"/>
      <point x="233" y="435" type="line"/>
      <point x="239" y="466"/>
      <point x="273" y="493"/>
    </contour>
  </outline>
</glyph>
<glyph name="dieresis" format="1">
  <advance width="308"/>
  <unicode hex="00A8"/>
  <outline>
    <contour>
      <point x="201" y="631" type="curve" smooth="yes"/>
      <point x="179" y="631"/>
      <point x="160" y="615"/>
      <point x="156" y="592" type="curve"/>
      <point x="152" y="569" type="line"/>
      <point x="148" y="545"/>
      <point x="161" y="529"/>
      <point x="183" y="529" type="curve" smooth="yes"/>
      <point x="207" y="529"/>
      <point x="227" y="545"/>
      <point x="231" y="569" type="curve"/>
      <point x="235" y="592" type="line"/>
      <point x="239" y="615"/>
      <point x="225" y="631"/>
    </contour>
    <contour>
      <point x="320" y="631" type="curve" smooth="yes"/>
      <point x="300" y="631"/>
      <point x="278" y="615"/>
      <point x="274" y="592" type="curve"/>
      <point x="270" y="569" type="line"/>
      <point x="266" y="545"/>
      <point x="282" y="529"/>
      <point x="302" y="529" type="curve" smooth="yes"/>
      <point x="326" y="529"/>
      <point x="345" y="545"/>
      <point x="349" y="569" type="curve"/>
      <point x="353" y="592" type="line"/>
      <point x="357" y="615"/>
      <point x="344" y="631"/>
    </contour>
  </outline>
</glyph>
<glyph name="copyright" format="1">
  <advance width="539"/>
  <unicode hex="00A9"/>
  <outline>
    <contour>
      <point x="435" y="470" type="line"/>
      <point x="445" y="522" type="line"/>
      <point x="453" y="572"/>
      <point x="419" y="612"/>
      <point x="371" y="612" type="curve" smooth="yes"/>
      <point x="323" y="612"/>
      <point x="275" y="572"/>
      <point x="267" y="522" type="curve"/>
      <point x="217" y="241" type="line"/>
      <point x="209" y="193"/>
      <point x="242" y="152"/>
      <point x="290" y="152" type="curve" smooth="yes"/>
      <point x="338" y="152"/>
      <point x="387" y="193"/>
      <point x="395" y="241" type="curve"/>
      <point x="402" y="280" type="line"/>
      <point x="343" y="280" type="line"/>
      <point x="336" y="241" type="line"/>
      <point x="333" y="224"/>
      <point x="317" y="212"/>
      <point x="301" y="212" type="curve" smooth="yes"/>
      <point x="285" y="212"/>
      <point x="273" y="224"/>
      <point x="276" y="241" type="curve"/>
      <point x="326" y="522" type="line"/>
      <point x="329" y="539"/>
      <point x="345" y="552"/>
      <point x="361" y="552" type="curve" smooth="yes"/>
      <point x="377" y="552"/>
      <point x="389" y="539"/>
      <point x="386" y="522" type="curve"/>
      <point x="376" y="470" type="line"/>
    </contour>
    <contour>
      <point x="388" y="704" type="curve" smooth="yes"/>
      <point x="267" y="704"/>
      <point x="155" y="628"/>
      <point x="139" y="537" type="curve"/>
      <point x="85" y="227" type="line"/>
      <point x="68" y="134"/>
      <point x="155" y="60"/>
      <point x="274" y="60" type="curve" smooth="yes"/>
      <point x="394" y="60"/>
      <point x="506" y="134"/>
      <point x="523" y="227" type="curve"/>
      <point x="577" y="537" type="line"/>
      <point x="593" y="628"/>
      <point x="508" y="704"/>
    </contour>
    <contour>
      <point x="475" y="227" type="curve" smooth="yes"/>
      <point x="465" y="172"/>
      <point x="362" y="112"/>
      <point x="287" y="112" type="curve" smooth="yes"/>
      <point x="212" y="112"/>
      <point x="130" y="168"/>
      <point x="140" y="223" type="curve"/>
      <point x="188" y="530" type="line"/>
      <point x="200" y="585"/>
      <point x="304" y="650"/>
      <point x="378" y="650" type="curve" smooth="yes"/>
      <point x="453" y="650"/>
      <point x="535" y="591"/>
      <point x="525" y="536" type="curve" smooth="yes"/>
      <point x="503" y="411"/>
      <point x="496" y="361"/>
      <point x="490" y="320" type="curve" smooth="yes"/>
      <point x="486" y="292"/>
      <point x="482" y="268"/>
    </contour>
  </outline>
</glyph>
<glyph name="ordfeminine" format="1">
  <advance width="290"/>
  <unicode hex="00AA"/>
  <outline>
    <contour>
      <point x="131" y="670" type="curve"/>
      <point x="92" y="450" type="line"/>
      <point x="82" y="395"/>
      <point x="118" y="352"/>
      <point x="173" y="352" type="curve" smooth="yes"/>
      <point x="200" y="352"/>
      <point x="229" y="363"/>
      <point x="250" y="382" type="curve"/>
      <point x="265" y="359"/>
      <point x="291" y="347"/>
      <point x="321" y="347" type="curve" smooth="yes"/>
      <point x="335" y="347"/>
      <point x="347" y="358"/>
      <point x="349" y="372" type="curve" smooth="yes"/>
      <point x="352" y="386"/>
      <point x="343" y="396"/>
      <point x="329" y="396" type="curve" smooth="yes"/>
      <point x="302" y="396"/>
      <point x="284" y="419"/>
      <point x="289" y="445" type="curve"/>
      <point x="328" y="665" type="line"/>
      <point x="328" y="666"/>
      <point x="327" y="667"/>
      <point x="327" y="668" type="curve" smooth="yes"/>
      <point x="336" y="725"/>
      <point x="301" y="769"/>
      <point x="246" y="769" type="curve" smooth="yes"/>
      <point x="191" y="769"/>
      <point x="140" y="725"/>
    </contour>
    <contour>
      <point x="141" y="450" type="curve"/>
      <point x="180" y="670" type="line"/>
      <point x="184" y="696"/>
      <point x="211" y="719"/>
      <point x="237" y="719" type="curve" smooth="yes"/>
      <point x="264" y="719"/>
      <point x="283" y="696"/>
      <point x="279" y="670" type="curve"/>
      <point x="240" y="450" type="line"/>
      <point x="235" y="423"/>
      <point x="208" y="400"/>
      <point x="181" y="400" type="curve" smooth="yes"/>
      <point x="155" y="400"/>
      <point x="136" y="423"/>
    </contour>
  </outline>
</glyph>
<glyph name="guillemotleft" format="1">
  <advance width="477"/>
  <unicode hex="00AB"/>
  <outline>
    <contour>
      <point x="431" y="1" type="curve" smooth="yes"/>
      <point x="436" y="1"/>
      <point x="442" y="2"/>
      <point x="448" y="6" type="curve" smooth="yes"/>
      <point x="459" y="16"/>
      <point x="463" y="33"/>
      <point x="457" y="44" type="curve"/>
      <point x="235" y="363" type="line"/>
      <point x="570" y="683" type="line"/>
      <point x="581" y="694"/>
      <point x="583" y="711"/>
      <point x="574" y="720" type="curve" smooth="yes"/>
      <point x="565" y="729"/>
      <point x="549" y="728"/>
      <point x="538" y="718" type="curve"/>
      <point x="166" y="363" type="line"/>
      <point x="413" y="9" type="line"/>
      <point x="417" y="5"/>
      <point x="425" y="1"/>
    </contour>
    <contour>
      <point x="324" y="-2" type="curve" smooth="yes"/>
      <point x="330" y="-2"/>
      <point x="336" y="-1"/>
      <point x="342" y="3" type="curve" smooth="yes"/>
      <point x="354" y="13"/>
      <point x="358" y="30"/>
      <point x="352" y="41" type="curve"/>
      <point x="128" y="360" type="line"/>
      <point x="464" y="680" type="line"/>
      <point x="475" y="691"/>
      <point x="477" y="708"/>
      <point x="469" y="717" type="curve" smooth="yes"/>
      <point x="460" y="726"/>
      <point x="443" y="725"/>
      <point x="433" y="715" type="curve"/>
      <point x="60" y="360" type="line"/>
      <point x="308" y="6" type="line"/>
      <point x="312" y="2"/>
      <point x="319" y="-2"/>
    </contour>
  </outline>
</glyph>
<glyph name="logicalnot" format="1">
  <advance width="386"/>
  <unicode hex="00AC"/>
  <outline>
    <contour>
      <point x="310" y="451" type="curve"/>
      <point x="147" y="451" type="line"/>
      <point x="132" y="451"/>
      <point x="118" y="439"/>
      <point x="115" y="424" type="curve" smooth="yes"/>
      <point x="112" y="408"/>
      <point x="123" y="397"/>
      <point x="138" y="397" type="curve"/>
      <point x="299" y="397" type="line"/>
      <point x="333" y="397"/>
      <point x="354" y="371"/>
      <point x="348" y="340" type="curve" smooth="yes"/>
      <point x="346" y="325"/>
      <point x="355" y="313"/>
      <point x="371" y="313" type="curve" smooth="yes"/>
      <point x="384" y="313"/>
      <point x="399" y="325"/>
      <point x="401" y="340" type="curve" smooth="yes"/>
      <point x="412" y="402"/>
      <point x="372" y="451"/>
    </contour>
  </outline>
</glyph>
<glyph name="uni00AD" format="1">
  <advance width="373"/>
  <unicode hex="00AD"/>
  <outline>
    <contour>
      <point x="355" y="408" type="curve"/>
      <point x="153" y="408" type="line"/>
      <point x="138" y="408"/>
      <point x="125" y="397"/>
      <point x="122" y="382" type="curve" smooth="yes"/>
      <point x="119" y="366"/>
      <point x="129" y="355"/>
      <point x="144" y="355" type="curve"/>
      <point x="346" y="355" type="line"/>
      <point x="361" y="355"/>
      <point x="375" y="366"/>
      <point x="378" y="382" type="curve" smooth="yes"/>
      <point x="381" y="397"/>
      <point x="370" y="408"/>
    </contour>
  </outline>
</glyph>
<glyph name="registered" format="1">
  <advance width="468"/>
  <unicode hex="00AE"/>
  <outline>
    <contour>
      <point x="355" y="706" type="curve" smooth="yes"/>
      <point x="234" y="706"/>
      <point x="124" y="631"/>
      <point x="108" y="540" type="curve"/>
      <point x="53" y="227" type="line"/>
      <point x="36" y="134"/>
      <point x="121" y="60"/>
      <point x="241" y="60" type="curve" smooth="yes"/>
      <point x="361" y="60"/>
      <point x="472" y="134"/>
      <point x="489" y="227" type="curve"/>
      <point x="544" y="540" type="line"/>
      <point x="560" y="631"/>
      <point x="475" y="706"/>
    </contour>
    <contour>
      <point x="437" y="221" type="line"/>
      <point x="428" y="165"/>
      <point x="333" y="109"/>
      <point x="256" y="109" type="curve" smooth="yes"/>
      <point x="179" y="109"/>
      <point x="93" y="160"/>
      <point x="103" y="216" type="curve"/>
      <point x="160" y="540" type="line"/>
      <point x="170" y="597"/>
      <point x="276" y="659"/>
      <point x="353" y="659" type="curve" smooth="yes"/>
      <point x="430" y="659"/>
      <point x="504" y="598"/>
      <point x="494" y="541" type="curve"/>
    </contour>
    <contour>
      <point x="393" y="420" type="line"/>
      <point x="412" y="528" type="line"/>
      <point x="420" y="577"/>
      <point x="388" y="616"/>
      <point x="339" y="616" type="curve" smooth="yes"/>
      <point x="295" y="616"/>
      <point x="251" y="582"/>
      <point x="238" y="539" type="curve"/>
      <point x="174" y="178" type="line"/>
      <point x="171" y="163"/>
      <point x="181" y="151"/>
      <point x="197" y="151" type="curve" smooth="yes"/>
      <point x="211" y="151"/>
      <point x="226" y="163"/>
      <point x="229" y="178" type="curve"/>
      <point x="260" y="357" type="line"/>
      <point x="262" y="357" type="line"/>
      <point x="255" y="231" type="line"/>
      <point x="253" y="179"/>
      <point x="273" y="152"/>
      <point x="312" y="152" type="curve"/>
      <point x="321" y="152" type="line"/>
      <point x="336" y="153"/>
      <point x="350" y="168"/>
      <point x="351" y="182" type="curve" smooth="yes"/>
      <point x="352" y="196"/>
      <point x="342" y="207"/>
      <point x="327" y="207" type="curve" smooth="yes"/>
      <point x="324" y="207"/>
      <point x="323" y="206"/>
      <point x="322" y="206" type="curve" smooth="yes"/>
      <point x="314" y="206"/>
      <point x="309" y="211"/>
      <point x="311" y="238" type="curve"/>
      <point x="318" y="358" type="line"/>
      <point x="349" y="365"/>
      <point x="378" y="390"/>
      <point x="391" y="420" type="curve"/>
    </contour>
    <contour>
      <point x="309" y="411" type="curve"/>
      <point x="270" y="411" type="line"/>
      <point x="291" y="528" type="line"/>
      <point x="294" y="546"/>
      <point x="310" y="561"/>
      <point x="329" y="561" type="curve" smooth="yes"/>
      <point x="347" y="561"/>
      <point x="360" y="546"/>
      <point x="357" y="528" type="curve"/>
      <point x="341" y="439" type="line"/>
      <point x="338" y="424"/>
      <point x="323" y="411"/>
    </contour>
  </outline>
</glyph>
<glyph name="macron" format="1">
  <advance width="455"/>
  <unicode hex="00AF"/>
  <outline>
    <contour>
      <point x="516" y="734" type="curve" smooth="yes"/>
      <point x="519" y="750"/>
      <point x="510" y="761"/>
      <point x="502" y="761" type="curve"/>
      <point x="211" y="761" type="line"/>
      <point x="201" y="761"/>
      <point x="191" y="750"/>
      <point x="188" y="734" type="curve" smooth="yes"/>
      <point x="185" y="720"/>
      <point x="191" y="706"/>
      <point x="201" y="706" type="curve"/>
      <point x="492" y="706" type="line"/>
      <point x="500" y="706"/>
      <point x="513" y="720"/>
    </contour>
  </outline>
</glyph>
